<svg xmlns="http://www.w3.org/2000/svg" xmlns:xlink="http://www.w3.org/1999/xlink" width="307" zoomAndPan="magnify" viewBox="0 0 230.25 75.749997" height="101" preserveAspectRatio="xMidYMid meet" version="1.0"><defs><g/><clipPath id="31015f5b73"><path d="M 0.0351562 0.199219 L 229.496094 0.199219 L 229.496094 75.332031 L 0.0351562 75.332031 Z M 0.0351562 0.199219 " clip-rule="nonzero"/></clipPath><clipPath id="e26e0df59f"><path d="M 9.753906 0.199219 L 219.78125 0.199219 C 225.148438 0.199219 229.496094 4.550781 229.496094 9.917969 L 229.496094 65.617188 C 229.496094 70.984375 225.148438 75.332031 219.78125 75.332031 L 9.753906 75.332031 C 4.386719 75.332031 0.0351562 70.984375 0.0351562 65.617188 L 0.0351562 9.917969 C 0.0351562 4.550781 4.386719 0.199219 9.753906 0.199219 Z M 9.753906 0.199219 " clip-rule="nonzero"/></clipPath><clipPath id="fc7db55f86"><path d="M 0.00390625 0.167969 L 229.496094 0.167969 L 229.496094 65.171875 L 0.00390625 65.171875 Z M 0.00390625 0.167969 " clip-rule="nonzero"/></clipPath><clipPath id="73c7c35528"><path d="M 9.722656 0.167969 L 219.75 0.167969 C 225.117188 0.167969 229.46875 4.519531 229.46875 9.886719 L 229.46875 55.453125 C 229.46875 60.820312 225.117188 65.171875 219.75 65.171875 L 9.722656 65.171875 C 4.355469 65.171875 0.00390625 60.820312 0.00390625 55.453125 L 0.00390625 9.886719 C 0.00390625 4.519531 4.355469 0.167969 9.722656 0.167969 Z M 9.722656 0.167969 " clip-rule="nonzero"/></clipPath></defs><g clip-path="url(#31015f5b73)"><g clip-path="url(#e26e0df59f)"><path fill="#ffae8c" d="M 0.0351562 0.199219 L 229.546875 0.199219 L 229.546875 75.332031 L 0.0351562 75.332031 Z M 0.0351562 0.199219 " fill-opacity="1" fill-rule="nonzero"/></g></g><g clip-path="url(#fc7db55f86)"><g clip-path="url(#73c7c35528)"><path fill="#fff0da" d="M 0.00390625 0.167969 L 229.546875 0.167969 L 229.546875 65.171875 L 0.00390625 65.171875 Z M 0.00390625 0.167969 " fill-opacity="1" fill-rule="nonzero"/></g></g><g fill="#ff6b50" fill-opacity="1"><g transform="translate(126.944656, 43.834284)"><g><path d="M 12.28125 0.59375 C 18 0.59375 22.59375 -4.046875 22.59375 -10 C 22.59375 -12.5 21.453125 -13.578125 19.71875 -13.578125 L 13.671875 -13.578125 C 11.890625 -13.578125 10.828125 -12.5625 10.828125 -10.75 C 10.828125 -9.046875 11.890625 -8 13.703125 -8 L 16.390625 -8 C 16.078125 -6.203125 14.296875 -4.9375 12.15625 -4.9375 C 8.953125 -4.9375 7.03125 -7.625 7.03125 -11.265625 C 7.03125 -15.03125 9.328125 -17.59375 12.3125 -17.59375 C 14.59375 -17.59375 15.6875 -16.671875 16.359375 -16.109375 C 17.015625 -15.53125 17.65625 -15.3125 18.484375 -15.3125 C 20.125 -15.3125 21.109375 -16.359375 21.109375 -17.75 C 21.109375 -19.265625 20.28125 -20.5 18.921875 -21.390625 C 17.21875 -22.5 14.75 -23.125 12.09375 -23.125 C 5.5 -23.125 0.59375 -18.1875 0.59375 -11.046875 C 0.59375 -5.28125 4.359375 0.59375 12.28125 0.59375 Z M 1.703125 -11.328125 C 1.515625 -11.328125 1.453125 -11.484375 1.453125 -11.828125 C 1.453125 -16.859375 5.53125 -22.28125 11.890625 -22.28125 C 12.34375 -22.28125 12.5625 -22.140625 12.5625 -21.890625 C 12.5625 -21.640625 12.34375 -21.453125 11.765625 -21.453125 C 5.765625 -21.453125 2.4375 -16.078125 1.96875 -11.734375 C 1.9375 -11.453125 1.890625 -11.328125 1.703125 -11.328125 Z M 11.859375 -10.4375 C 11.671875 -10.4375 11.578125 -10.65625 11.578125 -10.921875 C 11.578125 -11.953125 12.34375 -12.84375 13.796875 -12.84375 L 19.84375 -12.84375 C 20.09375 -12.84375 20.3125 -12.6875 20.3125 -12.53125 C 20.3125 -12.34375 20.09375 -12.1875 19.84375 -12.1875 L 14.078125 -12.1875 C 12.75 -12.1875 12.25 -11.484375 12.09375 -10.828125 C 12.0625 -10.59375 12.015625 -10.4375 11.859375 -10.4375 Z M 12.8125 -3.734375 C 12.625 -3.734375 12.5 -3.859375 12.5 -4.046875 C 12.5 -4.234375 12.59375 -4.296875 12.875 -4.328125 C 13.921875 -4.46875 14.875 -4.84375 15.625 -5.4375 C 16.140625 -5.859375 16.578125 -6.390625 16.796875 -6.796875 C 17.015625 -7.21875 17.15625 -7.34375 17.25 -7.34375 C 17.375 -7.34375 17.53125 -7.25 17.53125 -7.0625 C 17.53125 -6.796875 17.40625 -6.546875 17.28125 -6.296875 C 16.640625 -5.03125 14.625 -3.734375 12.8125 -3.734375 Z M 12.8125 -3.734375 "/></g></g></g><g fill="#ff6b50" fill-opacity="1"><g transform="translate(150.324826, 43.834284)"><g><path d="M 2.75 0.1875 C 4.296875 0.1875 5.3125 -0.4375 5.953125 -2.8125 L 6.296875 -4.140625 L 13.953125 -4.140625 L 14.421875 -2.6875 C 15 -0.953125 15.75 0.1875 17.5625 0.1875 C 19.296875 0.1875 20.375 -0.765625 20.375 -2.3125 C 20.375 -3.515625 20 -4.71875 19.515625 -5.984375 L 14.453125 -19.453125 C 13.609375 -21.703125 12.3125 -23.125 10.1875 -23.125 C 7.9375 -23.125 6.703125 -21.703125 5.859375 -19.453125 L 0.671875 -5.625 C 0.3125 -4.71875 -0.09375 -3.453125 -0.09375 -2.3125 C -0.09375 -0.765625 1.015625 0.1875 2.75 0.1875 Z M 0.953125 -2.8125 C 0.828125 -2.8125 0.765625 -2.90625 0.765625 -3.125 C 0.765625 -3.421875 0.859375 -3.953125 1.171875 -4.78125 L 6.515625 -19.203125 C 7.34375 -21.453125 8.546875 -22.3125 10 -22.3125 C 10.828125 -22.3125 11.359375 -22.015625 11.359375 -21.734375 C 11.359375 -21.640625 11.296875 -21.546875 11.078125 -21.609375 C 10.6875 -21.703125 10.5 -21.734375 10 -21.734375 C 8.578125 -21.734375 7.6875 -20.40625 7.1875 -19.015625 L 1.578125 -3.921875 C 1.234375 -2.96875 1.109375 -2.8125 0.953125 -2.8125 Z M 8.0625 -9.71875 L 10.25 -16.609375 L 10.3125 -16.609375 L 12.25 -9.71875 Z M 8.640625 -8.328125 C 8.390625 -8.328125 8.15625 -8.484375 8.15625 -8.671875 C 8.15625 -8.859375 8.390625 -8.984375 8.640625 -8.984375 L 12.15625 -8.984375 C 12.40625 -8.984375 12.625 -8.828125 12.625 -8.671875 C 12.625 -8.484375 12.40625 -8.328125 12.15625 -8.328125 Z M 8.640625 -8.328125 "/></g></g></g><g fill="#ff6b50" fill-opacity="1"><g transform="translate(170.604513, 43.834284)"><g><path d="M 3.359375 0.1875 C 4.90625 0.1875 6.171875 -0.15625 6.703125 -3.703125 L 7.90625 -11.484375 L 7.96875 -11.484375 L 10.75 -2.34375 C 11.296875 -0.53125 12.15625 0.1875 14.046875 0.1875 C 15.8125 0.1875 16.703125 -0.59375 17.1875 -2.125 L 20.09375 -11.484375 L 20.15625 -11.484375 L 21.296875 -4.078125 C 21.765625 -1.078125 22.28125 0.1875 24.671875 0.1875 C 26.515625 0.1875 27.5625 -1.203125 27.5625 -2.6875 C 27.5625 -3.0625 27.5 -4.109375 27.203125 -5.625 L 24.8125 -18.578125 C 24.234375 -21.703125 23.03125 -22.71875 20.78125 -22.71875 C 18.09375 -22.71875 17.34375 -20.84375 15.8125 -15.953125 L 14.078125 -10.375 L 14.015625 -10.375 L 11.765625 -17.28125 C 10.625 -20.75 9.90625 -22.71875 7.03125 -22.71875 C 5.125 -22.71875 3.796875 -21.671875 3.234375 -18.609375 L 1.453125 -9.171875 C 0.625 -4.75 0.46875 -3.234375 0.46875 -2.6875 C 0.46875 -1.234375 1.515625 0.1875 3.359375 0.1875 Z M 15.25 -9.453125 C 15.09375 -9.453125 15 -9.5625 15 -9.84375 C 15 -10.15625 15.09375 -10.65625 15.34375 -11.421875 L 17.65625 -18.796875 C 18.390625 -21.109375 19.71875 -22.078125 20.84375 -22.078125 C 21.328125 -22.078125 21.484375 -21.953125 21.484375 -21.765625 C 21.484375 -21.515625 21.359375 -21.515625 21.015625 -21.515625 C 19.578125 -21.515625 18.796875 -20.0625 18.34375 -18.640625 L 15.8125 -10.59375 C 15.5 -9.625 15.40625 -9.453125 15.25 -9.453125 Z M 1.515625 -2.71875 C 1.359375 -2.71875 1.265625 -2.875 1.265625 -3.328125 C 1.265625 -3.640625 1.296875 -4.078125 1.421875 -4.6875 L 3.921875 -18.3125 C 4.421875 -21.015625 5.65625 -21.984375 6.953125 -21.984375 C 7.4375 -21.984375 7.8125 -21.890625 7.8125 -21.671875 C 7.8125 -21.578125 7.78125 -21.484375 7.625 -21.484375 C 7.59375 -21.484375 7.59375 -21.484375 7.5625 -21.484375 L 7.25 -21.515625 C 5.859375 -21.515625 4.9375 -19.9375 4.625 -18.25 L 2 -3.921875 C 1.796875 -2.84375 1.703125 -2.71875 1.515625 -2.71875 Z M 1.515625 -2.71875 "/></g></g></g><g fill="#ff6b50" fill-opacity="1"><g transform="translate(198.635402, 43.834284)"><g><path d="M 4.015625 0 L 12.3125 0 C 13.984375 0 15.15625 -1.109375 15.15625 -2.78125 C 15.15625 -4.5625 14.015625 -5.53125 12.28125 -5.53125 L 7.15625 -5.53125 L 7.15625 -8.578125 L 11.671875 -8.578125 C 13.421875 -8.578125 14.515625 -9.625 14.515625 -11.359375 C 14.515625 -13.09375 13.359375 -14.140625 11.671875 -14.140625 L 7.125 -14.140625 L 7.125 -16.984375 L 12.15625 -16.984375 C 13.796875 -16.984375 15 -17.96875 15 -19.75 C 15 -21.421875 13.796875 -22.53125 12.15625 -22.53125 L 4.015625 -22.53125 C 2.53125 -22.53125 1.171875 -21.234375 1.171875 -19.609375 L 1.171875 -2.90625 C 1.171875 -1.265625 2.53125 0 4.015625 0 Z M 2.1875 -18.25 C 2 -18.25 1.890625 -18.609375 1.890625 -19.328125 C 1.890625 -21.046875 2.9375 -21.828125 4.296875 -21.828125 L 12.21875 -21.828125 C 12.46875 -21.828125 12.6875 -21.671875 12.6875 -21.515625 C 12.6875 -21.328125 12.46875 -21.171875 12.21875 -21.171875 L 4.5625 -21.171875 C 3.234375 -21.171875 2.5625 -20.5 2.40625 -18.640625 C 2.375 -18.421875 2.34375 -18.25 2.1875 -18.25 Z M 8.0625 -12.75 C 7.8125 -12.75 7.59375 -12.90625 7.59375 -13.09375 C 7.59375 -13.28125 7.8125 -13.421875 8.0625 -13.421875 L 11.578125 -13.421875 C 11.828125 -13.421875 12.0625 -13.25 12.0625 -13.09375 C 12.0625 -12.90625 11.828125 -12.75 11.578125 -12.75 Z M 8.0625 -4.140625 C 7.8125 -4.140625 7.59375 -4.296875 7.59375 -4.5 C 7.59375 -4.6875 7.8125 -4.8125 8.0625 -4.8125 L 12.21875 -4.8125 C 12.46875 -4.8125 12.6875 -4.65625 12.6875 -4.5 C 12.6875 -4.296875 12.46875 -4.140625 12.21875 -4.140625 Z M 8.0625 -4.140625 "/></g></g></g><g fill="#000000" fill-opacity="1"><g transform="translate(18.892692, 43.48204)"><g><path d="M 8.125 0.59375 C 13.703125 0.59375 17.125 -2.21875 17.125 -7.0625 C 17.125 -11.921875 14.234375 -13.25 9.9375 -14.390625 C 8.03125 -14.90625 6.953125 -15.21875 6.953125 -16.140625 C 6.953125 -16.984375 7.65625 -17.34375 8.828125 -17.34375 C 10.21875 -17.34375 11.078125 -17.046875 11.921875 -16.765625 C 12.3125 -16.640625 12.6875 -16.578125 13.125 -16.578125 C 14.8125 -16.578125 15.8125 -17.75 15.8125 -19.328125 C 15.8125 -20.75 14.9375 -21.859375 13.25 -22.5 C 12.1875 -22.90625 10.796875 -23.125 9.078125 -23.125 C 3.890625 -23.125 0.46875 -20.46875 0.46875 -15.625 C 0.46875 -10.75 4.359375 -9.6875 7.84375 -8.703125 C 9.71875 -8.15625 10.625 -7.59375 10.625 -6.609375 C 10.625 -5.796875 9.875 -5.25 8.609375 -5.25 C 6.796875 -5.25 5.734375 -5.796875 4.625 -6.140625 C 4.015625 -6.328125 3.609375 -6.484375 3 -6.484375 C 1.015625 -6.484375 0.09375 -5.09375 0.09375 -3.453125 C 0.09375 -2.15625 1.046875 -1.203125 2.4375 -0.5 C 3.984375 0.28125 6.171875 0.59375 8.125 0.59375 Z M 1.515625 -15.15625 C 1.328125 -15.15625 1.265625 -15.3125 1.265625 -15.65625 C 1.265625 -19.546875 4.203125 -22.375 9.328125 -22.375 C 10 -22.375 10.21875 -22.25 10.21875 -22.046875 C 10.21875 -21.765625 9.9375 -21.671875 9.171875 -21.640625 C 3.765625 -21.359375 2.125 -18.578125 1.765625 -15.5625 C 1.734375 -15.28125 1.703125 -15.15625 1.515625 -15.15625 Z M 10.3125 -4.625 C 10.15625 -4.625 10.0625 -4.6875 10.0625 -4.78125 C 10.0625 -4.875 10.125 -4.96875 10.28125 -5.03125 C 10.796875 -5.21875 11.109375 -5.625 11.171875 -6.140625 C 11.203125 -6.359375 11.265625 -6.515625 11.421875 -6.515625 C 11.609375 -6.515625 11.703125 -6.421875 11.703125 -6.171875 C 11.703125 -5.5 11.109375 -4.625 10.3125 -4.625 Z M 1.203125 -2.53125 C 1.015625 -2.53125 0.921875 -2.875 0.921875 -3.328125 C 0.921875 -4.96875 1.828125 -5.765625 3.0625 -5.765625 C 3.234375 -5.765625 3.328125 -5.6875 3.328125 -5.59375 C 3.328125 -5.5 3.265625 -5.40625 3.09375 -5.34375 C 2.09375 -4.9375 1.546875 -4.421875 1.453125 -2.90625 C 1.421875 -2.6875 1.359375 -2.53125 1.203125 -2.53125 Z M 1.203125 -2.53125 "/></g></g></g><g fill="#000000" fill-opacity="1"><g transform="translate(36.609736, 43.48204)"><g><path d="M 7.90625 0.1875 C 9.6875 0.1875 10.890625 -0.921875 10.890625 -2.8125 L 10.890625 -16.984375 L 13.453125 -16.984375 C 15.25 -16.984375 16.421875 -18 16.421875 -19.75 C 16.421875 -21.515625 15.25 -22.53125 13.453125 -22.53125 L 2.375 -22.53125 C 0.53125 -22.53125 -0.625 -21.515625 -0.625 -19.75 C -0.625 -18 0.53125 -16.984375 2.375 -16.984375 L 4.90625 -16.984375 L 4.90625 -2.8125 C 4.90625 -0.921875 6.140625 0.1875 7.90625 0.1875 Z M 0.28125 -18.796875 C 0.09375 -18.796875 0 -19.140625 0 -19.875 C 0 -21.046875 1.109375 -21.828125 2.375 -21.828125 L 13.921875 -21.828125 C 14.171875 -21.828125 14.390625 -21.671875 14.390625 -21.515625 C 14.390625 -21.328125 14.171875 -21.171875 13.921875 -21.171875 L 2.65625 -21.171875 C 1.328125 -21.171875 0.671875 -20.625 0.5 -19.171875 C 0.46875 -18.953125 0.4375 -18.796875 0.28125 -18.796875 Z M 0.28125 -18.796875 "/></g></g></g><g fill="#000000" fill-opacity="1"><g transform="translate(52.396885, 43.48204)"><g><path d="M 2.75 0.1875 C 4.296875 0.1875 5.3125 -0.4375 5.953125 -2.8125 L 6.296875 -4.140625 L 13.953125 -4.140625 L 14.421875 -2.6875 C 15 -0.953125 15.75 0.1875 17.5625 0.1875 C 19.296875 0.1875 20.375 -0.765625 20.375 -2.3125 C 20.375 -3.515625 20 -4.71875 19.515625 -5.984375 L 14.453125 -19.453125 C 13.609375 -21.703125 12.3125 -23.125 10.1875 -23.125 C 7.9375 -23.125 6.703125 -21.703125 5.859375 -19.453125 L 0.671875 -5.625 C 0.3125 -4.71875 -0.09375 -3.453125 -0.09375 -2.3125 C -0.09375 -0.765625 1.015625 0.1875 2.75 0.1875 Z M 0.953125 -2.8125 C 0.828125 -2.8125 0.765625 -2.90625 0.765625 -3.125 C 0.765625 -3.421875 0.859375 -3.953125 1.171875 -4.78125 L 6.515625 -19.203125 C 7.34375 -21.453125 8.546875 -22.3125 10 -22.3125 C 10.828125 -22.3125 11.359375 -22.015625 11.359375 -21.734375 C 11.359375 -21.640625 11.296875 -21.546875 11.078125 -21.609375 C 10.6875 -21.703125 10.5 -21.734375 10 -21.734375 C 8.578125 -21.734375 7.6875 -20.40625 7.1875 -19.015625 L 1.578125 -3.921875 C 1.234375 -2.96875 1.109375 -2.8125 0.953125 -2.8125 Z M 8.0625 -9.71875 L 10.25 -16.609375 L 10.3125 -16.609375 L 12.25 -9.71875 Z M 8.640625 -8.328125 C 8.390625 -8.328125 8.15625 -8.484375 8.15625 -8.671875 C 8.15625 -8.859375 8.390625 -8.984375 8.640625 -8.984375 L 12.15625 -8.984375 C 12.40625 -8.984375 12.625 -8.828125 12.625 -8.671875 C 12.625 -8.484375 12.40625 -8.328125 12.15625 -8.328125 Z M 8.640625 -8.328125 "/></g></g></g><g fill="#000000" fill-opacity="1"><g transform="translate(72.676572, 43.48204)"><g><path d="M 4.171875 0.1875 C 5.921875 0.1875 7.15625 -0.921875 7.15625 -2.8125 L 7.15625 -8.734375 L 7.21875 -8.734375 L 12.46875 -1.640625 C 13.484375 -0.28125 14.390625 0.1875 15.46875 0.1875 C 17.65625 0.1875 18.671875 -1.328125 18.671875 -2.625 C 18.671875 -3.609375 18.0625 -4.46875 17.40625 -5.1875 L 13.828125 -9.078125 L 14.015625 -9.140625 C 17.125 -10.1875 18.34375 -12.78125 18.34375 -15.25 C 18.34375 -19.75 15.15625 -22.53125 10.625 -22.53125 L 4.015625 -22.53125 C 2.53125 -22.53125 1.171875 -21.265625 1.171875 -19.609375 L 1.171875 -2.8125 C 1.171875 -0.921875 2.40625 0.1875 4.171875 0.1875 Z M 2.1875 -18.25 C 2 -18.25 1.890625 -18.609375 1.890625 -19.328125 C 1.890625 -20.8125 3 -21.828125 4.265625 -21.828125 L 11.265625 -21.828125 C 11.765625 -21.828125 12.15625 -21.703125 12.15625 -21.515625 C 12.15625 -21.328125 11.328125 -21.171875 9.8125 -21.171875 L 4.5625 -21.171875 C 3.234375 -21.171875 2.5625 -20.5 2.40625 -18.640625 C 2.375 -18.421875 2.34375 -18.25 2.1875 -18.25 Z M 7.15625 -13.0625 L 7.15625 -16.984375 L 10.4375 -16.984375 C 11.328125 -16.984375 12.375 -16.390625 12.375 -15.125 C 12.375 -13.890625 11.546875 -13.0625 10.4375 -13.0625 Z M 8.0625 -11.671875 C 7.8125 -11.671875 7.59375 -11.828125 7.59375 -12.015625 C 7.59375 -12.21875 7.8125 -12.34375 8.0625 -12.34375 L 10.625 -12.34375 C 12.21875 -12.34375 12.5 -13.28125 12.71875 -13.328125 C 12.875 -13.359375 12.9375 -13.25 12.9375 -13.125 C 12.9375 -12.6875 12.125 -11.671875 10.921875 -11.671875 Z M 8.0625 -11.671875 "/></g></g></g><g fill="#000000" fill-opacity="1"><g transform="translate(91.659116, 43.48204)"><g><path d="M 7.90625 0.1875 C 9.6875 0.1875 10.890625 -0.921875 10.890625 -2.8125 L 10.890625 -16.984375 L 13.453125 -16.984375 C 15.25 -16.984375 16.421875 -18 16.421875 -19.75 C 16.421875 -21.515625 15.25 -22.53125 13.453125 -22.53125 L 2.375 -22.53125 C 0.53125 -22.53125 -0.625 -21.515625 -0.625 -19.75 C -0.625 -18 0.53125 -16.984375 2.375 -16.984375 L 4.90625 -16.984375 L 4.90625 -2.8125 C 4.90625 -0.921875 6.140625 0.1875 7.90625 0.1875 Z M 0.28125 -18.796875 C 0.09375 -18.796875 0 -19.140625 0 -19.875 C 0 -21.046875 1.109375 -21.828125 2.375 -21.828125 L 13.921875 -21.828125 C 14.171875 -21.828125 14.390625 -21.671875 14.390625 -21.515625 C 14.390625 -21.328125 14.171875 -21.171875 13.921875 -21.171875 L 2.65625 -21.171875 C 1.328125 -21.171875 0.671875 -20.625 0.5 -19.171875 C 0.46875 -18.953125 0.4375 -18.796875 0.28125 -18.796875 Z M 0.28125 -18.796875 "/></g></g></g></svg>