<svg xmlns="http://www.w3.org/2000/svg" xmlns:xlink="http://www.w3.org/1999/xlink" width="307" zoomAndPan="magnify" viewBox="0 0 230.25 65.249999" height="87" preserveAspectRatio="xMidYMid meet" version="1.0"><defs><g/><clipPath id="a9149a5f85"><path d="M 0.953125 0 L 228.554688 0 L 228.554688 64.476562 L 0.953125 64.476562 Z M 0.953125 0 " clip-rule="nonzero"/></clipPath></defs><g clip-path="url(#a9149a5f85)"><path fill="#fff0da" d="M 0.953125 0 L 228.632812 0 L 228.632812 64.476562 L 0.953125 64.476562 Z M 0.953125 0 " fill-opacity="1" fill-rule="nonzero"/></g><g fill="#ff6b50" fill-opacity="1"><g transform="translate(126.030016, 42.484336)"><g><path d="M 11.28125 0.546875 C 16.546875 0.546875 20.765625 -3.71875 20.765625 -9.1875 C 20.765625 -11.484375 19.71875 -12.484375 18.125 -12.484375 L 12.5625 -12.484375 C 10.9375 -12.484375 9.953125 -11.546875 9.953125 -9.890625 C 9.953125 -8.328125 10.9375 -7.359375 12.59375 -7.359375 L 15.078125 -7.359375 C 14.78125 -5.703125 13.15625 -4.53125 11.171875 -4.53125 C 8.234375 -4.53125 6.453125 -7.015625 6.453125 -10.359375 C 6.453125 -13.8125 8.578125 -16.171875 11.3125 -16.171875 C 13.40625 -16.171875 14.4375 -15.328125 15.046875 -14.8125 C 15.65625 -14.28125 16.234375 -14.078125 16.984375 -14.078125 C 18.5 -14.078125 19.40625 -15.046875 19.40625 -16.328125 C 19.40625 -17.71875 18.65625 -18.859375 17.390625 -19.671875 C 15.828125 -20.6875 13.5625 -21.265625 11.109375 -21.265625 C 5.0625 -21.265625 0.546875 -16.734375 0.546875 -10.15625 C 0.546875 -4.859375 4.015625 0.546875 11.28125 0.546875 Z M 1.578125 -10.421875 C 1.390625 -10.421875 1.34375 -10.5625 1.34375 -10.875 C 1.34375 -15.5 5.09375 -20.484375 10.9375 -20.484375 C 11.34375 -20.484375 11.546875 -20.359375 11.546875 -20.140625 C 11.546875 -19.90625 11.34375 -19.71875 10.828125 -19.71875 C 5.296875 -19.71875 2.234375 -14.78125 1.796875 -10.796875 C 1.78125 -10.53125 1.75 -10.421875 1.578125 -10.421875 Z M 10.90625 -9.59375 C 10.734375 -9.59375 10.640625 -9.796875 10.640625 -10.03125 C 10.640625 -11 11.34375 -11.8125 12.6875 -11.8125 L 18.234375 -11.8125 C 18.46875 -11.8125 18.671875 -11.671875 18.671875 -11.515625 C 18.671875 -11.34375 18.46875 -11.203125 18.234375 -11.203125 L 12.953125 -11.203125 C 11.71875 -11.203125 11.265625 -10.5625 11.109375 -9.953125 C 11.078125 -9.75 11.0625 -9.59375 10.90625 -9.59375 Z M 11.78125 -3.4375 C 11.609375 -3.4375 11.484375 -3.546875 11.484375 -3.71875 C 11.484375 -3.90625 11.578125 -3.953125 11.84375 -3.984375 C 12.796875 -4.109375 13.671875 -4.453125 14.375 -5 C 14.84375 -5.375 15.25 -5.875 15.453125 -6.25 C 15.65625 -6.640625 15.765625 -6.75 15.859375 -6.75 C 15.96875 -6.75 16.125 -6.65625 16.125 -6.484375 C 16.125 -6.25 16 -6.015625 15.890625 -5.796875 C 15.296875 -4.625 13.4375 -3.4375 11.78125 -3.4375 Z M 11.78125 -3.4375 "/></g></g></g><g fill="#ff6b50" fill-opacity="1"><g transform="translate(147.528395, 42.484336)"><g><path d="M 2.53125 0.171875 C 3.953125 0.171875 4.890625 -0.40625 5.46875 -2.59375 L 5.796875 -3.8125 L 12.828125 -3.8125 L 13.265625 -2.46875 C 13.796875 -0.875 14.484375 0.171875 16.140625 0.171875 C 17.75 0.171875 18.734375 -0.703125 18.734375 -2.125 C 18.734375 -3.234375 18.390625 -4.328125 17.953125 -5.5 L 13.296875 -17.890625 C 12.515625 -19.953125 11.3125 -21.265625 9.375 -21.265625 C 7.296875 -21.265625 6.171875 -19.953125 5.375 -17.890625 L 0.609375 -5.171875 C 0.296875 -4.328125 -0.09375 -3.171875 -0.09375 -2.125 C -0.09375 -0.703125 0.9375 0.171875 2.53125 0.171875 Z M 0.875 -2.59375 C 0.75 -2.59375 0.703125 -2.671875 0.703125 -2.875 C 0.703125 -3.140625 0.78125 -3.640625 1.078125 -4.390625 L 6 -17.65625 C 6.75 -19.71875 7.859375 -20.515625 9.1875 -20.515625 C 9.953125 -20.515625 10.4375 -20.25 10.4375 -19.984375 C 10.4375 -19.90625 10.390625 -19.8125 10.1875 -19.875 C 9.828125 -19.953125 9.65625 -19.984375 9.1875 -19.984375 C 7.890625 -19.984375 7.0625 -18.765625 6.609375 -17.484375 L 1.453125 -3.609375 C 1.140625 -2.734375 1.015625 -2.59375 0.875 -2.59375 Z M 7.421875 -8.9375 L 9.421875 -15.28125 L 9.484375 -15.28125 L 11.265625 -8.9375 Z M 7.9375 -7.65625 C 7.703125 -7.65625 7.5 -7.796875 7.5 -7.96875 C 7.5 -8.140625 7.703125 -8.265625 7.9375 -8.265625 L 11.171875 -8.265625 C 11.40625 -8.265625 11.609375 -8.109375 11.609375 -7.96875 C 11.609375 -7.796875 11.40625 -7.65625 11.171875 -7.65625 Z M 7.9375 -7.65625 "/></g></g></g><g fill="#ff6b50" fill-opacity="1"><g transform="translate(166.175838, 42.484336)"><g><path d="M 3.078125 0.171875 C 4.515625 0.171875 5.671875 -0.140625 6.171875 -3.40625 L 7.265625 -10.5625 L 7.328125 -10.5625 L 9.890625 -2.15625 C 10.390625 -0.5 11.171875 0.171875 12.921875 0.171875 C 14.546875 0.171875 15.359375 -0.546875 15.796875 -1.953125 L 18.46875 -10.5625 L 18.53125 -10.5625 L 19.578125 -3.75 C 20.015625 -0.984375 20.484375 0.171875 22.6875 0.171875 C 24.375 0.171875 25.34375 -1.109375 25.34375 -2.46875 C 25.34375 -2.828125 25.28125 -3.78125 25.015625 -5.171875 L 22.8125 -17.078125 C 22.28125 -19.953125 21.1875 -20.890625 19.109375 -20.890625 C 16.640625 -20.890625 15.9375 -19.171875 14.546875 -14.65625 L 12.953125 -9.546875 L 12.890625 -9.546875 L 10.828125 -15.890625 C 9.78125 -19.078125 9.109375 -20.890625 6.453125 -20.890625 C 4.71875 -20.890625 3.484375 -19.921875 2.96875 -17.109375 L 1.34375 -8.4375 C 0.578125 -4.359375 0.4375 -2.96875 0.4375 -2.46875 C 0.4375 -1.140625 1.390625 0.171875 3.078125 0.171875 Z M 14.015625 -8.703125 C 13.875 -8.703125 13.796875 -8.78125 13.796875 -9.046875 C 13.796875 -9.34375 13.875 -9.796875 14.109375 -10.5 L 16.234375 -17.28125 C 16.90625 -19.40625 18.125 -20.3125 19.171875 -20.3125 C 19.609375 -20.3125 19.75 -20.1875 19.75 -20.015625 C 19.75 -19.78125 19.640625 -19.78125 19.3125 -19.78125 C 18.015625 -19.78125 17.28125 -18.453125 16.875 -17.140625 L 14.546875 -9.75 C 14.25 -8.84375 14.171875 -8.703125 14.015625 -8.703125 Z M 1.390625 -2.5 C 1.25 -2.5 1.15625 -2.640625 1.15625 -3.0625 C 1.15625 -3.34375 1.1875 -3.75 1.3125 -4.3125 L 3.609375 -16.84375 C 4.078125 -19.3125 5.203125 -20.21875 6.40625 -20.21875 C 6.84375 -20.21875 7.1875 -20.140625 7.1875 -19.921875 C 7.1875 -19.84375 7.15625 -19.75 7.015625 -19.75 C 6.984375 -19.75 6.984375 -19.75 6.953125 -19.75 L 6.65625 -19.78125 C 5.375 -19.78125 4.53125 -18.328125 4.25 -16.78125 L 1.828125 -3.609375 C 1.65625 -2.625 1.578125 -2.5 1.390625 -2.5 Z M 1.390625 -2.5 "/></g></g></g><g fill="#ff6b50" fill-opacity="1"><g transform="translate(191.950614, 42.484336)"><g><path d="M 3.6875 0 L 11.3125 0 C 12.859375 0 13.9375 -1.015625 13.9375 -2.5625 C 13.9375 -4.1875 12.890625 -5.09375 11.28125 -5.09375 L 6.578125 -5.09375 L 6.578125 -7.890625 L 10.734375 -7.890625 C 12.328125 -7.890625 13.359375 -8.84375 13.359375 -10.4375 C 13.359375 -12.046875 12.28125 -13 10.734375 -13 L 6.546875 -13 L 6.546875 -15.625 L 11.171875 -15.625 C 12.6875 -15.625 13.796875 -16.53125 13.796875 -18.15625 C 13.796875 -19.703125 12.6875 -20.71875 11.171875 -20.71875 L 3.6875 -20.71875 C 2.328125 -20.71875 1.078125 -19.515625 1.078125 -18.03125 L 1.078125 -2.671875 C 1.078125 -1.15625 2.328125 0 3.6875 0 Z M 2 -16.78125 C 1.828125 -16.78125 1.75 -17.109375 1.75 -17.78125 C 1.75 -19.34375 2.703125 -20.078125 3.953125 -20.078125 L 11.234375 -20.078125 C 11.46875 -20.078125 11.671875 -19.921875 11.671875 -19.78125 C 11.671875 -19.609375 11.46875 -19.46875 11.234375 -19.46875 L 4.1875 -19.46875 C 2.96875 -19.46875 2.359375 -18.859375 2.21875 -17.140625 C 2.1875 -16.9375 2.15625 -16.78125 2 -16.78125 Z M 7.421875 -11.71875 C 7.1875 -11.71875 6.984375 -11.875 6.984375 -12.046875 C 6.984375 -12.21875 7.1875 -12.328125 7.421875 -12.328125 L 10.640625 -12.328125 C 10.875 -12.328125 11.078125 -12.1875 11.078125 -12.046875 C 11.078125 -11.875 10.875 -11.71875 10.640625 -11.71875 Z M 7.421875 -3.8125 C 7.1875 -3.8125 6.984375 -3.953125 6.984375 -4.125 C 6.984375 -4.3125 7.1875 -4.421875 7.421875 -4.421875 L 11.234375 -4.421875 C 11.46875 -4.421875 11.671875 -4.28125 11.671875 -4.125 C 11.671875 -3.953125 11.46875 -3.8125 11.234375 -3.8125 Z M 7.421875 -3.8125 "/></g></g></g><g fill="#000000" fill-opacity="1"><g transform="translate(26.674785, 42.160443)"><g><path d="M 7.484375 0.546875 C 12.59375 0.546875 15.734375 -2.03125 15.734375 -6.484375 C 15.734375 -10.96875 13.09375 -12.1875 9.140625 -13.234375 C 7.390625 -13.703125 6.40625 -14 6.40625 -14.84375 C 6.40625 -15.625 7.046875 -15.9375 8.109375 -15.9375 C 9.390625 -15.9375 10.1875 -15.6875 10.96875 -15.421875 C 11.3125 -15.296875 11.671875 -15.25 12.078125 -15.25 C 13.609375 -15.25 14.546875 -16.328125 14.546875 -17.78125 C 14.546875 -19.078125 13.734375 -20.109375 12.1875 -20.6875 C 11.203125 -21.0625 9.921875 -21.265625 8.34375 -21.265625 C 3.578125 -21.265625 0.4375 -18.828125 0.4375 -14.375 C 0.4375 -9.890625 4.015625 -8.90625 7.21875 -8 C 8.9375 -7.5 9.78125 -6.984375 9.78125 -6.078125 C 9.78125 -5.328125 9.078125 -4.828125 7.90625 -4.828125 C 6.25 -4.828125 5.265625 -5.328125 4.25 -5.640625 C 3.6875 -5.8125 3.3125 -5.96875 2.765625 -5.96875 C 0.9375 -5.96875 0.09375 -4.6875 0.09375 -3.171875 C 0.09375 -1.984375 0.953125 -1.109375 2.234375 -0.46875 C 3.671875 0.265625 5.671875 0.546875 7.484375 0.546875 Z M 1.390625 -13.9375 C 1.21875 -13.9375 1.15625 -14.078125 1.15625 -14.40625 C 1.15625 -17.984375 3.875 -20.5625 8.578125 -20.5625 C 9.1875 -20.5625 9.390625 -20.453125 9.390625 -20.28125 C 9.390625 -20.015625 9.140625 -19.921875 8.4375 -19.90625 C 3.46875 -19.640625 1.953125 -17.078125 1.625 -14.3125 C 1.59375 -14.046875 1.578125 -13.9375 1.390625 -13.9375 Z M 9.484375 -4.25 C 9.34375 -4.25 9.25 -4.3125 9.25 -4.390625 C 9.25 -4.484375 9.3125 -4.5625 9.453125 -4.625 C 9.921875 -4.796875 10.21875 -5.171875 10.265625 -5.640625 C 10.296875 -5.84375 10.359375 -6 10.5 -6 C 10.671875 -6 10.765625 -5.90625 10.765625 -5.671875 C 10.765625 -5.0625 10.21875 -4.25 9.484375 -4.25 Z M 1.109375 -2.328125 C 0.9375 -2.328125 0.84375 -2.640625 0.84375 -3.0625 C 0.84375 -4.5625 1.6875 -5.296875 2.828125 -5.296875 C 2.96875 -5.296875 3.0625 -5.234375 3.0625 -5.15625 C 3.0625 -5.0625 3 -4.96875 2.84375 -4.921875 C 1.921875 -4.53125 1.421875 -4.078125 1.34375 -2.671875 C 1.3125 -2.46875 1.25 -2.328125 1.109375 -2.328125 Z M 1.109375 -2.328125 "/></g></g></g><g fill="#000000" fill-opacity="1"><g transform="translate(42.965843, 42.160443)"><g><path d="M 7.265625 0.171875 C 8.90625 0.171875 10.015625 -0.84375 10.015625 -2.59375 L 10.015625 -15.625 L 12.359375 -15.625 C 14.015625 -15.625 15.09375 -16.546875 15.09375 -18.15625 C 15.09375 -19.78125 14.015625 -20.71875 12.359375 -20.71875 L 2.1875 -20.71875 C 0.5 -20.71875 -0.578125 -19.78125 -0.578125 -18.15625 C -0.578125 -16.546875 0.5 -15.625 2.1875 -15.625 L 4.515625 -15.625 L 4.515625 -2.59375 C 4.515625 -0.84375 5.640625 0.171875 7.265625 0.171875 Z M 0.265625 -17.28125 C 0.09375 -17.28125 0 -17.609375 0 -18.265625 C 0 -19.34375 1.015625 -20.078125 2.1875 -20.078125 L 12.796875 -20.078125 C 13.03125 -20.078125 13.234375 -19.921875 13.234375 -19.78125 C 13.234375 -19.609375 13.03125 -19.46875 12.796875 -19.46875 L 2.4375 -19.46875 C 1.21875 -19.46875 0.609375 -18.96875 0.46875 -17.625 C 0.4375 -17.421875 0.40625 -17.28125 0.265625 -17.28125 Z M 0.265625 -17.28125 "/></g></g></g><g fill="#000000" fill-opacity="1"><g transform="translate(57.482338, 42.160443)"><g><path d="M 2.53125 0.171875 C 3.953125 0.171875 4.890625 -0.40625 5.46875 -2.59375 L 5.796875 -3.8125 L 12.828125 -3.8125 L 13.265625 -2.46875 C 13.796875 -0.875 14.484375 0.171875 16.140625 0.171875 C 17.75 0.171875 18.734375 -0.703125 18.734375 -2.125 C 18.734375 -3.234375 18.390625 -4.328125 17.953125 -5.5 L 13.296875 -17.890625 C 12.515625 -19.953125 11.3125 -21.265625 9.375 -21.265625 C 7.296875 -21.265625 6.171875 -19.953125 5.375 -17.890625 L 0.609375 -5.171875 C 0.296875 -4.328125 -0.09375 -3.171875 -0.09375 -2.125 C -0.09375 -0.703125 0.9375 0.171875 2.53125 0.171875 Z M 0.875 -2.59375 C 0.75 -2.59375 0.703125 -2.671875 0.703125 -2.875 C 0.703125 -3.140625 0.78125 -3.640625 1.078125 -4.390625 L 6 -17.65625 C 6.75 -19.71875 7.859375 -20.515625 9.1875 -20.515625 C 9.953125 -20.515625 10.4375 -20.25 10.4375 -19.984375 C 10.4375 -19.90625 10.390625 -19.8125 10.1875 -19.875 C 9.828125 -19.953125 9.65625 -19.984375 9.1875 -19.984375 C 7.890625 -19.984375 7.0625 -18.765625 6.609375 -17.484375 L 1.453125 -3.609375 C 1.140625 -2.734375 1.015625 -2.59375 0.875 -2.59375 Z M 7.421875 -8.9375 L 9.421875 -15.28125 L 9.484375 -15.28125 L 11.265625 -8.9375 Z M 7.9375 -7.65625 C 7.703125 -7.65625 7.5 -7.796875 7.5 -7.96875 C 7.5 -8.140625 7.703125 -8.265625 7.9375 -8.265625 L 11.171875 -8.265625 C 11.40625 -8.265625 11.609375 -8.109375 11.609375 -7.96875 C 11.609375 -7.796875 11.40625 -7.65625 11.171875 -7.65625 Z M 7.9375 -7.65625 "/></g></g></g><g fill="#000000" fill-opacity="1"><g transform="translate(76.129781, 42.160443)"><g><path d="M 3.84375 0.171875 C 5.4375 0.171875 6.578125 -0.84375 6.578125 -2.59375 L 6.578125 -8.03125 L 6.640625 -8.03125 L 11.46875 -1.515625 C 12.390625 -0.265625 13.234375 0.171875 14.234375 0.171875 C 16.234375 0.171875 17.171875 -1.21875 17.171875 -2.421875 C 17.171875 -3.3125 16.609375 -4.109375 16 -4.765625 L 12.71875 -8.34375 L 12.890625 -8.40625 C 15.734375 -9.375 16.875 -11.75 16.875 -14.015625 C 16.875 -18.15625 13.9375 -20.71875 9.78125 -20.71875 L 3.6875 -20.71875 C 2.328125 -20.71875 1.078125 -19.546875 1.078125 -18.03125 L 1.078125 -2.59375 C 1.078125 -0.84375 2.21875 0.171875 3.84375 0.171875 Z M 2 -16.78125 C 1.828125 -16.78125 1.75 -17.109375 1.75 -17.78125 C 1.75 -19.140625 2.765625 -20.078125 3.921875 -20.078125 L 10.359375 -20.078125 C 10.828125 -20.078125 11.171875 -19.953125 11.171875 -19.78125 C 11.171875 -19.609375 10.421875 -19.46875 9.015625 -19.46875 L 4.1875 -19.46875 C 2.96875 -19.46875 2.359375 -18.859375 2.21875 -17.140625 C 2.1875 -16.9375 2.15625 -16.78125 2 -16.78125 Z M 6.578125 -12.015625 L 6.578125 -15.625 L 9.59375 -15.625 C 10.421875 -15.625 11.375 -15.078125 11.375 -13.90625 C 11.375 -12.765625 10.625 -12.015625 9.59375 -12.015625 Z M 7.421875 -10.734375 C 7.1875 -10.734375 6.984375 -10.875 6.984375 -11.0625 C 6.984375 -11.234375 7.1875 -11.34375 7.421875 -11.34375 L 9.78125 -11.34375 C 11.234375 -11.34375 11.484375 -12.21875 11.703125 -12.25 C 11.84375 -12.28125 11.90625 -12.1875 11.90625 -12.078125 C 11.90625 -11.671875 11.140625 -10.734375 10.03125 -10.734375 Z M 7.421875 -10.734375 "/></g></g></g><g fill="#000000" fill-opacity="1"><g transform="translate(93.584483, 42.160443)"><g><path d="M 7.265625 0.171875 C 8.90625 0.171875 10.015625 -0.84375 10.015625 -2.59375 L 10.015625 -15.625 L 12.359375 -15.625 C 14.015625 -15.625 15.09375 -16.546875 15.09375 -18.15625 C 15.09375 -19.78125 14.015625 -20.71875 12.359375 -20.71875 L 2.1875 -20.71875 C 0.5 -20.71875 -0.578125 -19.78125 -0.578125 -18.15625 C -0.578125 -16.546875 0.5 -15.625 2.1875 -15.625 L 4.515625 -15.625 L 4.515625 -2.59375 C 4.515625 -0.84375 5.640625 0.171875 7.265625 0.171875 Z M 0.265625 -17.28125 C 0.09375 -17.28125 0 -17.609375 0 -18.265625 C 0 -19.34375 1.015625 -20.078125 2.1875 -20.078125 L 12.796875 -20.078125 C 13.03125 -20.078125 13.234375 -19.921875 13.234375 -19.78125 C 13.234375 -19.609375 13.03125 -19.46875 12.796875 -19.46875 L 2.4375 -19.46875 C 1.21875 -19.46875 0.609375 -18.96875 0.46875 -17.625 C 0.4375 -17.421875 0.40625 -17.28125 0.265625 -17.28125 Z M 0.265625 -17.28125 "/></g></g></g></svg>