<svg xmlns="http://www.w3.org/2000/svg" xmlns:xlink="http://www.w3.org/1999/xlink" width="307" zoomAndPan="magnify" viewBox="0 0 230.25 82.499998" height="110" preserveAspectRatio="xMidYMid meet" version="1.0"><defs><g/><clipPath id="b7428725e6"><path d="M 0.585938 0.203125 L 229 0.203125 L 229 81.835938 L 0.585938 81.835938 Z M 0.585938 0.203125 " clip-rule="nonzero"/></clipPath><clipPath id="9691302ed7"><path d="M 10.277344 0.203125 L 219.257812 0.203125 C 224.609375 0.203125 228.949219 4.539062 228.949219 9.894531 L 228.949219 72.144531 C 228.949219 77.496094 224.609375 81.835938 219.257812 81.835938 L 10.277344 81.835938 C 4.921875 81.835938 0.585938 77.496094 0.585938 72.144531 L 0.585938 9.894531 C 0.585938 4.539062 4.921875 0.203125 10.277344 0.203125 Z M 10.277344 0.203125 " clip-rule="nonzero"/></clipPath><clipPath id="d8c3bbf6a8"><path d="M 0.554688 0.167969 L 229 0.167969 L 229 64.859375 L 0.554688 64.859375 Z M 0.554688 0.167969 " clip-rule="nonzero"/></clipPath><clipPath id="ac238f10de"><path d="M 10.246094 0.167969 L 219.230469 0.167969 C 224.582031 0.167969 228.921875 4.507812 228.921875 9.859375 L 228.921875 55.167969 C 228.921875 60.523438 224.582031 64.859375 219.230469 64.859375 L 10.246094 64.859375 C 4.894531 64.859375 0.554688 60.523438 0.554688 55.167969 L 0.554688 9.859375 C 0.554688 4.507812 4.894531 0.167969 10.246094 0.167969 Z M 10.246094 0.167969 " clip-rule="nonzero"/></clipPath></defs><g clip-path="url(#b7428725e6)"><g clip-path="url(#9691302ed7)"><path fill="#ffae8c" d="M 0.585938 0.203125 L 228.898438 0.203125 L 228.898438 81.835938 L 0.585938 81.835938 Z M 0.585938 0.203125 " fill-opacity="1" fill-rule="nonzero"/></g></g><g clip-path="url(#d8c3bbf6a8)"><g clip-path="url(#ac238f10de)"><path fill="#fff0da" d="M 0.554688 0.167969 L 229 0.167969 L 229 64.859375 L 0.554688 64.859375 Z M 0.554688 0.167969 " fill-opacity="1" fill-rule="nonzero"/></g></g><g fill="#ff6b50" fill-opacity="1"><g transform="translate(126.887362, 43.627477)"><g><path d="M 12.21875 0.59375 C 17.921875 0.59375 22.484375 -4.03125 22.484375 -9.953125 C 22.484375 -12.4375 21.359375 -13.515625 19.625 -13.515625 L 13.609375 -13.515625 C 11.84375 -13.515625 10.765625 -12.5 10.765625 -10.703125 C 10.765625 -9.015625 11.84375 -7.96875 13.640625 -7.96875 L 16.3125 -7.96875 C 16 -6.171875 14.234375 -4.90625 12.09375 -4.90625 C 8.921875 -4.90625 7 -7.59375 7 -11.21875 C 7 -14.96875 9.296875 -17.515625 12.25 -17.515625 C 14.515625 -17.515625 15.625 -16.59375 16.28125 -16.03125 C 16.953125 -15.46875 17.578125 -15.25 18.390625 -15.25 C 20.03125 -15.25 21.015625 -16.28125 21.015625 -17.671875 C 21.015625 -19.1875 20.1875 -20.40625 18.84375 -21.296875 C 17.140625 -22.390625 14.671875 -23.03125 12.03125 -23.03125 C 5.484375 -23.03125 0.59375 -18.109375 0.59375 -11 C 0.59375 -5.265625 4.34375 0.59375 12.21875 0.59375 Z M 1.703125 -11.28125 C 1.515625 -11.28125 1.453125 -11.4375 1.453125 -11.78125 C 1.453125 -16.796875 5.515625 -22.171875 11.84375 -22.171875 C 12.28125 -22.171875 12.5 -22.046875 12.5 -21.796875 C 12.5 -21.546875 12.28125 -21.359375 11.71875 -21.359375 C 5.734375 -21.359375 2.421875 -16 1.953125 -11.6875 C 1.921875 -11.40625 1.890625 -11.28125 1.703125 -11.28125 Z M 11.8125 -10.390625 C 11.625 -10.390625 11.53125 -10.609375 11.53125 -10.875 C 11.53125 -11.90625 12.28125 -12.78125 13.734375 -12.78125 L 19.75 -12.78125 C 20 -12.78125 20.21875 -12.625 20.21875 -12.46875 C 20.21875 -12.28125 20 -12.125 19.75 -12.125 L 14.015625 -12.125 C 12.6875 -12.125 12.1875 -11.4375 12.03125 -10.765625 C 12 -10.546875 11.96875 -10.390625 11.8125 -10.390625 Z M 12.75 -3.71875 C 12.5625 -3.71875 12.4375 -3.84375 12.4375 -4.03125 C 12.4375 -4.21875 12.53125 -4.28125 12.828125 -4.3125 C 13.859375 -4.4375 14.8125 -4.8125 15.5625 -5.421875 C 16.0625 -5.828125 16.5 -6.359375 16.71875 -6.765625 C 16.953125 -7.1875 17.078125 -7.3125 17.171875 -7.3125 C 17.296875 -7.3125 17.453125 -7.21875 17.453125 -7.03125 C 17.453125 -6.765625 17.328125 -6.515625 17.203125 -6.265625 C 16.5625 -5.015625 14.546875 -3.71875 12.75 -3.71875 Z M 12.75 -3.71875 "/></g></g></g><g fill="#ff6b50" fill-opacity="1"><g transform="translate(150.155722, 43.627477)"><g><path d="M 2.734375 0.1875 C 4.28125 0.1875 5.296875 -0.4375 5.921875 -2.796875 L 6.265625 -4.125 L 13.890625 -4.125 L 14.359375 -2.671875 C 14.9375 -0.9375 15.6875 0.1875 17.484375 0.1875 C 19.21875 0.1875 20.28125 -0.75 20.28125 -2.296875 C 20.28125 -3.5 19.90625 -4.6875 19.4375 -5.953125 L 14.390625 -19.375 C 13.546875 -21.609375 12.25 -23.03125 10.140625 -23.03125 C 7.90625 -23.03125 6.671875 -21.609375 5.828125 -19.375 L 0.65625 -5.609375 C 0.3125 -4.6875 -0.09375 -3.4375 -0.09375 -2.296875 C -0.09375 -0.75 1.015625 0.1875 2.734375 0.1875 Z M 0.9375 -2.796875 C 0.8125 -2.796875 0.75 -2.890625 0.75 -3.125 C 0.75 -3.40625 0.84375 -3.9375 1.171875 -4.75 L 6.484375 -19.125 C 7.3125 -21.359375 8.5 -22.203125 9.953125 -22.203125 C 10.765625 -22.203125 11.3125 -21.921875 11.3125 -21.640625 C 11.3125 -21.546875 11.25 -21.453125 11.03125 -21.515625 C 10.640625 -21.609375 10.453125 -21.640625 9.953125 -21.640625 C 8.53125 -21.640625 7.65625 -20.3125 7.15625 -18.9375 L 1.578125 -3.90625 C 1.234375 -2.96875 1.109375 -2.796875 0.9375 -2.796875 Z M 8.03125 -9.671875 L 10.203125 -16.53125 L 10.265625 -16.53125 L 12.1875 -9.671875 Z M 8.59375 -8.28125 C 8.34375 -8.28125 8.125 -8.4375 8.125 -8.625 C 8.125 -8.8125 8.34375 -8.953125 8.59375 -8.953125 L 12.09375 -8.953125 C 12.34375 -8.953125 12.5625 -8.78125 12.5625 -8.625 C 12.5625 -8.4375 12.34375 -8.28125 12.09375 -8.28125 Z M 8.59375 -8.28125 "/></g></g></g><g fill="#ff6b50" fill-opacity="1"><g transform="translate(170.338427, 43.627477)"><g><path d="M 3.34375 0.1875 C 4.875 0.1875 6.140625 -0.15625 6.671875 -3.6875 L 7.875 -11.4375 L 7.9375 -11.4375 L 10.703125 -2.328125 C 11.25 -0.53125 12.09375 0.1875 13.984375 0.1875 C 15.75 0.1875 16.625 -0.59375 17.109375 -2.109375 L 20 -11.4375 L 20.0625 -11.4375 L 21.203125 -4.0625 C 21.671875 -1.078125 22.171875 0.1875 24.5625 0.1875 C 26.390625 0.1875 27.4375 -1.203125 27.4375 -2.671875 C 27.4375 -3.0625 27.375 -4.09375 27.09375 -5.609375 L 24.703125 -18.484375 C 24.125 -21.609375 22.9375 -22.609375 20.703125 -22.609375 C 18.015625 -22.609375 17.265625 -20.765625 15.75 -15.875 L 14.015625 -10.328125 L 13.953125 -10.328125 L 11.71875 -17.203125 C 10.578125 -20.671875 9.859375 -22.609375 7 -22.609375 C 5.109375 -22.609375 3.78125 -21.578125 3.21875 -18.515625 L 1.453125 -9.140625 C 0.625 -4.71875 0.46875 -3.21875 0.46875 -2.671875 C 0.46875 -1.234375 1.515625 0.1875 3.34375 0.1875 Z M 15.1875 -9.421875 C 15.03125 -9.421875 14.9375 -9.515625 14.9375 -9.796875 C 14.9375 -10.109375 15.03125 -10.609375 15.28125 -11.375 L 17.578125 -18.71875 C 18.296875 -21.015625 19.625 -21.984375 20.765625 -21.984375 C 21.234375 -21.984375 21.390625 -21.859375 21.390625 -21.671875 C 21.390625 -21.421875 21.265625 -21.421875 20.921875 -21.421875 C 19.5 -21.421875 18.71875 -19.96875 18.265625 -18.546875 L 15.75 -10.546875 C 15.4375 -9.578125 15.34375 -9.421875 15.1875 -9.421875 Z M 1.515625 -2.703125 C 1.359375 -2.703125 1.265625 -2.859375 1.265625 -3.3125 C 1.265625 -3.625 1.296875 -4.0625 1.421875 -4.65625 L 3.90625 -18.234375 C 4.40625 -20.921875 5.640625 -21.890625 6.9375 -21.890625 C 7.40625 -21.890625 7.78125 -21.796875 7.78125 -21.578125 C 7.78125 -21.484375 7.75 -21.390625 7.59375 -21.390625 C 7.5625 -21.390625 7.5625 -21.390625 7.53125 -21.390625 L 7.21875 -21.421875 C 5.828125 -21.421875 4.90625 -19.84375 4.59375 -18.171875 L 1.984375 -3.90625 C 1.796875 -2.828125 1.703125 -2.703125 1.515625 -2.703125 Z M 1.515625 -2.703125 "/></g></g></g><g fill="#ff6b50" fill-opacity="1"><g transform="translate(198.235265, 43.627477)"><g><path d="M 4 0 L 12.25 0 C 13.921875 0 15.09375 -1.109375 15.09375 -2.765625 C 15.09375 -4.53125 13.953125 -5.515625 12.21875 -5.515625 L 7.125 -5.515625 L 7.125 -8.53125 L 11.625 -8.53125 C 13.359375 -8.53125 14.453125 -9.578125 14.453125 -11.3125 C 14.453125 -13.046875 13.296875 -14.078125 11.625 -14.078125 L 7.09375 -14.078125 L 7.09375 -16.921875 L 12.09375 -16.921875 C 13.734375 -16.921875 14.9375 -17.890625 14.9375 -19.65625 C 14.9375 -21.328125 13.734375 -22.421875 12.09375 -22.421875 L 4 -22.421875 C 2.515625 -22.421875 1.171875 -21.140625 1.171875 -19.53125 L 1.171875 -2.890625 C 1.171875 -1.265625 2.515625 0 4 0 Z M 2.171875 -18.171875 C 1.984375 -18.171875 1.890625 -18.515625 1.890625 -19.25 C 1.890625 -20.953125 2.921875 -21.734375 4.28125 -21.734375 L 12.15625 -21.734375 C 12.40625 -21.734375 12.625 -21.578125 12.625 -21.421875 C 12.625 -21.234375 12.40625 -21.078125 12.15625 -21.078125 L 4.53125 -21.078125 C 3.21875 -21.078125 2.546875 -20.40625 2.390625 -18.546875 C 2.359375 -18.328125 2.328125 -18.171875 2.171875 -18.171875 Z M 8.03125 -12.6875 C 7.78125 -12.6875 7.5625 -12.859375 7.5625 -13.046875 C 7.5625 -13.234375 7.78125 -13.359375 8.03125 -13.359375 L 11.53125 -13.359375 C 11.78125 -13.359375 12 -13.203125 12 -13.046875 C 12 -12.859375 11.78125 -12.6875 11.53125 -12.6875 Z M 8.03125 -4.125 C 7.78125 -4.125 7.5625 -4.28125 7.5625 -4.46875 C 7.5625 -4.65625 7.78125 -4.78125 8.03125 -4.78125 L 12.15625 -4.78125 C 12.40625 -4.78125 12.625 -4.625 12.625 -4.46875 C 12.625 -4.28125 12.40625 -4.125 12.15625 -4.125 Z M 8.03125 -4.125 "/></g></g></g><g fill="#000000" fill-opacity="1"><g transform="translate(19.352138, 43.276918)"><g><path d="M 8.09375 0.59375 C 13.640625 0.59375 17.046875 -2.203125 17.046875 -7.03125 C 17.046875 -11.875 14.171875 -13.203125 9.890625 -14.328125 C 8 -14.84375 6.9375 -15.15625 6.9375 -16.0625 C 6.9375 -16.921875 7.625 -17.265625 8.78125 -17.265625 C 10.171875 -17.265625 11.03125 -16.984375 11.875 -16.6875 C 12.25 -16.5625 12.625 -16.5 13.078125 -16.5 C 14.734375 -16.5 15.75 -17.671875 15.75 -19.25 C 15.75 -20.671875 14.875 -21.765625 13.203125 -22.390625 C 12.125 -22.8125 10.734375 -23.03125 9.046875 -23.03125 C 3.875 -23.03125 0.46875 -20.375 0.46875 -15.5625 C 0.46875 -10.703125 4.34375 -9.640625 7.8125 -8.65625 C 9.671875 -8.125 10.578125 -7.5625 10.578125 -6.578125 C 10.578125 -5.765625 9.828125 -5.234375 8.5625 -5.234375 C 6.765625 -5.234375 5.703125 -5.765625 4.59375 -6.109375 C 4 -6.296875 3.59375 -6.453125 3 -6.453125 C 1.015625 -6.453125 0.09375 -5.078125 0.09375 -3.4375 C 0.09375 -2.140625 1.046875 -1.203125 2.421875 -0.5 C 3.96875 0.28125 6.140625 0.59375 8.09375 0.59375 Z M 1.515625 -15.09375 C 1.328125 -15.09375 1.265625 -15.25 1.265625 -15.59375 C 1.265625 -19.46875 4.1875 -22.265625 9.296875 -22.265625 C 9.953125 -22.265625 10.171875 -22.140625 10.171875 -21.953125 C 10.171875 -21.671875 9.890625 -21.578125 9.140625 -21.546875 C 3.75 -21.265625 2.109375 -18.484375 1.765625 -15.5 C 1.734375 -15.21875 1.703125 -15.09375 1.515625 -15.09375 Z M 10.265625 -4.59375 C 10.109375 -4.59375 10.015625 -4.65625 10.015625 -4.75 C 10.015625 -4.84375 10.078125 -4.953125 10.234375 -5.015625 C 10.734375 -5.203125 11.0625 -5.609375 11.125 -6.109375 C 11.15625 -6.328125 11.21875 -6.484375 11.375 -6.484375 C 11.5625 -6.484375 11.65625 -6.390625 11.65625 -6.140625 C 11.65625 -5.484375 11.0625 -4.59375 10.265625 -4.59375 Z M 1.203125 -2.515625 C 1.015625 -2.515625 0.90625 -2.859375 0.90625 -3.3125 C 0.90625 -4.953125 1.828125 -5.734375 3.0625 -5.734375 C 3.21875 -5.734375 3.3125 -5.671875 3.3125 -5.578125 C 3.3125 -5.484375 3.25 -5.390625 3.09375 -5.328125 C 2.078125 -4.90625 1.546875 -4.40625 1.453125 -2.890625 C 1.421875 -2.671875 1.359375 -2.515625 1.203125 -2.515625 Z M 1.203125 -2.515625 "/></g></g></g><g fill="#000000" fill-opacity="1"><g transform="translate(36.984454, 43.276918)"><g><path d="M 7.875 0.1875 C 9.640625 0.1875 10.84375 -0.90625 10.84375 -2.796875 L 10.84375 -16.921875 L 13.390625 -16.921875 C 15.1875 -16.921875 16.34375 -17.921875 16.34375 -19.65625 C 16.34375 -21.421875 15.1875 -22.421875 13.390625 -22.421875 L 2.359375 -22.421875 C 0.53125 -22.421875 -0.625 -21.421875 -0.625 -19.65625 C -0.625 -17.921875 0.53125 -16.921875 2.359375 -16.921875 L 4.875 -16.921875 L 4.875 -2.796875 C 4.875 -0.90625 6.109375 0.1875 7.875 0.1875 Z M 0.28125 -18.71875 C 0.09375 -18.71875 0 -19.0625 0 -19.78125 C 0 -20.953125 1.109375 -21.734375 2.359375 -21.734375 L 13.859375 -21.734375 C 14.109375 -21.734375 14.328125 -21.578125 14.328125 -21.421875 C 14.328125 -21.234375 14.109375 -21.078125 13.859375 -21.078125 L 2.640625 -21.078125 C 1.328125 -21.078125 0.65625 -20.53125 0.5 -19.09375 C 0.46875 -18.875 0.4375 -18.71875 0.28125 -18.71875 Z M 0.28125 -18.71875 "/></g></g></g><g fill="#000000" fill-opacity="1"><g transform="translate(52.696106, 43.276918)"><g><path d="M 2.734375 0.1875 C 4.28125 0.1875 5.296875 -0.4375 5.921875 -2.796875 L 6.265625 -4.125 L 13.890625 -4.125 L 14.359375 -2.671875 C 14.9375 -0.9375 15.6875 0.1875 17.484375 0.1875 C 19.21875 0.1875 20.28125 -0.75 20.28125 -2.296875 C 20.28125 -3.5 19.90625 -4.6875 19.4375 -5.953125 L 14.390625 -19.375 C 13.546875 -21.609375 12.25 -23.03125 10.140625 -23.03125 C 7.90625 -23.03125 6.671875 -21.609375 5.828125 -19.375 L 0.65625 -5.609375 C 0.3125 -4.6875 -0.09375 -3.4375 -0.09375 -2.296875 C -0.09375 -0.75 1.015625 0.1875 2.734375 0.1875 Z M 0.9375 -2.796875 C 0.8125 -2.796875 0.75 -2.890625 0.75 -3.125 C 0.75 -3.40625 0.84375 -3.9375 1.171875 -4.75 L 6.484375 -19.125 C 7.3125 -21.359375 8.5 -22.203125 9.953125 -22.203125 C 10.765625 -22.203125 11.3125 -21.921875 11.3125 -21.640625 C 11.3125 -21.546875 11.25 -21.453125 11.03125 -21.515625 C 10.640625 -21.609375 10.453125 -21.640625 9.953125 -21.640625 C 8.53125 -21.640625 7.65625 -20.3125 7.15625 -18.9375 L 1.578125 -3.90625 C 1.234375 -2.96875 1.109375 -2.796875 0.9375 -2.796875 Z M 8.03125 -9.671875 L 10.203125 -16.53125 L 10.265625 -16.53125 L 12.1875 -9.671875 Z M 8.59375 -8.28125 C 8.34375 -8.28125 8.125 -8.4375 8.125 -8.625 C 8.125 -8.8125 8.34375 -8.953125 8.59375 -8.953125 L 12.09375 -8.953125 C 12.34375 -8.953125 12.5625 -8.78125 12.5625 -8.625 C 12.5625 -8.4375 12.34375 -8.28125 12.09375 -8.28125 Z M 8.59375 -8.28125 "/></g></g></g><g fill="#000000" fill-opacity="1"><g transform="translate(72.87881, 43.276918)"><g><path d="M 4.15625 0.1875 C 5.890625 0.1875 7.125 -0.90625 7.125 -2.796875 L 7.125 -8.6875 L 7.1875 -8.6875 L 12.40625 -1.640625 C 13.421875 -0.28125 14.328125 0.1875 15.40625 0.1875 C 17.578125 0.1875 18.578125 -1.328125 18.578125 -2.609375 C 18.578125 -3.59375 17.984375 -4.4375 17.328125 -5.171875 L 13.765625 -9.046875 L 13.953125 -9.109375 C 17.046875 -10.140625 18.265625 -12.71875 18.265625 -15.1875 C 18.265625 -19.65625 15.09375 -22.421875 10.578125 -22.421875 L 4 -22.421875 C 2.515625 -22.421875 1.171875 -21.171875 1.171875 -19.53125 L 1.171875 -2.796875 C 1.171875 -0.90625 2.390625 0.1875 4.15625 0.1875 Z M 2.171875 -18.171875 C 1.984375 -18.171875 1.890625 -18.515625 1.890625 -19.25 C 1.890625 -20.734375 3 -21.734375 4.25 -21.734375 L 11.21875 -21.734375 C 11.71875 -21.734375 12.09375 -21.609375 12.09375 -21.421875 C 12.09375 -21.234375 11.28125 -21.078125 9.765625 -21.078125 L 4.53125 -21.078125 C 3.21875 -21.078125 2.546875 -20.40625 2.390625 -18.546875 C 2.359375 -18.328125 2.328125 -18.171875 2.171875 -18.171875 Z M 7.125 -13.015625 L 7.125 -16.921875 L 10.390625 -16.921875 C 11.28125 -16.921875 12.3125 -16.3125 12.3125 -15.0625 C 12.3125 -13.828125 11.5 -13.015625 10.390625 -13.015625 Z M 8.03125 -11.625 C 7.78125 -11.625 7.5625 -11.78125 7.5625 -11.96875 C 7.5625 -12.15625 7.78125 -12.28125 8.03125 -12.28125 L 10.578125 -12.28125 C 12.15625 -12.28125 12.4375 -13.234375 12.65625 -13.265625 C 12.828125 -13.296875 12.890625 -13.203125 12.890625 -13.078125 C 12.890625 -12.625 12.0625 -11.625 10.875 -11.625 Z M 8.03125 -11.625 "/></g></g></g><g fill="#000000" fill-opacity="1"><g transform="translate(91.770575, 43.276918)"><g><path d="M 7.875 0.1875 C 9.640625 0.1875 10.84375 -0.90625 10.84375 -2.796875 L 10.84375 -16.921875 L 13.390625 -16.921875 C 15.1875 -16.921875 16.34375 -17.921875 16.34375 -19.65625 C 16.34375 -21.421875 15.1875 -22.421875 13.390625 -22.421875 L 2.359375 -22.421875 C 0.53125 -22.421875 -0.625 -21.421875 -0.625 -19.65625 C -0.625 -17.921875 0.53125 -16.921875 2.359375 -16.921875 L 4.875 -16.921875 L 4.875 -2.796875 C 4.875 -0.90625 6.109375 0.1875 7.875 0.1875 Z M 0.28125 -18.71875 C 0.09375 -18.71875 0 -19.0625 0 -19.78125 C 0 -20.953125 1.109375 -21.734375 2.359375 -21.734375 L 13.859375 -21.734375 C 14.109375 -21.734375 14.328125 -21.578125 14.328125 -21.421875 C 14.328125 -21.234375 14.109375 -21.078125 13.859375 -21.078125 L 2.640625 -21.078125 C 1.328125 -21.078125 0.65625 -20.53125 0.5 -19.09375 C 0.46875 -18.875 0.4375 -18.71875 0.28125 -18.71875 Z M 0.28125 -18.71875 "/></g></g></g></svg>