<svg xmlns="http://www.w3.org/2000/svg" xmlns:xlink="http://www.w3.org/1999/xlink" width="145" zoomAndPan="magnify" viewBox="0 0 108.75 101.999999" height="136" preserveAspectRatio="xMidYMid meet" version="1.0"><defs><filter x="0%" y="0%" width="100%" height="100%" id="841f9ccca1"><feColorMatrix values="0 0 0 0 1 0 0 0 0 1 0 0 0 0 1 0 0 0 1 0" color-interpolation-filters="sRGB"/></filter><clipPath id="98d3728103"><path d="M 0 0.117188 L 108.5 0.117188 L 108.5 101.882812 L 0 101.882812 Z M 0 0.117188 " clip-rule="nonzero"/></clipPath><mask id="b8bc9c63c4"><g filter="url(#841f9ccca1)"><rect x="-10.875" width="130.5" fill="#000000" y="-10.2" height="122.399999" fill-opacity="0.41"/></g></mask><clipPath id="bd7ae345bb"><path d="M 3.507812 3.464844 L 16.644531 3.464844 L 16.644531 6.304688 L 3.507812 6.304688 Z M 3.507812 3.464844 " clip-rule="nonzero"/></clipPath><clipPath id="2a9ba44de0"><path d="M 4.167969 4.175781 C 16.382812 3.664062 16.636719 4.089844 16.636719 4.34375 C 16.636719 4.601562 15.746094 5.113281 15.617188 5.027344 C 15.492188 4.855469 15.683594 3.578125 15.875 3.492188 C 16.0625 3.40625 16.574219 3.917969 16.636719 4.261719 C 16.636719 4.515625 16.445312 4.941406 16.0625 5.199219 C 14.664062 6.136719 5.570312 6.734375 4.167969 5.882812 C 3.722656 5.625 3.535156 5.199219 3.535156 4.855469 C 3.535156 4.601562 4.167969 4.175781 4.167969 4.175781 " clip-rule="nonzero"/></clipPath><clipPath id="8c9c32481e"><rect x="0" width="20" y="0" height="10"/></clipPath><clipPath id="fd28048ea1"><path d="M 51 0.117188 L 103 0.117188 L 103 13 L 51 13 Z M 51 0.117188 " clip-rule="nonzero"/></clipPath><mask id="e221ed20fb"><g filter="url(#841f9ccca1)"><rect x="-10.875" width="130.5" fill="#000000" y="-10.2" height="122.399999" fill-opacity="0.41"/></g></mask><clipPath id="8bd2062e13"><path d="M 2.40625 4.417969 L 49.234375 4.417969 L 49.234375 8.769531 L 2.40625 8.769531 Z M 2.40625 4.417969 " clip-rule="nonzero"/></clipPath><clipPath id="0b9aa68a88"><path d="M 3.027344 4.945312 C 43.785156 4.253906 45.1875 4.253906 46.648438 4.945312 C 47.699219 5.4375 49.101562 6.324219 49.214844 7.113281 C 49.273438 7.605469 48.691406 8.6875 48.515625 8.589844 C 48.398438 8.589844 48.222656 7.308594 48.339844 7.015625 C 48.457031 6.71875 49.101562 6.71875 49.15625 7.015625 C 49.273438 7.210938 49.042969 8.492188 48.808594 8.6875 C 48.398438 8.984375 47.464844 7.308594 46.53125 6.914062 C 45.128906 6.324219 43.726562 6.226562 41.042969 6.027344 C 34.09375 5.535156 5.832031 8.589844 3.027344 6.914062 C 2.675781 6.621094 2.503906 6.324219 2.445312 6.027344 C 2.445312 5.734375 3.027344 4.945312 3.027344 4.945312 " clip-rule="nonzero"/></clipPath><clipPath id="bf387372fd"><rect x="0" width="52" y="0" height="13"/></clipPath><clipPath id="3c4530ea7b"><path d="M 4 0.117188 L 34 0.117188 L 34 13 L 4 13 Z M 4 0.117188 " clip-rule="nonzero"/></clipPath><mask id="9d5a0ab543"><g filter="url(#841f9ccca1)"><rect x="-10.875" width="130.5" fill="#000000" y="-10.2" height="122.399999" fill-opacity="0.41"/></g></mask><clipPath id="3716033fe1"><path d="M 2.476562 4.132812 L 27 4.132812 L 27 9 L 2.476562 9 Z M 2.476562 4.132812 " clip-rule="nonzero"/></clipPath><clipPath id="a3b9835239"><path d="M 26.320312 6.730469 C 7.34375 6.359375 6.703125 6.359375 5.765625 6.824219 C 4.773438 7.289062 3.429688 9.242188 2.964844 8.964844 C 2.671875 8.871094 2.4375 7.847656 2.496094 7.660156 C 2.613281 7.382812 3.546875 7.566406 3.605469 7.753906 C 3.605469 8.03125 2.964844 9.054688 2.847656 8.964844 C 2.671875 8.871094 2.496094 7.941406 2.613281 7.476562 C 2.789062 6.730469 3.957031 5.894531 4.832031 5.335938 C 5.882812 4.777344 6.933594 4.589844 8.6875 4.402344 C 12.132812 3.9375 21.53125 4.21875 24.453125 4.589844 C 25.5625 4.683594 26.378906 4.589844 26.730469 5.054688 C 26.964844 5.335938 27.023438 5.984375 26.90625 6.265625 C 26.847656 6.542969 26.320312 6.730469 26.320312 6.730469 " clip-rule="nonzero"/></clipPath><clipPath id="bfd746a88e"><rect x="0" width="30" y="0" height="13"/></clipPath></defs><g clip-path="url(#98d3728103)"><path fill="#7c8fa3" d="M 0 0.117188 L 108.523438 0.117188 L 108.523438 101.882812 L 0 101.882812 Z M 0 0.117188 " fill-opacity="1" fill-rule="nonzero"/></g><g mask="url(#b8bc9c63c4)"><g transform="matrix(1, 0, 0, 1, 33, 1)"><g clip-path="url(#8c9c32481e)"><g clip-path="url(#bd7ae345bb)"><g clip-path="url(#2a9ba44de0)"><path fill="#ffffff" d="M 0.988281 0.078125 L 19.238281 0.078125 L 19.238281 9.292969 L 0.988281 9.292969 Z M 0.988281 0.078125 " fill-opacity="1" fill-rule="nonzero"/></g></g></g></g></g><g clip-path="url(#fd28048ea1)"><g mask="url(#e221ed20fb)"><g transform="matrix(1, 0, 0, 1, 51, -0.000000000000002595)"><g clip-path="url(#bf387372fd)"><g clip-path="url(#8bd2062e13)"><g clip-path="url(#0b9aa68a88)"><path fill="#ffffff" d="M 0.109375 0.117188 L 51.53125 0.117188 L 51.53125 12.628906 L 0.109375 12.628906 Z M 0.109375 0.117188 " fill-opacity="1" fill-rule="nonzero"/></g></g></g></g></g></g><g clip-path="url(#3c4530ea7b)"><g mask="url(#9d5a0ab543)"><g transform="matrix(1, 0, 0, 1, 4, -0.000000000000002554)"><g clip-path="url(#bfd746a88e)"><g clip-path="url(#3716033fe1)"><g clip-path="url(#a3b9835239)"><path fill="#ffffff" d="M 0.160156 0.679688 L 29.222656 0.679688 L 29.222656 12.777344 L 0.160156 12.777344 Z M 0.160156 0.679688 " fill-opacity="1" fill-rule="nonzero"/></g></g></g></g></g></g></svg>