<svg xmlns="http://www.w3.org/2000/svg" xmlns:xlink="http://www.w3.org/1999/xlink" width="500" zoomAndPan="magnify" viewBox="0 0 375 374.999991" height="500" preserveAspectRatio="xMidYMid meet" version="1.0"><defs><clipPath id="6e1373be77"><path d="M 1 1 L 374 1 L 374 374 L 1 374 Z M 1 1 " clip-rule="nonzero"/></clipPath><clipPath id="a73cb8cb6b"><path d="M 394.894531 52.640625 L 52.558594 394.972656 L -19.988281 322.425781 L 322.347656 -19.90625 Z M 394.894531 52.640625 " clip-rule="nonzero"/></clipPath><clipPath id="89977541f6"><path d="M 358.621094 88.914062 L 88.914062 358.617188 C 79.296875 368.238281 66.246094 373.644531 52.640625 373.644531 C 39.035156 373.644531 25.988281 368.238281 16.367188 358.617188 C 6.746094 349 1.34375 335.949219 1.34375 322.34375 C 1.34375 308.738281 6.746094 295.691406 16.367188 286.070312 L 286.074219 16.367188 C 295.691406 6.746094 308.742188 1.34375 322.347656 1.34375 C 335.953125 1.34375 349 6.746094 358.621094 16.367188 C 368.242188 25.988281 373.644531 39.035156 373.644531 52.640625 C 373.644531 66.246094 368.242188 79.292969 358.621094 88.914062 Z M 358.621094 88.914062 " clip-rule="nonzero"/></clipPath><clipPath id="61015222a1"><path d="M 1 1 L 374 1 L 374 374 L 1 374 Z M 1 1 " clip-rule="nonzero"/></clipPath><clipPath id="484b3943c3"><path d="M 52.644531 -19.898438 L 394.976562 322.433594 L 322.429688 394.980469 L -19.902344 52.648438 Z M 52.644531 -19.898438 " clip-rule="nonzero"/></clipPath><clipPath id="fce04bddd9"><path d="M 88.917969 16.375 L 358.621094 286.078125 C 368.242188 295.699219 373.648438 308.746094 373.648438 322.351562 C 373.648438 335.957031 368.242188 349.003906 358.621094 358.625 C 349 368.246094 335.953125 373.652344 322.347656 373.652344 C 308.742188 373.652344 295.695312 368.246094 286.074219 358.625 L 16.371094 88.921875 C 6.75 79.300781 1.34375 66.253906 1.34375 52.648438 C 1.34375 39.042969 6.75 25.992188 16.371094 16.375 C 25.992188 6.753906 39.039062 1.347656 52.644531 1.347656 C 66.25 1.347656 79.296875 6.753906 88.917969 16.375 Z M 88.917969 16.375 " clip-rule="nonzero"/></clipPath></defs><g clip-path="url(#6e1373be77)"><g clip-path="url(#a73cb8cb6b)"><g clip-path="url(#89977541f6)"><path fill="#ff625c" d="M 394.894531 52.640625 L 52.558594 394.972656 L -19.988281 322.425781 L 322.347656 -19.90625 Z M 394.894531 52.640625 " fill-opacity="1" fill-rule="nonzero"/></g></g></g><g clip-path="url(#61015222a1)"><g clip-path="url(#484b3943c3)"><g clip-path="url(#fce04bddd9)"><path fill="#ff625c" d="M 52.644531 -19.898438 L 394.976562 322.433594 L 322.429688 394.980469 L -19.902344 52.648438 Z M 52.644531 -19.898438 " fill-opacity="1" fill-rule="nonzero"/></g></g></g></svg>