<svg xmlns="http://www.w3.org/2000/svg" xmlns:xlink="http://www.w3.org/1999/xlink" width="100" zoomAndPan="magnify" viewBox="0 0 75 74.999997" height="100" preserveAspectRatio="xMidYMid meet" version="1.0"><defs><clipPath id="fac035f20a"><path d="M 0 3 L 0 72 C 0 73.65625 1.34375 75 3 75 L 72 75 C 73.65625 75 75 73.65625 75 72 L 75 3 C 75 1.34375 73.65625 0 72 0 L 3 0 C 1.34375 0 0 1.34375 0 3 Z M 0 3 " clip-rule="nonzero"/></clipPath><clipPath id="dadef0b683"><path d="M 10.140625 17.355469 L 64.121094 17.355469 L 64.121094 57.628906 L 10.140625 57.628906 Z M 10.140625 17.355469 " clip-rule="nonzero"/></clipPath><clipPath id="1cd0950eb1"><path d="M 11.121094 39.53125 L 30.082031 57.113281 C 30.464844 57.46875 31.019531 57.5625 31.496094 57.351562 C 31.972656 57.144531 32.28125 56.671875 32.28125 56.152344 L 32.28125 50.472656 C 32.28125 49.675781 32.597656 48.914062 33.160156 48.351562 C 33.722656 47.789062 34.484375 47.472656 35.28125 47.472656 L 61.121094 47.472656 C 61.914062 47.472656 62.679688 47.15625 63.242188 46.59375 C 63.804688 46.03125 64.121094 45.265625 64.121094 44.472656 L 64.121094 30.511719 C 64.121094 29.71875 63.804688 28.953125 63.242188 28.390625 C 62.679688 27.828125 61.914062 27.511719 61.121094 27.511719 L 35.28125 27.511719 C 34.484375 27.511719 33.722656 27.199219 33.160156 26.636719 C 32.597656 26.074219 32.28125 25.308594 32.28125 24.511719 L 32.28125 18.832031 C 32.28125 18.3125 31.972656 17.839844 31.496094 17.632812 C 31.019531 17.425781 30.464844 17.519531 30.082031 17.871094 L 11.121094 35.453125 C 10.550781 35.980469 10.230469 36.71875 10.230469 37.492188 C 10.230469 38.265625 10.550781 39.007812 11.121094 39.53125 Z M 11.121094 39.53125 " clip-rule="nonzero"/></clipPath><clipPath id="c78eff644a"><path d="M 12.25 20.21875 L 30.277344 20.21875 L 30.277344 38.246094 L 12.25 38.246094 Z M 12.25 20.21875 " clip-rule="nonzero"/></clipPath><clipPath id="849ad1681e"><path d="M 13.03125 38.21875 C 12.214844 37.425781 12.191406 37.054688 12.332031 36.679688 C 12.566406 35.957031 13.382812 35.210938 14.453125 34.046875 C 17.0625 31.25 26.359375 21.929688 28.667969 20.648438 C 29.296875 20.320312 29.761719 20.207031 29.996094 20.320312 C 30.160156 20.367188 30.230469 20.53125 30.253906 20.671875 C 30.277344 20.789062 30.207031 20.996094 30.089844 21.066406 C 29.996094 21.160156 29.785156 21.207031 29.667969 21.183594 C 29.554688 21.136719 29.390625 20.996094 29.34375 20.882812 C 29.320312 20.765625 29.320312 20.554688 29.414062 20.4375 C 29.507812 20.34375 29.808594 20.25 29.949219 20.296875 C 30.089844 20.320312 30.207031 20.484375 30.253906 20.625 C 30.277344 20.742188 30.230469 20.925781 30.136719 21.042969 C 29.972656 21.207031 29.691406 21.113281 29.273438 21.371094 C 27.339844 22.582031 17.597656 32.136719 15.128906 34.699219 C 14.171875 35.679688 13.519531 36.332031 13.265625 36.796875 C 13.171875 36.984375 13.101562 37.144531 13.148438 37.261719 C 13.195312 37.378906 13.496094 37.378906 13.566406 37.496094 C 13.660156 37.613281 13.707031 37.820312 13.660156 37.9375 C 13.589844 38.078125 13.03125 38.21875 13.03125 38.21875 " clip-rule="nonzero"/></clipPath><clipPath id="c828d67f6a"><path d="M 32.601562 28.101562 L 52.46875 28.101562 L 52.46875 29.96875 L 32.601562 29.96875 Z M 32.601562 28.101562 " clip-rule="nonzero"/></clipPath><clipPath id="1a1ceaa43a"><path d="M 33.28125 28.105469 C 37.964844 28.804688 50.410156 28.152344 51.992188 28.851562 C 52.296875 28.992188 52.460938 29.175781 52.460938 29.339844 C 52.4375 29.503906 52.085938 29.804688 51.921875 29.78125 C 51.785156 29.757812 51.527344 29.410156 51.527344 29.246094 C 51.527344 29.105469 51.667969 28.945312 51.785156 28.898438 C 51.898438 28.828125 52.132812 28.851562 52.226562 28.921875 C 52.34375 29.011719 52.484375 29.292969 52.4375 29.433594 C 52.390625 29.597656 52.273438 29.6875 51.992188 29.78125 C 50.410156 30.296875 37.171875 29.574219 34.796875 29.410156 C 34.167969 29.363281 33.980469 29.363281 33.609375 29.269531 C 33.28125 29.175781 32.839844 29.035156 32.699219 28.828125 C 32.582031 28.664062 32.582031 28.335938 32.675781 28.222656 C 32.769531 28.105469 33.28125 28.105469 33.28125 28.105469 " clip-rule="nonzero"/></clipPath><clipPath id="99c42f066c"><path d="M 54.875 28.589844 L 62.328125 28.589844 L 62.328125 30.792969 L 54.875 30.792969 Z M 54.875 28.589844 " clip-rule="nonzero"/></clipPath><clipPath id="113b7afc51"><path d="M 55.324219 28.6875 C 59.472656 28.546875 60.078125 28.570312 60.664062 28.828125 C 61.246094 29.105469 62.105469 29.78125 62.269531 30.132812 C 62.339844 30.296875 62.316406 30.457031 62.246094 30.550781 C 62.175781 30.667969 61.992188 30.808594 61.875 30.785156 C 61.710938 30.761719 61.40625 30.480469 61.382812 30.320312 C 61.359375 30.203125 61.476562 30.015625 61.59375 29.945312 C 61.6875 29.851562 61.898438 29.828125 62.011719 29.898438 C 62.152344 29.96875 62.316406 30.363281 62.269531 30.503906 C 62.222656 30.644531 61.96875 30.808594 61.78125 30.785156 C 61.453125 30.738281 60.988281 30.039062 60.59375 29.828125 C 60.242188 29.644531 60.03125 29.597656 59.566406 29.527344 C 58.636719 29.386719 55.746094 29.875 55.164062 29.574219 C 54.976562 29.457031 54.882812 29.246094 54.882812 29.105469 C 54.90625 28.96875 55.324219 28.6875 55.324219 28.6875 " clip-rule="nonzero"/></clipPath></defs><g clip-path="url(#fac035f20a)"><path fill="#ffffff" d="M 75 37.5 C 75 38.726562 74.941406 39.953125 74.820312 41.175781 C 74.699219 42.398438 74.519531 43.609375 74.28125 44.816406 C 74.039062 46.019531 73.742188 47.210938 73.386719 48.386719 C 73.027344 49.5625 72.617188 50.714844 72.144531 51.851562 C 71.675781 52.984375 71.152344 54.09375 70.570312 55.175781 C 69.992188 56.261719 69.363281 57.3125 68.679688 58.332031 C 67.996094 59.355469 67.265625 60.339844 66.488281 61.289062 C 65.707031 62.238281 64.886719 63.148438 64.015625 64.015625 C 63.148438 64.886719 62.238281 65.707031 61.289062 66.488281 C 60.339844 67.265625 59.355469 67.996094 58.332031 68.679688 C 57.3125 69.363281 56.261719 69.992188 55.175781 70.570312 C 54.09375 71.152344 52.984375 71.675781 51.851562 72.144531 C 50.714844 72.617188 49.5625 73.027344 48.386719 73.386719 C 47.210938 73.742188 46.019531 74.039062 44.816406 74.28125 C 43.609375 74.519531 42.398438 74.699219 41.175781 74.820312 C 39.953125 74.941406 38.726562 75 37.5 75 C 36.273438 75 35.046875 74.941406 33.824219 74.820312 C 32.601562 74.699219 31.390625 74.519531 30.183594 74.28125 C 28.980469 74.039062 27.789062 73.742188 26.613281 73.386719 C 25.4375 73.027344 24.285156 72.617188 23.148438 72.144531 C 22.015625 71.675781 20.90625 71.152344 19.824219 70.570312 C 18.738281 69.992188 17.6875 69.363281 16.667969 68.679688 C 15.644531 67.996094 14.660156 67.265625 13.710938 66.488281 C 12.761719 65.707031 11.851562 64.886719 10.984375 64.015625 C 10.113281 63.148438 9.292969 62.238281 8.511719 61.289062 C 7.734375 60.339844 7.003906 59.355469 6.320312 58.332031 C 5.636719 57.3125 5.007812 56.261719 4.429688 55.175781 C 3.847656 54.09375 3.324219 52.984375 2.855469 51.851562 C 2.382812 50.714844 1.972656 49.5625 1.613281 48.386719 C 1.257812 47.210938 0.960938 46.019531 0.71875 44.816406 C 0.480469 43.609375 0.300781 42.398438 0.179688 41.175781 C 0.0585938 39.953125 0 38.726562 0 37.5 C 0 36.273438 0.0585938 35.046875 0.179688 33.824219 C 0.300781 32.601562 0.480469 31.390625 0.71875 30.183594 C 0.960938 28.980469 1.257812 27.789062 1.613281 26.613281 C 1.972656 25.4375 2.382812 24.285156 2.855469 23.148438 C 3.324219 22.015625 3.847656 20.90625 4.429688 19.824219 C 5.007812 18.738281 5.636719 17.6875 6.320312 16.667969 C 7.003906 15.644531 7.734375 14.660156 8.511719 13.710938 C 9.292969 12.761719 10.113281 11.851562 10.984375 10.984375 C 11.851562 10.113281 12.761719 9.292969 13.710938 8.511719 C 14.660156 7.734375 15.644531 7.003906 16.667969 6.320312 C 17.6875 5.636719 18.738281 5.007812 19.824219 4.429688 C 20.90625 3.847656 22.015625 3.324219 23.148438 2.855469 C 24.285156 2.382812 25.4375 1.972656 26.613281 1.613281 C 27.789062 1.257812 28.980469 0.960938 30.183594 0.71875 C 31.390625 0.480469 32.601562 0.300781 33.824219 0.179688 C 35.046875 0.0585938 36.273438 0 37.5 0 C 38.726562 0 39.953125 0.0585938 41.175781 0.179688 C 42.398438 0.300781 43.609375 0.480469 44.816406 0.71875 C 46.019531 0.960938 47.210938 1.257812 48.386719 1.613281 C 49.5625 1.972656 50.714844 2.382812 51.851562 2.855469 C 52.984375 3.324219 54.09375 3.847656 55.175781 4.429688 C 56.261719 5.007812 57.3125 5.636719 58.332031 6.320312 C 59.355469 7.003906 60.339844 7.734375 61.289062 8.511719 C 62.238281 9.292969 63.148438 10.113281 64.015625 10.984375 C 64.886719 11.851562 65.707031 12.761719 66.488281 13.710938 C 67.265625 14.660156 67.996094 15.644531 68.679688 16.667969 C 69.363281 17.6875 69.992188 18.738281 70.570312 19.824219 C 71.152344 20.90625 71.675781 22.015625 72.144531 23.148438 C 72.617188 24.285156 73.027344 25.4375 73.386719 26.613281 C 73.742188 27.789062 74.039062 28.980469 74.28125 30.183594 C 74.519531 31.390625 74.699219 32.601562 74.820312 33.824219 C 74.941406 35.046875 75 36.273438 75 37.5 Z M 75 37.5 " fill-opacity="1" fill-rule="nonzero"/></g><g clip-path="url(#dadef0b683)"><g clip-path="url(#1cd0950eb1)"><path fill="#000000" d="M 64.121094 59.152344 L 8.953125 59.152344 L 8.953125 15.832031 L 64.121094 15.832031 Z M 64.121094 59.152344 " fill-opacity="1" fill-rule="nonzero"/></g></g><g clip-path="url(#c78eff644a)"><g clip-path="url(#849ad1681e)"><path fill="#ffffff" d="M 11.402344 19.367188 L 31.207031 19.367188 L 31.207031 39.171875 L 11.402344 39.171875 Z M 11.402344 19.367188 " fill-opacity="1" fill-rule="nonzero"/></g></g><g clip-path="url(#c828d67f6a)"><g clip-path="url(#1a1ceaa43a)"><path fill="#ffffff" d="M 31.742188 27.171875 L 53.398438 27.171875 L 53.398438 30.714844 L 31.742188 30.714844 Z M 31.742188 27.171875 " fill-opacity="1" fill-rule="nonzero"/></g></g><g clip-path="url(#99c42f066c)"><g clip-path="url(#113b7afc51)"><path fill="#ffffff" d="M 53.949219 27.570312 L 63.203125 27.570312 L 63.203125 31.714844 L 53.949219 31.714844 Z M 53.949219 27.570312 " fill-opacity="1" fill-rule="nonzero"/></g></g></svg>