<svg xmlns="http://www.w3.org/2000/svg" xmlns:xlink="http://www.w3.org/1999/xlink" width="500" zoomAndPan="magnify" viewBox="0 0 375 374.999991" height="500" preserveAspectRatio="xMidYMid meet" version="1.0"><defs><g/><clipPath id="111ad4fd45"><path d="M 9.421875 9.421875 L 365.671875 9.421875 L 365.671875 365.671875 L 9.421875 365.671875 Z M 9.421875 9.421875 " clip-rule="nonzero"/></clipPath><clipPath id="5cdb61d328"><path d="M 139.625 64.285156 L 152.554688 64.285156 L 152.554688 310.753906 L 139.625 310.753906 Z M 139.625 64.285156 " clip-rule="nonzero"/></clipPath><clipPath id="1f06465354"><path d="M 146.089844 64.285156 C 149.660156 64.285156 152.554688 67.179688 152.554688 70.75 L 152.554688 304.25 C 152.554688 307.820312 149.660156 310.714844 146.089844 310.714844 C 142.519531 310.714844 139.625 307.820312 139.625 304.25 L 139.625 70.75 C 139.625 67.179688 142.519531 64.285156 146.089844 64.285156 Z M 146.089844 64.285156 " clip-rule="nonzero"/></clipPath><clipPath id="e19fb0ebd0"><path d="M 222.445312 64.285156 L 235.375 64.285156 L 235.375 310.753906 L 222.445312 310.753906 Z M 222.445312 64.285156 " clip-rule="nonzero"/></clipPath><clipPath id="fbeb06f331"><path d="M 228.910156 64.285156 C 232.480469 64.285156 235.375 67.179688 235.375 70.75 L 235.375 304.25 C 235.375 307.820312 232.480469 310.714844 228.910156 310.714844 C 225.339844 310.714844 222.445312 307.820312 222.445312 304.25 L 222.445312 70.75 C 222.445312 67.179688 225.339844 64.285156 228.910156 64.285156 Z M 228.910156 64.285156 " clip-rule="nonzero"/></clipPath><clipPath id="1eb3564f43"><path d="M 64.285156 222.4375 L 310.753906 222.4375 L 310.753906 235.367188 L 64.285156 235.367188 Z M 64.285156 222.4375 " clip-rule="nonzero"/></clipPath><clipPath id="7b164f19c4"><path d="M 64.285156 228.902344 C 64.285156 225.332031 67.179688 222.4375 70.75 222.4375 L 304.25 222.4375 C 307.820312 222.4375 310.714844 225.332031 310.714844 228.902344 C 310.714844 232.472656 307.820312 235.367188 304.25 235.367188 L 70.75 235.367188 C 67.179688 235.367188 64.285156 232.472656 64.285156 228.902344 Z M 64.285156 228.902344 " clip-rule="nonzero"/></clipPath><clipPath id="b164469c31"><path d="M 64.285156 139.617188 L 310.753906 139.617188 L 310.753906 152.546875 L 64.285156 152.546875 Z M 64.285156 139.617188 " clip-rule="nonzero"/></clipPath><clipPath id="7f42d1609d"><path d="M 64.285156 146.082031 C 64.285156 142.511719 67.179688 139.617188 70.75 139.617188 L 304.25 139.617188 C 307.820312 139.617188 310.714844 142.511719 310.714844 146.082031 C 310.714844 149.652344 307.820312 152.546875 304.25 152.546875 L 70.75 152.546875 C 67.179688 152.546875 64.285156 149.652344 64.285156 146.082031 Z M 64.285156 146.082031 " clip-rule="nonzero"/></clipPath></defs><path fill="#000000" d="M 187.5 375 C 84.074219 375 0 290.925781 0 187.5 C 0 84.074219 84.148438 0 187.5 0 C 237.601562 0 284.699219 19.5 320.101562 54.898438 C 355.5 90.300781 375 137.398438 375 187.5 C 375 290.925781 290.925781 375 187.5 375 Z M 187.5 12.226562 C 90.824219 12.226562 12.226562 90.824219 12.226562 187.5 C 12.226562 284.175781 90.824219 362.773438 187.5 362.773438 C 284.175781 362.773438 362.773438 284.175781 362.773438 187.5 C 362.773438 140.699219 344.550781 96.675781 311.476562 63.523438 C 278.398438 30.375 234.300781 12.226562 187.5 12.226562 Z M 187.5 12.226562 " fill-opacity="1" fill-rule="nonzero"/><g clip-path="url(#111ad4fd45)"><path fill="#000000" d="M 187.53125 365.566406 C 139.988281 365.566406 95.214844 347.046875 61.578125 313.414062 C 27.945312 279.777344 9.421875 235.074219 9.421875 187.53125 C 9.421875 139.988281 27.945312 95.214844 61.578125 61.578125 C 95.214844 27.945312 139.917969 9.421875 187.53125 9.421875 C 235.144531 9.421875 279.777344 27.945312 313.414062 61.578125 C 347.046875 95.214844 365.566406 139.917969 365.566406 187.53125 C 365.566406 235.144531 347.046875 279.777344 313.414062 313.414062 C 279.777344 347.046875 235.074219 365.566406 187.53125 365.566406 Z M 187.53125 20.066406 C 142.828125 20.066406 100.75 37.453125 69.101562 69.101562 C 37.453125 100.746094 20.066406 142.757812 20.066406 187.53125 C 20.066406 232.304688 37.453125 274.3125 69.101562 305.960938 C 100.75 337.609375 142.757812 354.996094 187.53125 354.996094 C 232.304688 354.996094 274.3125 337.609375 305.960938 305.960938 C 337.609375 274.3125 354.996094 232.304688 354.996094 187.53125 C 354.996094 142.757812 337.609375 100.746094 305.960938 69.101562 C 274.242188 37.453125 232.234375 20.066406 187.53125 20.066406 Z M 187.53125 20.066406 " fill-opacity="1" fill-rule="nonzero"/></g><path fill="#000000" d="M 183.984375 343.359375 L 183.558594 343.359375 C 181.996094 343.285156 180.789062 342.007812 180.859375 340.519531 C 180.933594 339.027344 182.136719 337.824219 183.628906 337.824219 C 183.628906 337.824219 183.699219 337.824219 183.699219 337.824219 L 184.054688 337.824219 C 185.617188 337.894531 186.820312 339.171875 186.75 340.660156 C 186.75 342.152344 185.542969 343.359375 183.984375 343.359375 Z M 198.03125 343.003906 C 196.542969 343.003906 195.335938 341.867188 195.265625 340.378906 C 195.195312 338.816406 196.332031 337.539062 197.890625 337.398438 L 198.175781 337.398438 C 199.734375 337.253906 201.085938 338.460938 201.15625 339.953125 C 201.296875 341.511719 200.089844 342.859375 198.601562 342.933594 L 198.246094 342.933594 C 198.105469 343.003906 198.03125 343.003906 198.03125 343.003906 Z M 169.71875 342.363281 C 169.648438 342.363281 169.507812 342.363281 169.367188 342.363281 L 169.011719 342.292969 C 167.449219 342.082031 166.386719 340.730469 166.597656 339.171875 C 166.8125 337.609375 168.160156 336.546875 169.71875 336.757812 L 170.074219 336.828125 C 171.636719 336.972656 172.699219 338.390625 172.558594 339.953125 C 172.273438 341.300781 171.070312 342.363281 169.71875 342.363281 Z M 212.226562 341.371094 C 210.875 341.371094 209.671875 340.378906 209.457031 339.027344 C 209.171875 337.539062 210.238281 336.050781 211.800781 335.835938 L 212.152344 335.765625 C 213.644531 335.550781 215.132812 336.546875 215.347656 338.105469 C 215.558594 339.667969 214.566406 341.085938 213.003906 341.300781 L 212.652344 341.371094 C 212.578125 341.371094 212.4375 341.371094 212.226562 341.371094 Z M 155.527344 340.023438 C 155.316406 340.023438 155.171875 340.023438 154.960938 339.953125 L 154.605469 339.878906 C 153.117188 339.527344 152.121094 338.035156 152.476562 336.546875 C 152.832031 335.054688 154.324219 334.0625 155.8125 334.417969 L 156.167969 334.488281 C 157.65625 334.84375 158.652344 336.261719 158.296875 337.824219 C 158.011719 339.171875 156.804688 340.023438 155.527344 340.023438 Z M 226.273438 338.460938 C 224.996094 338.460938 223.863281 337.609375 223.578125 336.332031 C 223.222656 334.84375 224.074219 333.28125 225.636719 332.925781 L 225.921875 332.855469 C 227.410156 332.429688 228.972656 333.351562 229.328125 334.84375 C 229.753906 336.332031 228.828125 337.894531 227.339844 338.25 L 226.984375 338.320312 C 226.773438 338.390625 226.488281 338.460938 226.273438 338.460938 Z M 141.691406 336.402344 C 141.40625 336.402344 141.125 336.332031 140.839844 336.261719 L 140.554688 336.191406 C 139.066406 335.695312 138.214844 334.132812 138.710938 332.644531 C 139.207031 331.152344 140.699219 330.371094 142.1875 330.796875 L 142.542969 330.867188 C 144.03125 331.292969 144.8125 332.925781 144.386719 334.347656 C 143.960938 335.625 142.828125 336.402344 141.691406 336.402344 Z M 239.96875 334.132812 C 238.835938 334.132812 237.769531 333.421875 237.34375 332.289062 C 236.847656 330.867188 237.558594 329.238281 239.046875 328.738281 L 239.332031 328.597656 C 240.75 328.101562 242.382812 328.8125 242.949219 330.230469 C 243.445312 331.648438 242.738281 333.28125 241.316406 333.847656 L 240.964844 333.992188 C 240.609375 334.132812 240.324219 334.132812 239.96875 334.132812 Z M 128.210938 331.507812 C 127.855469 331.507812 127.5 331.4375 127.144531 331.292969 L 126.789062 331.152344 C 125.371094 330.515625 124.730469 328.882812 125.300781 327.460938 C 125.9375 326.042969 127.570312 325.40625 128.988281 325.972656 L 129.273438 326.113281 C 130.691406 326.683594 131.402344 328.3125 130.765625 329.804688 C 130.339844 330.796875 129.273438 331.507812 128.210938 331.507812 Z M 253.238281 328.597656 C 252.175781 328.597656 251.183594 328.03125 250.757812 327.039062 C 250.117188 325.617188 250.683594 323.984375 252.03125 323.277344 L 252.386719 323.132812 C 253.808594 322.496094 255.4375 323.0625 256.148438 324.484375 C 256.789062 325.902344 256.21875 327.535156 254.800781 328.171875 L 254.515625 328.3125 C 254.019531 328.527344 253.59375 328.597656 253.238281 328.597656 Z M 115.222656 325.261719 C 114.796875 325.261719 114.300781 325.121094 113.875 324.910156 L 113.589844 324.765625 C 112.242188 324.058594 111.746094 322.355469 112.457031 321.003906 C 113.164062 319.65625 114.867188 319.160156 116.21875 319.871094 L 116.5 320.011719 C 117.847656 320.722656 118.347656 322.425781 117.636719 323.773438 C 117.210938 324.765625 116.21875 325.261719 115.222656 325.261719 Z M 265.871094 321.855469 C 264.949219 321.855469 264.023438 321.359375 263.457031 320.507812 C 262.675781 319.160156 263.101562 317.457031 264.378906 316.675781 L 264.664062 316.464844 C 266.011719 315.683594 267.714844 316.109375 268.496094 317.457031 C 269.277344 318.804688 268.851562 320.507812 267.503906 321.289062 L 267.21875 321.429688 C 266.863281 321.714844 266.367188 321.855469 265.871094 321.855469 Z M 102.875 317.882812 C 102.378906 317.882812 101.8125 317.742188 101.316406 317.386719 L 101.03125 317.171875 C 99.753906 316.324219 99.398438 314.621094 100.25 313.269531 C 101.101562 311.992188 102.804688 311.640625 104.152344 312.492188 L 104.4375 312.703125 C 105.714844 313.554688 106.070312 315.257812 105.21875 316.605469 C 104.722656 317.457031 103.800781 317.882812 102.875 317.882812 Z M 277.863281 313.910156 C 277.011719 313.910156 276.160156 313.484375 275.589844 312.773438 C 274.667969 311.566406 274.953125 309.792969 276.160156 308.871094 L 276.441406 308.660156 C 277.71875 307.734375 279.421875 308.019531 280.347656 309.226562 C 281.269531 310.503906 280.984375 312.207031 279.777344 313.128906 L 279.496094 313.34375 C 278.996094 313.769531 278.429688 313.910156 277.863281 313.910156 Z M 91.308594 309.4375 C 90.671875 309.4375 90.03125 309.226562 89.535156 308.800781 L 89.253906 308.585938 C 88.046875 307.59375 87.832031 305.890625 88.828125 304.683594 C 89.820312 303.480469 91.523438 303.265625 92.730469 304.257812 L 93.011719 304.472656 C 94.21875 305.464844 94.363281 307.238281 93.4375 308.375 C 92.941406 309.085938 92.160156 309.4375 91.308594 309.4375 Z M 289.003906 304.898438 C 288.222656 304.898438 287.441406 304.613281 286.945312 303.976562 C 285.953125 302.839844 286.023438 301.066406 287.15625 300.074219 L 287.441406 299.859375 C 288.578125 298.796875 290.351562 298.9375 291.414062 300.074219 C 292.480469 301.207031 292.339844 302.980469 291.203125 304.046875 L 290.988281 304.257812 C 290.351562 304.683594 289.640625 304.898438 289.003906 304.898438 Z M 80.59375 299.859375 C 79.886719 299.859375 79.175781 299.574219 78.679688 299.078125 L 78.394531 298.796875 C 77.261719 297.730469 77.261719 295.957031 78.394531 294.820312 C 79.460938 293.6875 81.234375 293.6875 82.371094 294.820312 L 82.582031 295.035156 C 83.71875 296.097656 83.71875 297.871094 82.652344 299.007812 C 82.085938 299.648438 81.304688 299.859375 80.59375 299.859375 Z M 299.292969 294.890625 C 298.582031 294.890625 297.945312 294.679688 297.375 294.113281 C 296.242188 293.046875 296.167969 291.273438 297.234375 290.136719 L 297.445312 289.855469 C 298.511719 288.71875 300.285156 288.648438 301.421875 289.710938 C 302.554688 290.777344 302.628906 292.550781 301.5625 293.6875 L 301.351562 293.898438 C 300.78125 294.609375 300 294.890625 299.292969 294.890625 Z M 70.804688 289.429688 C 70.023438 289.429688 69.242188 289.074219 68.675781 288.433594 L 68.460938 288.152344 C 67.46875 286.945312 67.609375 285.242188 68.816406 284.179688 C 70.023438 283.183594 71.726562 283.328125 72.789062 284.53125 L 73.003906 284.816406 C 73.996094 286.023438 73.855469 287.726562 72.648438 288.789062 C 72.082031 289.214844 71.441406 289.429688 70.804688 289.429688 Z M 308.585938 283.964844 C 308.019531 283.964844 307.382812 283.753906 306.882812 283.398438 C 305.679688 282.476562 305.394531 280.699219 306.386719 279.496094 L 306.601562 279.210938 C 307.523438 278.003906 309.296875 277.792969 310.503906 278.714844 C 311.710938 279.636719 311.921875 281.410156 311 282.617188 L 310.789062 282.902344 C 310.289062 283.609375 309.4375 283.964844 308.585938 283.964844 Z M 62.074219 278.074219 C 61.222656 278.074219 60.300781 277.648438 59.804688 276.867188 L 59.589844 276.585938 C 58.738281 275.308594 59.023438 273.605469 60.300781 272.683594 C 61.578125 271.832031 63.28125 272.113281 64.203125 273.390625 L 64.417969 273.675781 C 65.269531 274.953125 64.984375 276.65625 63.707031 277.578125 C 63.140625 277.863281 62.570312 278.074219 62.074219 278.074219 Z M 316.820312 272.257812 C 316.324219 272.257812 315.824219 272.113281 315.328125 271.832031 C 314.050781 270.980469 313.625 269.277344 314.476562 268 L 314.691406 267.714844 C 315.542969 266.4375 317.246094 266.011719 318.523438 266.863281 C 319.800781 267.714844 320.226562 269.417969 319.375 270.695312 L 319.160156 270.980469 C 318.664062 271.761719 317.742188 272.257812 316.820312 272.257812 Z M 54.339844 265.941406 C 53.347656 265.941406 52.425781 265.445312 51.929688 264.523438 L 51.785156 264.238281 C 51.003906 262.890625 51.503906 261.1875 52.851562 260.40625 C 54.199219 259.625 55.902344 260.121094 56.683594 261.472656 L 56.824219 261.753906 C 57.605469 263.101562 57.109375 264.804688 55.761719 265.585938 C 55.335938 265.800781 54.835938 265.941406 54.339844 265.941406 Z M 323.984375 259.769531 C 323.558594 259.769531 323.132812 259.695312 322.707031 259.484375 C 321.359375 258.773438 320.792969 257.070312 321.503906 255.722656 L 321.644531 255.4375 C 322.355469 254.089844 324.058594 253.523438 325.40625 254.234375 C 326.753906 254.941406 327.320312 256.644531 326.613281 257.992188 L 326.46875 258.277344 C 325.972656 259.199219 324.980469 259.769531 323.984375 259.769531 Z M 47.882812 253.167969 C 46.820312 253.167969 45.824219 252.53125 45.328125 251.535156 L 45.1875 251.253906 C 44.546875 249.832031 45.1875 248.203125 46.605469 247.5625 C 48.023438 246.925781 49.65625 247.5625 50.296875 248.980469 L 50.4375 249.265625 C 51.078125 250.683594 50.4375 252.316406 49.019531 252.957031 C 48.664062 253.097656 48.238281 253.167969 47.882812 253.167969 Z M 329.875 246.710938 C 329.519531 246.710938 329.164062 246.640625 328.882812 246.5 C 327.464844 245.929688 326.753906 244.296875 327.320312 242.878906 L 327.464844 242.523438 C 328.03125 241.105469 329.664062 240.394531 331.082031 240.964844 C 332.5 241.53125 333.210938 243.164062 332.644531 244.582031 L 332.5 244.9375 C 332.003906 246 331.011719 246.710938 329.875 246.710938 Z M 42.5625 239.828125 C 41.425781 239.828125 40.289062 239.117188 39.9375 237.914062 L 39.792969 237.558594 C 39.296875 236.066406 40.078125 234.507812 41.566406 234.007812 C 43.058594 233.511719 44.621094 234.292969 45.117188 235.785156 L 45.257812 236.136719 C 45.753906 237.628906 44.972656 239.191406 43.554688 239.6875 C 43.199219 239.757812 42.917969 239.828125 42.5625 239.828125 Z M 334.558594 233.15625 C 334.273438 233.15625 334.0625 233.085938 333.777344 233.015625 C 332.289062 232.589844 331.4375 231.027344 331.863281 229.539062 L 331.933594 229.183594 C 332.359375 227.695312 333.921875 226.84375 335.410156 227.269531 C 336.902344 227.695312 337.753906 229.253906 337.328125 230.746094 L 337.253906 231.101562 C 336.828125 232.304688 335.765625 233.15625 334.558594 233.15625 Z M 38.585938 225.992188 C 37.308594 225.992188 36.175781 225.140625 35.890625 223.863281 L 35.820312 223.507812 C 35.464844 222.015625 36.386719 220.527344 37.878906 220.171875 C 39.367188 219.816406 40.859375 220.738281 41.214844 222.230469 L 41.285156 222.585938 C 41.640625 224.074219 40.714844 225.566406 39.226562 225.921875 C 39.011719 225.992188 38.800781 225.992188 38.585938 225.992188 Z M 337.894531 219.179688 C 337.753906 219.179688 337.539062 219.179688 337.328125 219.109375 C 335.835938 218.824219 334.84375 217.335938 335.125 215.84375 L 335.199219 215.488281 C 335.480469 214 336.972656 213.003906 338.460938 213.289062 C 339.953125 213.574219 340.945312 215.0625 340.660156 216.554688 L 340.589844 216.910156 C 340.378906 218.257812 339.171875 219.179688 337.894531 219.179688 Z M 35.890625 211.941406 C 34.542969 211.941406 33.335938 210.949219 33.125 209.527344 L 33.054688 209.171875 C 32.839844 207.613281 33.90625 206.265625 35.464844 206.050781 C 37.027344 205.839844 38.375 206.902344 38.585938 208.464844 L 38.660156 208.820312 C 38.871094 210.378906 37.808594 211.726562 36.316406 212.011719 C 36.175781 211.941406 36.035156 211.941406 35.890625 211.941406 Z M 339.878906 204.988281 C 339.808594 204.988281 339.667969 204.988281 339.597656 204.988281 C 338.035156 204.84375 336.902344 203.496094 337.113281 201.9375 L 337.113281 201.582031 C 337.253906 200.019531 338.601562 198.882812 340.164062 199.097656 C 341.726562 199.238281 342.859375 200.585938 342.648438 202.148438 L 342.648438 202.503906 C 342.578125 203.921875 341.300781 204.988281 339.878906 204.988281 Z M 34.613281 197.679688 C 33.125 197.679688 31.917969 196.542969 31.847656 194.980469 L 31.847656 194.628906 C 31.777344 193.066406 32.980469 191.789062 34.472656 191.71875 C 36.035156 191.648438 37.308594 192.851562 37.382812 194.34375 L 37.382812 194.699219 C 37.453125 196.257812 36.246094 197.535156 34.757812 197.609375 C 34.683594 197.679688 34.613281 197.679688 34.613281 197.679688 Z M 340.589844 190.296875 C 339.027344 190.296875 337.679688 189.375 337.679688 187.816406 L 337.679688 187.53125 C 337.679688 187.53125 337.679688 187.460938 337.679688 187.460938 L 337.679688 187.105469 C 337.679688 185.542969 338.957031 184.339844 340.519531 184.339844 C 342.082031 184.339844 343.359375 185.617188 343.359375 187.105469 L 343.359375 187.390625 C 343.359375 187.390625 343.359375 187.460938 343.359375 187.460938 L 343.359375 187.816406 C 343.359375 189.375 342.152344 190.296875 340.589844 190.296875 Z M 34.542969 183.273438 C 34.472656 183.273438 34.472656 183.273438 34.402344 183.273438 C 32.839844 183.203125 31.632812 181.925781 31.703125 180.363281 L 31.703125 180.007812 C 31.777344 178.449219 33.125 177.3125 34.613281 177.382812 C 36.175781 177.453125 37.382812 178.730469 37.238281 180.292969 L 37.238281 180.648438 C 37.308594 182.136719 36.035156 183.273438 34.542969 183.273438 Z M 339.953125 175.964844 C 338.53125 175.964844 337.328125 174.902344 337.183594 173.410156 L 337.183594 173.054688 C 337.042969 171.496094 338.175781 170.144531 339.667969 170.003906 C 341.230469 169.863281 342.578125 170.996094 342.71875 172.488281 L 342.71875 172.84375 C 342.859375 174.402344 341.726562 175.753906 340.164062 175.894531 C 340.09375 175.964844 340.023438 175.964844 339.953125 175.964844 Z M 35.890625 169.011719 C 35.75 169.011719 35.609375 169.011719 35.535156 169.011719 C 33.976562 168.796875 32.910156 167.378906 33.125 165.886719 L 33.195312 165.535156 C 33.40625 163.972656 34.828125 162.910156 36.386719 163.191406 C 37.949219 163.40625 39.011719 164.824219 38.730469 166.386719 L 38.660156 166.738281 C 38.445312 168.015625 37.238281 169.011719 35.890625 169.011719 Z M 337.964844 161.773438 C 336.617188 161.773438 335.480469 160.851562 335.199219 159.503906 L 335.125 159.148438 C 334.84375 157.65625 335.835938 156.167969 337.328125 155.882812 C 338.816406 155.597656 340.304688 156.59375 340.589844 158.082031 L 340.660156 158.4375 C 340.945312 159.929688 339.953125 161.417969 338.460938 161.703125 C 338.25 161.773438 338.105469 161.773438 337.964844 161.773438 Z M 38.515625 154.890625 C 38.304688 154.890625 38.089844 154.890625 37.878906 154.820312 C 36.386719 154.464844 35.464844 152.972656 35.820312 151.484375 L 35.890625 151.128906 C 36.246094 149.640625 37.734375 148.714844 39.226562 149.070312 C 40.714844 149.425781 41.640625 150.917969 41.285156 152.40625 L 41.214844 152.761719 C 40.929688 154.039062 39.792969 154.890625 38.515625 154.890625 Z M 334.628906 147.792969 C 333.421875 147.792969 332.289062 147.011719 331.933594 145.734375 L 331.863281 145.382812 C 331.4375 143.890625 332.289062 142.332031 333.777344 141.90625 C 335.269531 141.480469 336.828125 142.332031 337.253906 143.820312 L 337.328125 144.175781 C 337.753906 145.664062 336.902344 147.226562 335.410156 147.652344 C 335.125 147.792969 334.84375 147.792969 334.628906 147.792969 Z M 42.492188 141.125 C 42.207031 141.125 41.921875 141.054688 41.566406 140.980469 C 40.078125 140.484375 39.296875 138.925781 39.792969 137.433594 L 39.9375 137.148438 C 40.433594 135.660156 42.066406 134.878906 43.484375 135.375 C 44.972656 135.871094 45.753906 137.433594 45.257812 138.925781 L 45.117188 139.277344 C 44.761719 140.414062 43.625 141.125 42.492188 141.125 Z M 330.015625 134.242188 C 328.882812 134.242188 327.816406 133.53125 327.390625 132.46875 L 327.25 132.183594 C 326.683594 130.765625 327.390625 129.132812 328.8125 128.5625 C 330.230469 127.996094 331.863281 128.707031 332.429688 130.125 L 332.570312 130.480469 C 333.140625 131.898438 332.429688 133.53125 331.011719 134.097656 C 330.65625 134.167969 330.371094 134.242188 330.015625 134.242188 Z M 47.742188 127.785156 C 47.386719 127.785156 46.960938 127.710938 46.605469 127.570312 C 45.1875 126.933594 44.546875 125.300781 45.1875 123.878906 L 45.328125 123.527344 C 45.96875 122.105469 47.597656 121.46875 49.019531 122.105469 C 50.4375 122.746094 51.078125 124.378906 50.4375 125.796875 L 50.296875 126.082031 C 49.800781 127.144531 48.804688 127.785156 47.742188 127.785156 Z M 324.128906 121.113281 C 323.132812 121.113281 322.140625 120.546875 321.644531 119.550781 L 321.503906 119.269531 C 320.792969 117.921875 321.359375 116.21875 322.707031 115.507812 C 324.058594 114.796875 325.761719 115.367188 326.46875 116.714844 L 326.613281 116.996094 C 327.320312 118.347656 326.753906 120.050781 325.40625 120.757812 C 324.980469 121.042969 324.554688 121.113281 324.128906 121.113281 Z M 54.199219 114.941406 C 53.703125 114.941406 53.277344 114.796875 52.851562 114.585938 C 51.503906 113.804688 51.003906 112.101562 51.785156 110.753906 L 51.929688 110.46875 C 52.707031 109.121094 54.410156 108.695312 55.761719 109.40625 C 57.109375 110.1875 57.535156 111.886719 56.824219 113.238281 L 56.683594 113.519531 C 56.113281 114.441406 55.191406 114.941406 54.199219 114.941406 Z M 317.03125 108.625 C 316.109375 108.625 315.1875 108.128906 314.691406 107.347656 L 314.546875 107.0625 C 313.695312 105.785156 314.121094 104.011719 315.398438 103.230469 C 316.675781 102.378906 318.449219 102.804688 319.230469 104.082031 L 319.445312 104.367188 C 320.296875 105.644531 319.871094 107.417969 318.59375 108.199219 C 318.023438 108.554688 317.527344 108.625 317.03125 108.625 Z M 61.863281 102.804688 C 61.292969 102.804688 60.726562 102.664062 60.300781 102.308594 C 59.023438 101.457031 58.738281 99.683594 59.589844 98.40625 L 59.804688 98.121094 C 60.65625 96.84375 62.429688 96.5625 63.707031 97.414062 C 64.984375 98.335938 65.269531 100.039062 64.417969 101.316406 L 64.203125 101.597656 C 63.636719 102.378906 62.714844 102.804688 61.863281 102.804688 Z M 308.800781 96.917969 C 307.949219 96.917969 307.097656 96.5625 306.601562 95.851562 L 306.386719 95.566406 C 305.464844 94.363281 305.679688 92.585938 306.882812 91.664062 C 308.089844 90.742188 309.863281 90.957031 310.789062 92.160156 L 311 92.445312 C 311.921875 93.652344 311.710938 95.425781 310.503906 96.347656 C 310.007812 96.703125 309.4375 96.917969 308.800781 96.917969 Z M 70.589844 91.453125 C 69.953125 91.453125 69.3125 91.238281 68.816406 90.8125 C 67.609375 89.820312 67.46875 88.046875 68.460938 86.910156 L 68.675781 86.628906 C 69.667969 85.421875 71.441406 85.351562 72.648438 86.34375 C 73.855469 87.335938 73.925781 89.109375 72.933594 90.316406 L 72.71875 90.601562 C 72.222656 91.097656 71.371094 91.453125 70.589844 91.453125 Z M 299.503906 85.988281 C 298.722656 85.988281 298.015625 85.703125 297.445312 85.066406 L 297.234375 84.851562 C 296.167969 83.71875 296.242188 81.945312 297.375 80.878906 C 298.511719 79.816406 300.285156 79.886719 301.351562 81.019531 L 301.632812 81.304688 C 302.699219 82.441406 302.628906 84.214844 301.492188 85.277344 C 300.925781 85.703125 300.214844 85.988281 299.503906 85.988281 Z M 80.382812 80.949219 C 79.671875 80.949219 78.964844 80.667969 78.394531 80.097656 C 77.332031 78.964844 77.332031 77.261719 78.46875 76.125 L 78.75 75.839844 C 79.886719 74.777344 81.660156 74.777344 82.722656 75.914062 C 83.789062 77.046875 83.789062 78.820312 82.652344 79.886719 L 82.441406 80.097656 C 81.800781 80.667969 81.09375 80.949219 80.382812 80.949219 Z M 289.285156 75.914062 C 288.648438 75.914062 287.9375 75.699219 287.441406 75.203125 L 287.230469 74.988281 C 286.09375 73.996094 285.953125 72.222656 287.015625 71.015625 C 288.007812 69.878906 289.785156 69.738281 290.988281 70.804688 L 291.273438 71.015625 C 292.410156 72.082031 292.550781 73.785156 291.488281 74.988281 C 290.777344 75.628906 290.066406 75.914062 289.285156 75.914062 Z M 91.097656 71.371094 C 90.316406 71.371094 89.464844 71.015625 88.898438 70.304688 C 87.90625 69.101562 88.117188 67.328125 89.324219 66.402344 L 89.609375 66.191406 C 90.8125 65.199219 92.585938 65.410156 93.511719 66.617188 C 94.503906 67.824219 94.289062 69.597656 93.085938 70.519531 L 92.800781 70.730469 C 92.304688 71.15625 91.734375 71.371094 91.097656 71.371094 Z M 278.144531 66.902344 C 277.578125 66.902344 277.011719 66.757812 276.515625 66.332031 L 276.230469 66.121094 C 274.953125 65.199219 274.738281 63.496094 275.589844 62.21875 C 276.515625 60.941406 278.289062 60.726562 279.496094 61.578125 L 279.777344 61.792969 C 281.054688 62.714844 281.269531 64.488281 280.347656 65.695312 C 279.847656 66.476562 278.996094 66.902344 278.144531 66.902344 Z M 102.664062 62.855469 C 101.742188 62.855469 100.890625 62.429688 100.324219 61.578125 C 99.472656 60.300781 99.824219 58.527344 101.101562 57.675781 L 101.386719 57.464844 C 102.664062 56.613281 104.4375 56.964844 105.289062 58.242188 C 106.140625 59.519531 105.785156 61.292969 104.507812 62.144531 L 104.226562 62.359375 C 103.726562 62.714844 103.160156 62.855469 102.664062 62.855469 Z M 266.152344 58.953125 C 265.65625 58.953125 265.160156 58.8125 264.734375 58.527344 L 264.449219 58.3125 C 263.101562 57.535156 262.675781 55.832031 263.457031 54.484375 C 264.238281 53.132812 265.941406 52.707031 267.289062 53.488281 L 267.574219 53.703125 C 268.921875 54.484375 269.347656 56.1875 268.566406 57.535156 C 268.070312 58.457031 267.148438 58.953125 266.152344 58.953125 Z M 114.941406 55.476562 C 113.945312 55.476562 112.953125 54.910156 112.457031 53.984375 C 111.746094 52.636719 112.242188 50.933594 113.589844 50.226562 L 113.875 50.082031 C 115.222656 49.375 116.925781 49.871094 117.636719 51.21875 C 118.347656 52.566406 117.847656 54.269531 116.5 54.980469 L 116.21875 55.121094 C 115.863281 55.335938 115.367188 55.476562 114.941406 55.476562 Z M 253.523438 52.140625 C 253.097656 52.140625 252.742188 52.070312 252.316406 51.855469 L 252.03125 51.714844 C 250.613281 51.078125 250.046875 49.375 250.683594 47.953125 C 251.324219 46.535156 253.027344 45.96875 254.445312 46.605469 L 254.730469 46.75 C 256.148438 47.386719 256.714844 49.089844 256.078125 50.507812 C 255.582031 51.574219 254.585938 52.140625 253.523438 52.140625 Z M 127.855469 49.230469 C 126.789062 49.230469 125.726562 48.59375 125.300781 47.527344 C 124.730469 46.109375 125.371094 44.476562 126.789062 43.839844 L 127.144531 43.695312 C 128.5625 43.128906 130.195312 43.769531 130.835938 45.1875 C 131.402344 46.605469 130.765625 48.238281 129.34375 48.875 L 129.0625 49.019531 C 128.5625 49.160156 128.210938 49.230469 127.855469 49.230469 Z M 240.324219 46.535156 C 240.042969 46.535156 239.6875 46.464844 239.402344 46.394531 L 239.046875 46.25 C 237.628906 45.753906 236.847656 44.121094 237.414062 42.632812 C 237.914062 41.214844 239.542969 40.433594 241.035156 41 L 241.390625 41.140625 C 242.808594 41.640625 243.589844 43.269531 243.09375 44.761719 C 242.523438 45.824219 241.460938 46.535156 240.324219 46.535156 Z M 141.335938 44.265625 C 140.128906 44.265625 139.066406 43.484375 138.640625 42.277344 C 138.144531 40.789062 138.996094 39.226562 140.484375 38.800781 L 140.839844 38.730469 C 142.332031 38.234375 143.890625 39.085938 144.316406 40.574219 C 144.8125 42.066406 143.960938 43.625 142.472656 44.050781 L 142.117188 44.121094 C 141.90625 44.265625 141.621094 44.265625 141.335938 44.265625 Z M 226.628906 42.277344 C 226.417969 42.277344 226.132812 42.277344 225.921875 42.207031 L 225.566406 42.136719 C 224.074219 41.78125 223.152344 40.21875 223.578125 38.730469 C 223.933594 37.238281 225.496094 36.316406 226.984375 36.742188 L 227.339844 36.8125 C 228.828125 37.238281 229.753906 38.730469 229.328125 40.21875 C 228.972656 41.425781 227.835938 42.277344 226.628906 42.277344 Z M 155.171875 40.644531 C 153.898438 40.644531 152.761719 39.722656 152.476562 38.445312 C 152.121094 36.957031 153.117188 35.464844 154.605469 35.109375 L 154.890625 35.039062 C 156.378906 34.683594 157.941406 35.679688 158.226562 37.167969 C 158.578125 38.660156 157.585938 40.148438 156.097656 40.503906 L 155.742188 40.574219 C 155.597656 40.574219 155.386719 40.644531 155.171875 40.644531 Z M 212.578125 39.226562 C 212.4375 39.226562 212.296875 39.226562 212.152344 39.15625 L 211.800781 39.085938 C 210.308594 38.871094 209.246094 37.382812 209.457031 35.890625 C 209.742188 34.402344 211.160156 33.335938 212.652344 33.550781 L 213.003906 33.621094 C 214.496094 33.90625 215.558594 35.324219 215.277344 36.8125 C 215.132812 38.304688 213.929688 39.226562 212.578125 39.226562 Z M 169.367188 38.304688 C 167.945312 38.304688 166.738281 37.238281 166.597656 35.820312 C 166.386719 34.257812 167.519531 32.910156 169.082031 32.699219 L 169.4375 32.628906 C 170.996094 32.414062 172.347656 33.550781 172.558594 35.109375 C 172.773438 36.671875 171.636719 38.019531 170.074219 38.234375 L 169.71875 38.304688 C 169.578125 38.234375 169.4375 38.304688 169.367188 38.304688 Z M 198.316406 37.59375 C 198.246094 37.59375 198.175781 37.59375 198.105469 37.59375 L 197.75 37.59375 C 196.1875 37.523438 195.054688 36.175781 195.125 34.613281 C 195.195312 33.054688 196.542969 31.917969 198.105469 31.988281 L 198.457031 31.988281 C 200.019531 32.058594 201.15625 33.40625 201.085938 34.96875 C 201.011719 36.457031 199.808594 37.59375 198.316406 37.59375 Z M 183.628906 37.308594 C 182.136719 37.308594 180.859375 36.105469 180.859375 34.542969 C 180.789062 32.980469 182.066406 31.703125 183.558594 31.632812 L 183.914062 31.632812 C 185.402344 31.5625 186.75 32.839844 186.75 34.332031 C 186.820312 35.890625 185.542969 37.167969 184.054688 37.238281 L 183.628906 37.308594 C 183.699219 37.308594 183.699219 37.308594 183.628906 37.308594 Z M 183.628906 37.308594 " fill-opacity="1" fill-rule="nonzero"/><g clip-path="url(#5cdb61d328)"><g clip-path="url(#1f06465354)"><path fill="#000000" d="M 139.625 64.285156 L 152.554688 64.285156 L 152.554688 310.703125 L 139.625 310.703125 Z M 139.625 64.285156 " fill-opacity="1" fill-rule="nonzero"/></g></g><g clip-path="url(#e19fb0ebd0)"><g clip-path="url(#fbeb06f331)"><path fill="#000000" d="M 222.445312 64.285156 L 235.375 64.285156 L 235.375 310.703125 L 222.445312 310.703125 Z M 222.445312 64.285156 " fill-opacity="1" fill-rule="nonzero"/></g></g><g clip-path="url(#1eb3564f43)"><g clip-path="url(#7b164f19c4)"><path fill="#000000" d="M 64.285156 235.367188 L 64.285156 222.4375 L 310.703125 222.4375 L 310.703125 235.367188 Z M 64.285156 235.367188 " fill-opacity="1" fill-rule="nonzero"/></g></g><g clip-path="url(#b164469c31)"><g clip-path="url(#7f42d1609d)"><path fill="#000000" d="M 64.285156 152.546875 L 64.285156 139.617188 L 310.703125 139.617188 L 310.703125 152.546875 Z M 64.285156 152.546875 " fill-opacity="1" fill-rule="nonzero"/></g></g><g fill="#e63f45" fill-opacity="1"><g transform="translate(83.866801, 120.664965)"><g><path d="M 7.125 0.328125 C 10.09375 0.328125 12.203125 -1.5625 12.203125 -4.8125 L 12.203125 -19.875 L 12.3125 -19.875 L 26.78125 -3.078125 C 28.84375 -0.703125 30.078125 0.328125 32.34375 0.328125 C 35.265625 0.328125 37.265625 -1.5625 37.265625 -4.859375 L 37.265625 -33.640625 C 37.265625 -36.875 35.203125 -38.765625 32.1875 -38.765625 C 29.21875 -38.765625 27.046875 -36.875 27.046875 -33.640625 L 27.046875 -18.46875 L 26.953125 -18.46875 L 11.984375 -35.859375 C 10.265625 -37.859375 9.078125 -38.765625 6.796875 -38.765625 C 3.671875 -38.765625 2 -36.78125 2 -33.59375 L 2 -4.8125 C 2 -1.5625 4.109375 0.328125 7.125 0.328125 Z M 3.71875 -31.703125 C 3.40625 -31.703125 3.234375 -32.296875 3.234375 -33.53125 C 3.234375 -36.078125 4.59375 -37.53125 7.34375 -37.53125 C 7.609375 -37.53125 7.78125 -37.375 7.78125 -37.203125 C 7.78125 -37.046875 7.671875 -36.875 7.390625 -36.828125 C 4.96875 -36.34375 4.53125 -35.09375 4.15625 -32.34375 C 4.109375 -31.96875 4 -31.703125 3.71875 -31.703125 Z M 28.734375 -31.703125 C 28.40625 -31.703125 28.234375 -32.296875 28.234375 -33.53125 C 28.234375 -36.078125 30.03125 -37.53125 32.34375 -37.53125 C 32.609375 -37.53125 32.78125 -37.375 32.78125 -37.203125 C 32.78125 -37.09375 32.671875 -36.9375 32.40625 -36.828125 C 30.453125 -36.078125 29.484375 -35.09375 29.109375 -32.34375 C 29.046875 -31.96875 29 -31.703125 28.734375 -31.703125 Z M 28.734375 -31.703125 "/></g></g></g><g fill="#e63f45" fill-opacity="1"><g transform="translate(251.688036, 120.664965)"><g><path d="M 20.734375 1.03125 C 32.78125 1.03125 40.390625 -6.90625 40.390625 -19.21875 C 40.390625 -31.90625 32.40625 -39.46875 20.734375 -39.46875 C 8.859375 -39.46875 1.03125 -31.75 1.03125 -19.28125 C 1.03125 -6.703125 8.96875 1.03125 20.734375 1.03125 Z M 2.921875 -19.328125 C 2.59375 -19.328125 2.484375 -19.609375 2.484375 -20.203125 C 2.484375 -29.59375 9.078125 -38.015625 20.296875 -38.015625 C 21.8125 -38.015625 22.359375 -37.75 22.359375 -37.265625 C 22.359375 -36.875 21.703125 -36.609375 20.09375 -36.609375 C 9.078125 -36.609375 3.890625 -27.859375 3.34375 -20.03125 C 3.296875 -19.546875 3.234375 -19.328125 2.921875 -19.328125 Z M 20.6875 -8.421875 C 15.609375 -8.421875 11.984375 -12.46875 11.984375 -19.21875 C 11.984375 -25.65625 15.34375 -30.03125 20.6875 -30.03125 C 26.453125 -30.03125 29.4375 -25.328125 29.4375 -18.953125 C 29.4375 -12.6875 26.1875 -8.421875 20.6875 -8.421875 Z M 22.296875 -6.265625 C 21.703125 -6.265625 21.546875 -6.484375 21.546875 -6.75 C 21.546875 -7.078125 21.703125 -7.1875 22.1875 -7.234375 C 23.96875 -7.453125 25.859375 -8.15625 27.59375 -9.78125 C 28.9375 -11.0625 29.921875 -13.0625 30.34375 -14.46875 C 30.515625 -15.015625 30.71875 -15.234375 30.9375 -15.234375 C 31.265625 -15.234375 31.640625 -15.015625 31.640625 -14.640625 C 31.640625 -14.203125 31.484375 -13.765625 31.3125 -13.34375 C 30.03125 -9.828125 27.265625 -7.390625 22.890625 -6.3125 C 22.6875 -6.265625 22.46875 -6.265625 22.296875 -6.265625 Z M 22.296875 -6.265625 "/></g></g></g><g fill="#009ea2" fill-opacity="1"><g transform="translate(77.796489, 206.249986)"><g><path d="M 13.9375 0.328125 C 17.875 0.328125 19.703125 -1.84375 20.890625 -5.40625 L 25.65625 -19.875 L 25.765625 -19.875 L 30.625 -5.34375 C 31.8125 -1.78125 33.59375 0.328125 37.46875 0.328125 C 41.90625 0.328125 43.09375 -1.453125 44.765625 -7.5 L 51.359375 -31.109375 C 51.671875 -32.1875 51.734375 -33.046875 51.734375 -33.75 C 51.734375 -36.5625 49.625 -38.765625 46.65625 -38.765625 C 43.90625 -38.765625 42.234375 -37.6875 41.25 -33.640625 L 37.046875 -16.359375 L 36.9375 -16.359375 L 31.3125 -33.640625 C 30.125 -37.265625 28.453125 -38.765625 25.703125 -38.765625 C 22.953125 -38.765625 21.28125 -37.421875 19.984375 -33.421875 L 14.46875 -16.359375 L 14.359375 -16.359375 L 10.046875 -34.125 C 9.234375 -37.375 7.453125 -38.765625 4.75 -38.765625 C 1.890625 -38.765625 -0.328125 -36.671875 -0.328125 -33.75 C -0.328125 -31.96875 0.21875 -29.859375 0.640625 -28.296875 L 6.421875 -8.640625 C 8.59375 -1.296875 9.28125 0.328125 13.9375 0.328125 Z M 38.234375 -13.65625 C 38.0625 -13.65625 38.015625 -13.828125 38.015625 -14.09375 C 38.015625 -14.84375 38.453125 -16.359375 38.609375 -17.015625 L 42.5 -33.203125 C 43.359375 -36.78125 44.71875 -37.53125 46.703125 -37.53125 C 47.40625 -37.53125 47.953125 -37.265625 47.953125 -36.984375 C 47.953125 -36.5625 47.734375 -36.5625 47.140625 -36.5625 C 45.203125 -36.5625 44.28125 -35.421875 43.625 -32.78125 L 39.3125 -15.609375 C 38.875 -13.875 38.5 -13.65625 38.234375 -13.65625 Z M 15.65625 -13.65625 C 15.5 -13.65625 15.4375 -13.828125 15.4375 -14.140625 C 15.4375 -14.90625 15.828125 -16.359375 16.03125 -17.015625 L 21.28125 -33.375 C 22.25 -36.34375 23.59375 -37.46875 25.703125 -37.46875 C 26.5625 -37.46875 27.109375 -37.203125 27.109375 -36.9375 C 27.109375 -36.5 26.890625 -36.5 25.859375 -36.5 C 24.25 -36.5 23.109375 -34.984375 22.46875 -33.109375 L 16.734375 -15.609375 C 16.140625 -13.875 15.9375 -13.65625 15.65625 -13.65625 Z M 1.625 -32.078125 C 1.1875 -32.078125 0.921875 -32.515625 0.921875 -33.75 C 0.921875 -35.90625 3.03125 -37.421875 4.75 -37.421875 C 5.1875 -37.421875 5.34375 -37.203125 5.34375 -36.984375 C 5.34375 -36.828125 5.234375 -36.671875 4.96875 -36.5625 C 3.296875 -35.90625 2.046875 -35.046875 2.046875 -32.890625 C 2.046875 -32.515625 2 -32.078125 1.625 -32.078125 Z M 1.625 -32.078125 "/></g></g></g><g fill="#009ea2" fill-opacity="1"><g transform="translate(180.398431, 206.249986)"><g><path d="M 7.125 0.328125 C 10.09375 0.328125 12.203125 -1.5625 12.203125 -4.8125 L 12.203125 -33.640625 C 12.203125 -36.875 10.09375 -38.765625 7.125 -38.765625 C 4.109375 -38.765625 2 -36.875 2 -33.640625 L 2 -4.8125 C 2 -1.5625 4.109375 0.328125 7.125 0.328125 Z M 3.71875 -31.703125 C 3.40625 -31.703125 3.234375 -32.296875 3.234375 -33.53125 C 3.234375 -36.078125 5.015625 -37.53125 7.34375 -37.53125 C 7.609375 -37.53125 7.78125 -37.375 7.78125 -37.203125 C 7.78125 -37.09375 7.671875 -36.9375 7.390625 -36.828125 C 5.453125 -36.1875 4.375 -35.09375 4.15625 -32.34375 C 4.109375 -31.96875 4 -31.703125 3.71875 -31.703125 Z M 3.71875 -31.703125 "/></g></g></g><g fill="#009ea2" fill-opacity="1"><g transform="translate(252.766159, 206.249986)"><g><path d="M 7.125 0.328125 C 10.09375 0.328125 12.203125 -1.5625 12.203125 -4.8125 L 12.203125 -19.875 L 12.3125 -19.875 L 26.78125 -3.078125 C 28.84375 -0.703125 30.078125 0.328125 32.34375 0.328125 C 35.265625 0.328125 37.265625 -1.5625 37.265625 -4.859375 L 37.265625 -33.640625 C 37.265625 -36.875 35.203125 -38.765625 32.1875 -38.765625 C 29.21875 -38.765625 27.046875 -36.875 27.046875 -33.640625 L 27.046875 -18.46875 L 26.953125 -18.46875 L 11.984375 -35.859375 C 10.265625 -37.859375 9.078125 -38.765625 6.796875 -38.765625 C 3.671875 -38.765625 2 -36.78125 2 -33.59375 L 2 -4.8125 C 2 -1.5625 4.109375 0.328125 7.125 0.328125 Z M 3.71875 -31.703125 C 3.40625 -31.703125 3.234375 -32.296875 3.234375 -33.53125 C 3.234375 -36.078125 4.59375 -37.53125 7.34375 -37.53125 C 7.609375 -37.53125 7.78125 -37.375 7.78125 -37.203125 C 7.78125 -37.046875 7.671875 -36.875 7.390625 -36.828125 C 4.96875 -36.34375 4.53125 -35.09375 4.15625 -32.34375 C 4.109375 -31.96875 4 -31.703125 3.71875 -31.703125 Z M 28.734375 -31.703125 C 28.40625 -31.703125 28.234375 -32.296875 28.234375 -33.53125 C 28.234375 -36.078125 30.03125 -37.53125 32.34375 -37.53125 C 32.609375 -37.53125 32.78125 -37.375 32.78125 -37.203125 C 32.78125 -37.09375 32.671875 -36.9375 32.40625 -36.828125 C 30.453125 -36.078125 29.484375 -35.09375 29.109375 -32.34375 C 29.046875 -31.96875 29 -31.703125 28.734375 -31.703125 Z M 28.734375 -31.703125 "/></g></g></g><g fill="#009ea2" fill-opacity="1"><g transform="translate(83.866801, 291.475397)"><g><path d="M 7.125 0.328125 C 10.09375 0.328125 12.203125 -1.5625 12.203125 -4.8125 L 12.203125 -19.875 L 12.3125 -19.875 L 26.78125 -3.078125 C 28.84375 -0.703125 30.078125 0.328125 32.34375 0.328125 C 35.265625 0.328125 37.265625 -1.5625 37.265625 -4.859375 L 37.265625 -33.640625 C 37.265625 -36.875 35.203125 -38.765625 32.1875 -38.765625 C 29.21875 -38.765625 27.046875 -36.875 27.046875 -33.640625 L 27.046875 -18.46875 L 26.953125 -18.46875 L 11.984375 -35.859375 C 10.265625 -37.859375 9.078125 -38.765625 6.796875 -38.765625 C 3.671875 -38.765625 2 -36.78125 2 -33.59375 L 2 -4.8125 C 2 -1.5625 4.109375 0.328125 7.125 0.328125 Z M 3.71875 -31.703125 C 3.40625 -31.703125 3.234375 -32.296875 3.234375 -33.53125 C 3.234375 -36.078125 4.59375 -37.53125 7.34375 -37.53125 C 7.609375 -37.53125 7.78125 -37.375 7.78125 -37.203125 C 7.78125 -37.046875 7.671875 -36.875 7.390625 -36.828125 C 4.96875 -36.34375 4.53125 -35.09375 4.15625 -32.34375 C 4.109375 -31.96875 4 -31.703125 3.71875 -31.703125 Z M 28.734375 -31.703125 C 28.40625 -31.703125 28.234375 -32.296875 28.234375 -33.53125 C 28.234375 -36.078125 30.03125 -37.53125 32.34375 -37.53125 C 32.609375 -37.53125 32.78125 -37.375 32.78125 -37.203125 C 32.78125 -37.09375 32.671875 -36.9375 32.40625 -36.828125 C 30.453125 -36.078125 29.484375 -35.09375 29.109375 -32.34375 C 29.046875 -31.96875 29 -31.703125 28.734375 -31.703125 Z M 28.734375 -31.703125 "/></g></g></g><g fill="#009ea2" fill-opacity="1"><g transform="translate(174.40429, 291.475397)"><g><path d="M 6.859375 0 L 21 0 C 23.875 0 25.859375 -1.890625 25.859375 -4.75 C 25.859375 -7.78125 23.921875 -9.453125 20.953125 -9.453125 L 12.203125 -9.453125 L 12.203125 -14.640625 L 19.921875 -14.640625 C 22.890625 -14.640625 24.78125 -16.421875 24.78125 -19.390625 C 24.78125 -22.359375 22.78125 -24.140625 19.921875 -24.140625 L 12.15625 -24.140625 L 12.15625 -29 L 20.734375 -29 C 23.546875 -29 25.59375 -30.671875 25.59375 -33.703125 C 25.59375 -36.5625 23.546875 -38.453125 20.734375 -38.453125 L 6.859375 -38.453125 C 4.3125 -38.453125 2 -36.234375 2 -33.484375 L 2 -4.96875 C 2 -2.15625 4.3125 0 6.859375 0 Z M 3.71875 -31.15625 C 3.40625 -31.15625 3.234375 -31.75 3.234375 -33 C 3.234375 -35.90625 5.015625 -37.265625 7.34375 -37.265625 L 20.84375 -37.265625 C 21.28125 -37.265625 21.65625 -36.984375 21.65625 -36.71875 C 21.65625 -36.390625 21.28125 -36.125 20.84375 -36.125 L 7.78125 -36.125 C 5.515625 -36.125 4.375 -34.984375 4.109375 -31.8125 C 4.046875 -31.421875 4 -31.15625 3.71875 -31.15625 Z M 13.765625 -21.765625 C 13.34375 -21.765625 12.953125 -22.03125 12.953125 -22.359375 C 12.953125 -22.6875 13.34375 -22.890625 13.765625 -22.890625 L 19.765625 -22.890625 C 20.203125 -22.890625 20.578125 -22.625 20.578125 -22.359375 C 20.578125 -22.03125 20.203125 -21.765625 19.765625 -21.765625 Z M 13.765625 -7.078125 C 13.34375 -7.078125 12.953125 -7.34375 12.953125 -7.671875 C 12.953125 -7.984375 13.34375 -8.203125 13.765625 -8.203125 L 20.84375 -8.203125 C 21.28125 -8.203125 21.65625 -7.9375 21.65625 -7.671875 C 21.65625 -7.34375 21.28125 -7.078125 20.84375 -7.078125 Z M 13.765625 -7.078125 "/></g></g></g><g fill="#009ea2" fill-opacity="1"><g transform="translate(256.193894, 291.475397)"><g><path d="M 7.125 0.328125 C 10.09375 0.328125 12.203125 -1.5625 12.203125 -4.8125 L 12.203125 -14.90625 L 12.3125 -14.90625 L 21.28125 -2.8125 C 23 -0.484375 24.5625 0.328125 26.40625 0.328125 C 30.125 0.328125 31.859375 -2.265625 31.859375 -4.484375 C 31.859375 -6.15625 30.828125 -7.609375 29.703125 -8.859375 L 23.59375 -15.5 L 23.921875 -15.609375 C 29.21875 -17.390625 31.3125 -21.8125 31.3125 -26.03125 C 31.3125 -33.703125 25.859375 -38.453125 18.140625 -38.453125 L 6.859375 -38.453125 C 4.3125 -38.453125 2 -36.28125 2 -33.484375 L 2 -4.8125 C 2 -1.5625 4.109375 0.328125 7.125 0.328125 Z M 3.71875 -31.15625 C 3.40625 -31.15625 3.234375 -31.75 3.234375 -33 C 3.234375 -35.53125 5.125 -37.265625 7.296875 -37.265625 L 19.21875 -37.265625 C 20.09375 -37.265625 20.734375 -37.046875 20.734375 -36.71875 C 20.734375 -36.390625 19.328125 -36.125 16.734375 -36.125 L 7.78125 -36.125 C 5.515625 -36.125 4.375 -34.984375 4.109375 -31.8125 C 4.046875 -31.421875 4 -31.15625 3.71875 -31.15625 Z M 12.203125 -22.296875 L 12.203125 -29 L 17.8125 -29 C 19.328125 -29 21.109375 -27.96875 21.109375 -25.8125 C 21.109375 -23.703125 19.703125 -22.296875 17.8125 -22.296875 Z M 13.765625 -19.921875 C 13.34375 -19.921875 12.953125 -20.203125 12.953125 -20.515625 C 12.953125 -20.84375 13.34375 -21.0625 13.765625 -21.0625 L 18.140625 -21.0625 C 20.84375 -21.0625 21.328125 -22.6875 21.703125 -22.734375 C 21.984375 -22.78125 22.09375 -22.625 22.09375 -22.40625 C 22.09375 -21.65625 20.6875 -19.921875 18.625 -19.921875 Z M 13.765625 -19.921875 "/></g></g></g><g fill="#e63f45" fill-opacity="1"><g transform="translate(174.294862, 101.912168)"><g><path d="M -0.234375 5.015625 C -0.234375 7.109375 1.109375 8.59375 3.390625 8.59375 L 23.6875 8.59375 C 25.96875 8.59375 27.296875 7.109375 27.296875 5.015625 C 27.296875 2.890625 25.96875 1.40625 23.6875 1.40625 L 3.390625 1.40625 C 1.109375 1.40625 -0.234375 2.890625 -0.234375 5.015625 Z M 22.3125 2.625 C 22.3125 2.390625 22.734375 2.28125 23.609375 2.28125 C 25.390625 2.28125 26.421875 3.53125 26.421875 5.171875 C 26.421875 5.359375 26.3125 5.46875 26.1875 5.46875 C 26.109375 5.46875 26 5.390625 25.921875 5.203125 C 25.46875 3.84375 24.703125 3.078125 22.765625 2.921875 C 22.5 2.890625 22.3125 2.8125 22.3125 2.625 Z M 22.3125 2.625 "/></g></g></g></svg>