<svg xmlns="http://www.w3.org/2000/svg" xmlns:xlink="http://www.w3.org/1999/xlink" width="500" zoomAndPan="magnify" viewBox="0 0 375 374.999991" height="500" preserveAspectRatio="xMidYMid meet" version="1.0"><defs><clipPath id="dc8eaa5eb8"><path d="M 33.03125 33.03125 L 342 33.03125 L 342 342 L 33.03125 342 Z M 33.03125 33.03125 " clip-rule="nonzero"/></clipPath><clipPath id="8751c0c951"><path d="M 54.371094 54.371094 L 320.621094 54.371094 L 320.621094 320.621094 L 54.371094 320.621094 Z M 54.371094 54.371094 " clip-rule="nonzero"/></clipPath><clipPath id="0343a4f84b"><path d="M 62.339844 62.339844 L 312.839844 62.339844 L 312.839844 312.839844 L 62.339844 312.839844 Z M 62.339844 62.339844 " clip-rule="nonzero"/></clipPath></defs><path fill="#12cdc0" d="M 187.5 0 C 83.90625 0 0 83.90625 0 187.5 C 0 291.09375 83.90625 375 187.5 375 C 291.09375 375 375 291.09375 375 187.5 C 375 83.90625 291.09375 0 187.5 0 Z M 187.5 337.5 C 104.625 337.5 37.5 270.375 37.5 187.5 C 37.5 104.625 104.625 37.5 187.5 37.5 C 270.375 37.5 337.5 104.625 337.5 187.5 C 337.5 270.375 270.375 337.5 187.5 337.5 Z M 187.5 337.5 " fill-opacity="1" fill-rule="nonzero"/><g clip-path="url(#dc8eaa5eb8)"><path fill="#12cdc0" d="M 187.496094 33.03125 C 102.15625 33.03125 33.03125 102.15625 33.03125 187.496094 C 33.03125 272.839844 102.15625 341.960938 187.496094 341.960938 C 272.839844 341.960938 341.960938 272.839844 341.960938 187.496094 C 341.960938 102.15625 272.839844 33.03125 187.496094 33.03125 Z M 187.496094 311.070312 C 119.222656 311.070312 63.925781 255.769531 63.925781 187.496094 C 63.925781 119.222656 119.222656 63.925781 187.496094 63.925781 C 255.769531 63.925781 311.070312 119.222656 311.070312 187.496094 C 311.070312 255.769531 255.769531 311.070312 187.496094 311.070312 Z M 187.496094 311.070312 " fill-opacity="1" fill-rule="nonzero"/></g><g clip-path="url(#8751c0c951)"><path fill="#12cdc0" d="M 187.496094 54.371094 C 113.941406 54.371094 54.371094 113.941406 54.371094 187.496094 C 54.371094 261.046875 113.941406 320.621094 187.496094 320.621094 C 261.046875 320.621094 320.621094 261.046875 320.621094 187.496094 C 320.621094 113.941406 261.046875 54.371094 187.496094 54.371094 Z M 187.496094 293.996094 C 128.652344 293.996094 80.996094 246.335938 80.996094 187.496094 C 80.996094 128.652344 128.652344 80.996094 187.496094 80.996094 C 246.335938 80.996094 293.996094 128.652344 293.996094 187.496094 C 293.996094 246.335938 246.335938 293.996094 187.496094 293.996094 Z M 187.496094 293.996094 " fill-opacity="1" fill-rule="nonzero"/></g><g clip-path="url(#0343a4f84b)"><path fill="#12cdc0" d="M 187.496094 62.339844 C 118.34375 62.339844 62.339844 118.34375 62.339844 187.496094 C 62.339844 256.644531 118.34375 312.652344 187.496094 312.652344 C 256.644531 312.652344 312.652344 256.644531 312.652344 187.496094 C 312.652344 118.34375 256.644531 62.339844 187.496094 62.339844 Z M 187.496094 287.621094 C 132.175781 287.621094 87.371094 242.8125 87.371094 187.496094 C 87.371094 132.175781 132.175781 87.371094 187.496094 87.371094 C 242.8125 87.371094 287.621094 132.175781 287.621094 187.496094 C 287.621094 242.8125 242.8125 287.621094 187.496094 287.621094 Z M 187.496094 287.621094 " fill-opacity="1" fill-rule="nonzero"/></g></svg>