<svg xmlns="http://www.w3.org/2000/svg" xmlns:xlink="http://www.w3.org/1999/xlink" width="145" zoomAndPan="magnify" viewBox="0 0 108.75 101.999999" height="136" preserveAspectRatio="xMidYMid meet" version="1.0"><defs><filter x="0%" y="0%" width="100%" height="100%" id="b6d7ff98e5"><feColorMatrix values="0 0 0 0 1 0 0 0 0 1 0 0 0 0 1 0 0 0 1 0" color-interpolation-filters="sRGB"/></filter><clipPath id="408b430baf"><path d="M 0 0.117188 L 108.5 0.117188 L 108.5 101.882812 L 0 101.882812 Z M 0 0.117188 " clip-rule="nonzero"/></clipPath><clipPath id="644b5deaa8"><path d="M 9.726562 0.117188 L 98.773438 0.117188 C 104.144531 0.117188 108.5 4.472656 108.5 9.84375 L 108.5 92.15625 C 108.5 97.527344 104.144531 101.882812 98.773438 101.882812 L 9.726562 101.882812 C 4.355469 101.882812 0 97.527344 0 92.15625 L 0 9.84375 C 0 4.472656 4.355469 0.117188 9.726562 0.117188 Z M 9.726562 0.117188 " clip-rule="nonzero"/></clipPath><mask id="ad16fc1825"><g filter="url(#b6d7ff98e5)"><rect x="-10.875" width="130.5" fill="#000000" y="-10.2" height="122.399999" fill-opacity="0.41"/></g></mask><clipPath id="7c89008c4a"><path d="M 3.507812 3.464844 L 16.644531 3.464844 L 16.644531 6.304688 L 3.507812 6.304688 Z M 3.507812 3.464844 " clip-rule="nonzero"/></clipPath><clipPath id="a1928a0844"><path d="M 4.167969 4.175781 C 16.382812 3.664062 16.636719 4.089844 16.636719 4.34375 C 16.636719 4.601562 15.746094 5.113281 15.617188 5.027344 C 15.492188 4.855469 15.683594 3.578125 15.875 3.492188 C 16.0625 3.40625 16.574219 3.917969 16.636719 4.261719 C 16.636719 4.515625 16.445312 4.941406 16.0625 5.199219 C 14.664062 6.136719 5.570312 6.734375 4.167969 5.882812 C 3.722656 5.625 3.535156 5.199219 3.535156 4.855469 C 3.535156 4.601562 4.167969 4.175781 4.167969 4.175781 " clip-rule="nonzero"/></clipPath><clipPath id="77080de62d"><rect x="0" width="20" y="0" height="10"/></clipPath><clipPath id="5d3c8eee57"><path d="M 51 0.117188 L 103 0.117188 L 103 13 L 51 13 Z M 51 0.117188 " clip-rule="nonzero"/></clipPath><mask id="d90293b04f"><g filter="url(#b6d7ff98e5)"><rect x="-10.875" width="130.5" fill="#000000" y="-10.2" height="122.399999" fill-opacity="0.41"/></g></mask><clipPath id="c8a5be5dc2"><path d="M 2.40625 4.417969 L 49.234375 4.417969 L 49.234375 8.769531 L 2.40625 8.769531 Z M 2.40625 4.417969 " clip-rule="nonzero"/></clipPath><clipPath id="4f463afb9d"><path d="M 3.027344 4.945312 C 43.785156 4.253906 45.1875 4.253906 46.648438 4.945312 C 47.699219 5.4375 49.101562 6.324219 49.214844 7.113281 C 49.273438 7.605469 48.691406 8.6875 48.515625 8.589844 C 48.398438 8.589844 48.222656 7.308594 48.339844 7.015625 C 48.457031 6.71875 49.101562 6.71875 49.15625 7.015625 C 49.273438 7.210938 49.042969 8.492188 48.808594 8.6875 C 48.398438 8.984375 47.464844 7.308594 46.53125 6.914062 C 45.128906 6.324219 43.726562 6.226562 41.042969 6.027344 C 34.09375 5.535156 5.832031 8.589844 3.027344 6.914062 C 2.675781 6.621094 2.503906 6.324219 2.445312 6.027344 C 2.445312 5.734375 3.027344 4.945312 3.027344 4.945312 " clip-rule="nonzero"/></clipPath><clipPath id="350bd24f48"><rect x="0" width="52" y="0" height="13"/></clipPath><clipPath id="5298b17bc8"><path d="M 4 0.117188 L 34 0.117188 L 34 13 L 4 13 Z M 4 0.117188 " clip-rule="nonzero"/></clipPath><mask id="796955ee79"><g filter="url(#b6d7ff98e5)"><rect x="-10.875" width="130.5" fill="#000000" y="-10.2" height="122.399999" fill-opacity="0.41"/></g></mask><clipPath id="d67fadcbe9"><path d="M 2.476562 4.132812 L 27 4.132812 L 27 9 L 2.476562 9 Z M 2.476562 4.132812 " clip-rule="nonzero"/></clipPath><clipPath id="3a779dea49"><path d="M 26.320312 6.730469 C 7.34375 6.359375 6.703125 6.359375 5.765625 6.824219 C 4.773438 7.289062 3.429688 9.242188 2.964844 8.964844 C 2.671875 8.871094 2.4375 7.847656 2.496094 7.660156 C 2.613281 7.382812 3.546875 7.566406 3.605469 7.753906 C 3.605469 8.03125 2.964844 9.054688 2.847656 8.964844 C 2.671875 8.871094 2.496094 7.941406 2.613281 7.476562 C 2.789062 6.730469 3.957031 5.894531 4.832031 5.335938 C 5.882812 4.777344 6.933594 4.589844 8.6875 4.402344 C 12.132812 3.9375 21.53125 4.21875 24.453125 4.589844 C 25.5625 4.683594 26.378906 4.589844 26.730469 5.054688 C 26.964844 5.335938 27.023438 5.984375 26.90625 6.265625 C 26.847656 6.542969 26.320312 6.730469 26.320312 6.730469 " clip-rule="nonzero"/></clipPath><clipPath id="29d9f6d161"><rect x="0" width="30" y="0" height="13"/></clipPath><clipPath id="174133f548"><path d="M 25.5 25.574219 L 83.117188 25.574219 L 83.117188 83.191406 L 25.5 83.191406 Z M 25.5 25.574219 " clip-rule="nonzero"/></clipPath><clipPath id="f8226b3906"><path d="M 38.351562 38.425781 L 69.777344 38.425781 L 69.777344 69.851562 L 38.351562 69.851562 Z M 38.351562 38.425781 " clip-rule="nonzero"/></clipPath></defs><g clip-path="url(#408b430baf)"><g clip-path="url(#644b5deaa8)"><path fill="#5e738a" d="M 0 0.117188 L 108.523438 0.117188 L 108.523438 101.882812 L 0 101.882812 Z M 0 0.117188 " fill-opacity="1" fill-rule="nonzero"/></g></g><g mask="url(#ad16fc1825)"><g transform="matrix(1, 0, 0, 1, 33, 1)"><g clip-path="url(#77080de62d)"><g clip-path="url(#7c89008c4a)"><g clip-path="url(#a1928a0844)"><path fill="#ffffff" d="M 0.988281 0.078125 L 19.238281 0.078125 L 19.238281 9.292969 L 0.988281 9.292969 Z M 0.988281 0.078125 " fill-opacity="1" fill-rule="nonzero"/></g></g></g></g></g><g clip-path="url(#5d3c8eee57)"><g mask="url(#d90293b04f)"><g transform="matrix(1, 0, 0, 1, 51, -0.000000000000002595)"><g clip-path="url(#350bd24f48)"><g clip-path="url(#c8a5be5dc2)"><g clip-path="url(#4f463afb9d)"><path fill="#ffffff" d="M 0.109375 0.117188 L 51.53125 0.117188 L 51.53125 12.628906 L 0.109375 12.628906 Z M 0.109375 0.117188 " fill-opacity="1" fill-rule="nonzero"/></g></g></g></g></g></g><g clip-path="url(#5298b17bc8)"><g mask="url(#796955ee79)"><g transform="matrix(1, 0, 0, 1, 4, -0.000000000000002554)"><g clip-path="url(#29d9f6d161)"><g clip-path="url(#d67fadcbe9)"><g clip-path="url(#3a779dea49)"><path fill="#ffffff" d="M 0.160156 0.679688 L 29.222656 0.679688 L 29.222656 12.777344 L 0.160156 12.777344 Z M 0.160156 0.679688 " fill-opacity="1" fill-rule="nonzero"/></g></g></g></g></g></g><g clip-path="url(#174133f548)"><path fill="#ffffff" d="M 83.117188 54.382812 C 83.117188 55.324219 83.070312 56.265625 82.976562 57.207031 C 82.882812 58.144531 82.746094 59.078125 82.5625 60 C 82.378906 60.925781 82.148438 61.839844 81.875 62.746094 C 81.601562 63.648438 81.285156 64.535156 80.921875 65.40625 C 80.5625 66.277344 80.160156 67.128906 79.714844 67.960938 C 79.269531 68.792969 78.785156 69.601562 78.261719 70.386719 C 77.738281 71.171875 77.175781 71.929688 76.578125 72.65625 C 75.976562 73.386719 75.34375 74.085938 74.679688 74.753906 C 74.011719 75.417969 73.3125 76.050781 72.582031 76.652344 C 71.855469 77.25 71.097656 77.8125 70.3125 78.335938 C 69.527344 78.859375 68.71875 79.34375 67.886719 79.789062 C 67.054688 80.234375 66.203125 80.636719 65.332031 80.996094 C 64.460938 81.359375 63.574219 81.675781 62.667969 81.949219 C 61.765625 82.222656 60.851562 82.453125 59.925781 82.636719 C 59.003906 82.820312 58.070312 82.960938 57.132812 83.050781 C 56.191406 83.144531 55.25 83.191406 54.308594 83.191406 C 53.363281 83.191406 52.421875 83.144531 51.484375 83.050781 C 50.542969 82.960938 49.613281 82.820312 48.6875 82.636719 C 47.761719 82.453125 46.847656 82.222656 45.945312 81.949219 C 45.042969 81.675781 44.152344 81.359375 43.28125 80.996094 C 42.410156 80.636719 41.558594 80.234375 40.726562 79.789062 C 39.894531 79.34375 39.085938 78.859375 38.300781 78.335938 C 37.515625 77.8125 36.761719 77.25 36.03125 76.652344 C 35.300781 76.050781 34.601562 75.417969 33.9375 74.753906 C 33.269531 74.085938 32.636719 73.386719 32.039062 72.65625 C 31.4375 71.929688 30.878906 71.171875 30.355469 70.386719 C 29.828125 69.601562 29.34375 68.792969 28.898438 67.960938 C 28.457031 67.128906 28.050781 66.277344 27.691406 65.40625 C 27.332031 64.535156 27.011719 63.648438 26.738281 62.746094 C 26.464844 61.839844 26.234375 60.925781 26.050781 60 C 25.867188 59.078125 25.730469 58.144531 25.636719 57.207031 C 25.542969 56.265625 25.5 55.324219 25.5 54.382812 C 25.5 53.4375 25.542969 52.496094 25.636719 51.558594 C 25.730469 50.617188 25.867188 49.6875 26.050781 48.761719 C 26.234375 47.835938 26.464844 46.921875 26.738281 46.019531 C 27.011719 45.117188 27.332031 44.226562 27.691406 43.355469 C 28.050781 42.484375 28.457031 41.632812 28.898438 40.800781 C 29.34375 39.96875 29.828125 39.160156 30.355469 38.375 C 30.878906 37.589844 31.4375 36.835938 32.039062 36.105469 C 32.636719 35.375 33.269531 34.679688 33.9375 34.011719 C 34.601562 33.34375 35.300781 32.710938 36.03125 32.113281 C 36.761719 31.511719 37.515625 30.953125 38.300781 30.429688 C 39.085938 29.902344 39.894531 29.417969 40.726562 28.972656 C 41.558594 28.53125 42.410156 28.125 43.28125 27.765625 C 44.152344 27.40625 45.042969 27.085938 45.945312 26.8125 C 46.847656 26.539062 47.761719 26.308594 48.6875 26.125 C 49.613281 25.941406 50.542969 25.804688 51.484375 25.710938 C 52.421875 25.617188 53.363281 25.574219 54.308594 25.574219 C 55.25 25.574219 56.191406 25.617188 57.132812 25.710938 C 58.070312 25.804688 59.003906 25.941406 59.925781 26.125 C 60.851562 26.308594 61.765625 26.539062 62.667969 26.8125 C 63.574219 27.085938 64.460938 27.40625 65.332031 27.765625 C 66.203125 28.125 67.054688 28.53125 67.886719 28.972656 C 68.71875 29.417969 69.527344 29.902344 70.3125 30.429688 C 71.097656 30.953125 71.855469 31.511719 72.582031 32.113281 C 73.3125 32.710938 74.011719 33.34375 74.679688 34.011719 C 75.34375 34.679688 75.976562 35.375 76.578125 36.105469 C 77.175781 36.835938 77.738281 37.589844 78.261719 38.375 C 78.785156 39.160156 79.269531 39.96875 79.714844 40.800781 C 80.160156 41.632812 80.5625 42.484375 80.921875 43.355469 C 81.285156 44.226562 81.601562 45.117188 81.875 46.019531 C 82.148438 46.921875 82.378906 47.835938 82.5625 48.761719 C 82.746094 49.6875 82.882812 50.617188 82.976562 51.558594 C 83.070312 52.496094 83.117188 53.4375 83.117188 54.382812 Z M 83.117188 54.382812 " fill-opacity="1" fill-rule="nonzero"/></g><g clip-path="url(#f8226b3906)"><path fill="#5e738a" d="M 70.140625 54.320312 C 70.140625 54.839844 70.117188 55.359375 70.066406 55.878906 C 70.015625 56.398438 69.9375 56.910156 69.835938 57.421875 C 69.734375 57.933594 69.609375 58.4375 69.457031 58.933594 C 69.304688 59.433594 69.128906 59.921875 68.929688 60.402344 C 68.730469 60.882812 68.511719 61.355469 68.265625 61.8125 C 68.019531 62.273438 67.75 62.71875 67.460938 63.152344 C 67.171875 63.585938 66.863281 64.003906 66.535156 64.40625 C 66.203125 64.808594 65.855469 65.191406 65.484375 65.558594 C 65.117188 65.929688 64.734375 66.277344 64.332031 66.609375 C 63.925781 66.9375 63.511719 67.246094 63.078125 67.535156 C 62.644531 67.828125 62.199219 68.09375 61.738281 68.339844 C 61.28125 68.585938 60.808594 68.804688 60.328125 69.003906 C 59.847656 69.203125 59.359375 69.378906 58.859375 69.53125 C 58.363281 69.683594 57.859375 69.808594 57.347656 69.910156 C 56.835938 70.011719 56.324219 70.089844 55.804688 70.140625 C 55.285156 70.191406 54.765625 70.214844 54.246094 70.214844 C 53.726562 70.214844 53.207031 70.191406 52.6875 70.140625 C 52.171875 70.089844 51.65625 70.011719 51.144531 69.910156 C 50.636719 69.808594 50.128906 69.683594 49.632812 69.53125 C 49.132812 69.378906 48.644531 69.203125 48.164062 69.003906 C 47.683594 68.804688 47.210938 68.585938 46.753906 68.339844 C 46.292969 68.09375 45.847656 67.828125 45.414062 67.535156 C 44.984375 67.246094 44.566406 66.9375 44.164062 66.609375 C 43.761719 66.277344 43.375 65.929688 43.007812 65.558594 C 42.640625 65.191406 42.289062 64.808594 41.960938 64.40625 C 41.628906 64.003906 41.320312 63.585938 41.03125 63.152344 C 40.742188 62.71875 40.472656 62.273438 40.226562 61.8125 C 39.984375 61.355469 39.761719 60.882812 39.5625 60.402344 C 39.363281 59.921875 39.1875 59.433594 39.035156 58.933594 C 38.882812 58.4375 38.757812 57.933594 38.65625 57.421875 C 38.554688 56.910156 38.480469 56.398438 38.429688 55.878906 C 38.375 55.359375 38.351562 54.839844 38.351562 54.320312 C 38.351562 53.800781 38.375 53.28125 38.429688 52.761719 C 38.480469 52.246094 38.554688 51.730469 38.65625 51.21875 C 38.757812 50.710938 38.882812 50.203125 39.035156 49.707031 C 39.1875 49.207031 39.363281 48.71875 39.5625 48.238281 C 39.761719 47.757812 39.984375 47.285156 40.226562 46.828125 C 40.472656 46.367188 40.742188 45.921875 41.03125 45.488281 C 41.320312 45.058594 41.628906 44.640625 41.960938 44.238281 C 42.289062 43.835938 42.640625 43.449219 43.007812 43.082031 C 43.375 42.714844 43.761719 42.363281 44.164062 42.035156 C 44.566406 41.703125 44.984375 41.394531 45.414062 41.105469 C 45.847656 40.816406 46.292969 40.546875 46.753906 40.300781 C 47.210938 40.058594 47.683594 39.835938 48.164062 39.636719 C 48.644531 39.4375 49.132812 39.261719 49.632812 39.109375 C 50.128906 38.957031 50.636719 38.832031 51.144531 38.730469 C 51.65625 38.628906 52.171875 38.554688 52.6875 38.503906 C 53.207031 38.449219 53.726562 38.425781 54.246094 38.425781 C 54.765625 38.425781 55.285156 38.449219 55.804688 38.503906 C 56.324219 38.554688 56.835938 38.628906 57.347656 38.730469 C 57.859375 38.832031 58.363281 38.957031 58.859375 39.109375 C 59.359375 39.261719 59.847656 39.4375 60.328125 39.636719 C 60.808594 39.835938 61.28125 40.058594 61.738281 40.300781 C 62.199219 40.546875 62.644531 40.816406 63.078125 41.105469 C 63.511719 41.394531 63.925781 41.703125 64.332031 42.035156 C 64.734375 42.363281 65.117188 42.714844 65.484375 43.082031 C 65.855469 43.449219 66.203125 43.835938 66.535156 44.238281 C 66.863281 44.640625 67.171875 45.058594 67.460938 45.488281 C 67.75 45.921875 68.019531 46.367188 68.265625 46.828125 C 68.511719 47.285156 68.730469 47.757812 68.929688 48.238281 C 69.128906 48.71875 69.304688 49.207031 69.457031 49.707031 C 69.609375 50.203125 69.734375 50.710938 69.835938 51.21875 C 69.9375 51.730469 70.015625 52.246094 70.066406 52.761719 C 70.117188 53.28125 70.140625 53.800781 70.140625 54.320312 Z M 70.140625 54.320312 " fill-opacity="1" fill-rule="nonzero"/></g></svg>