<svg xmlns="http://www.w3.org/2000/svg" xmlns:xlink="http://www.w3.org/1999/xlink" width="145" zoomAndPan="magnify" viewBox="0 0 108.75 101.999999" height="136" preserveAspectRatio="xMidYMid meet" version="1.0"><defs><filter x="0%" y="0%" width="100%" height="100%" id="b647c5a9df"><feColorMatrix values="0 0 0 0 1 0 0 0 0 1 0 0 0 0 1 0 0 0 1 0" color-interpolation-filters="sRGB"/></filter><clipPath id="9934c6e10d"><path d="M 0 0.117188 L 108.5 0.117188 L 108.5 101.882812 L 0 101.882812 Z M 0 0.117188 " clip-rule="nonzero"/></clipPath><clipPath id="a6d7ce1c1c"><path d="M 9.726562 0.117188 L 98.773438 0.117188 C 104.144531 0.117188 108.5 4.472656 108.5 9.84375 L 108.5 92.15625 C 108.5 97.527344 104.144531 101.882812 98.773438 101.882812 L 9.726562 101.882812 C 4.355469 101.882812 0 97.527344 0 92.15625 L 0 9.84375 C 0 4.472656 4.355469 0.117188 9.726562 0.117188 Z M 9.726562 0.117188 " clip-rule="nonzero"/></clipPath><mask id="b3be73d7fb"><g filter="url(#b647c5a9df)"><rect x="-10.875" width="130.5" fill="#000000" y="-10.2" height="122.399999" fill-opacity="0.41"/></g></mask><clipPath id="8833e389c8"><path d="M 3.480469 4.199219 L 15.949219 4.199219 L 15.949219 7.019531 L 3.480469 7.019531 Z M 3.480469 4.199219 " clip-rule="nonzero"/></clipPath><clipPath id="2c1b6da8d2"><path d="M 4.101562 4.90625 C 15.675781 4.398438 15.914062 4.820312 15.914062 5.074219 C 15.914062 5.328125 15.070312 5.835938 14.949219 5.75 C 14.828125 5.582031 15.011719 4.3125 15.191406 4.226562 C 15.371094 4.140625 15.855469 4.652344 15.914062 4.988281 C 15.914062 5.242188 15.734375 5.667969 15.371094 5.921875 C 14.046875 6.851562 5.425781 7.445312 4.101562 6.597656 C 3.679688 6.34375 3.496094 5.921875 3.496094 5.582031 C 3.496094 5.328125 4.101562 4.90625 4.101562 4.90625 " clip-rule="nonzero"/></clipPath><clipPath id="8b518b0dc0"><rect x="0" width="19" y="0" height="11"/></clipPath><mask id="f4fc2c9aa1"><g filter="url(#b647c5a9df)"><rect x="-10.875" width="130.5" fill="#000000" y="-10.2" height="122.399999" fill-opacity="0.41"/></g></mask><clipPath id="ad5ec86c04"><path d="M 2.769531 4.472656 L 51.09375 4.472656 L 51.09375 8.789062 L 2.769531 8.789062 Z M 2.769531 4.472656 " clip-rule="nonzero"/></clipPath><clipPath id="bc78d22ab9"><path d="M 3.40625 4.996094 C 45.480469 4.308594 46.925781 4.308594 48.433594 4.996094 C 49.519531 5.484375 50.964844 6.363281 51.085938 7.144531 C 51.148438 7.636719 50.542969 8.710938 50.363281 8.613281 C 50.242188 8.613281 50.0625 7.339844 50.183594 7.046875 C 50.304688 6.753906 50.964844 6.753906 51.027344 7.046875 C 51.148438 7.242188 50.90625 8.515625 50.664062 8.710938 C 50.242188 9.003906 49.277344 7.339844 48.3125 6.949219 C 46.867188 6.363281 45.421875 6.265625 42.648438 6.070312 C 35.472656 5.582031 6.300781 8.613281 3.40625 6.949219 C 3.042969 6.65625 2.863281 6.363281 2.804688 6.070312 C 2.804688 5.777344 3.40625 4.996094 3.40625 4.996094 " clip-rule="nonzero"/></clipPath><clipPath id="e12bce42df"><rect x="0" width="54" y="0" height="13"/></clipPath><mask id="59edb96b9d"><g filter="url(#b647c5a9df)"><rect x="-10.875" width="130.5" fill="#000000" y="-10.2" height="122.399999" fill-opacity="0.41"/></g></mask><clipPath id="e55a2bffac"><path d="M 2.460938 4.1875 L 27.742188 4.1875 L 27.742188 9.019531 L 2.460938 9.019531 Z M 2.460938 4.1875 " clip-rule="nonzero"/></clipPath><clipPath id="e7154a347d"><path d="M 27.074219 6.765625 C 7.480469 6.398438 6.820312 6.398438 5.855469 6.859375 C 4.828125 7.320312 3.445312 9.261719 2.960938 8.984375 C 2.660156 8.890625 2.417969 7.875 2.480469 7.691406 C 2.601562 7.414062 3.5625 7.597656 3.625 7.78125 C 3.625 8.058594 2.960938 9.074219 2.839844 8.984375 C 2.660156 8.890625 2.480469 7.96875 2.601562 7.503906 C 2.78125 6.765625 3.984375 5.933594 4.890625 5.382812 C 5.976562 4.828125 7.058594 4.640625 8.867188 4.457031 C 12.425781 3.996094 22.128906 4.273438 25.144531 4.640625 C 26.289062 4.734375 27.132812 4.640625 27.496094 5.105469 C 27.734375 5.382812 27.796875 6.027344 27.675781 6.304688 C 27.613281 6.582031 27.074219 6.765625 27.074219 6.765625 " clip-rule="nonzero"/></clipPath><clipPath id="42bc2768fb"><rect x="0" width="31" y="0" height="14"/></clipPath><clipPath id="c7fe754ad8"><path d="M 27 27 L 81 27 L 81 81 L 27 81 Z M 27 27 " clip-rule="nonzero"/></clipPath><clipPath id="216d52f0c2"><path d="M 35.46875 24.253906 L 84.136719 72.921875 L 72.730469 84.332031 L 24.0625 35.664062 Z M 35.46875 24.253906 " clip-rule="nonzero"/></clipPath><clipPath id="864f9cd5c9"><path d="M 41.175781 29.957031 L 78.402344 67.1875 C 81.554688 70.335938 81.554688 75.445312 78.402344 78.59375 C 75.253906 81.746094 70.144531 81.746094 66.992188 78.59375 L 29.765625 41.367188 C 26.613281 38.214844 26.613281 33.109375 29.765625 29.957031 C 32.917969 26.808594 38.023438 26.808594 41.175781 29.957031 Z M 41.175781 29.957031 " clip-rule="nonzero"/></clipPath><clipPath id="f0e53b544f"><path d="M 27 27 L 81 27 L 81 81 L 27 81 Z M 27 27 " clip-rule="nonzero"/></clipPath><clipPath id="56d12ca610"><path d="M 24.226562 72.890625 L 72.894531 24.222656 L 84.304688 35.632812 L 35.636719 84.300781 Z M 24.226562 72.890625 " clip-rule="nonzero"/></clipPath><clipPath id="8a2adf09de"><path d="M 29.929688 67.183594 L 67.160156 29.957031 C 70.308594 26.804688 75.417969 26.804688 78.570312 29.957031 C 81.71875 33.105469 81.71875 38.214844 78.570312 41.367188 L 41.339844 78.59375 C 38.191406 81.746094 33.082031 81.746094 29.929688 78.59375 C 26.78125 75.445312 26.78125 70.335938 29.929688 67.183594 Z M 29.929688 67.183594 " clip-rule="nonzero"/></clipPath></defs><g clip-path="url(#9934c6e10d)"><g clip-path="url(#a6d7ce1c1c)"><path fill="#5e738a" d="M 0 0.117188 L 108.523438 0.117188 L 108.523438 101.882812 L 0 101.882812 Z M 0 0.117188 " fill-opacity="1" fill-rule="nonzero"/></g></g><g mask="url(#b3be73d7fb)"><g transform="matrix(1, 0, 0, 1, 34, 2)"><g clip-path="url(#8b518b0dc0)"><g clip-path="url(#8833e389c8)"><g clip-path="url(#2c1b6da8d2)"><path fill="#ffffff" d="M 1.085938 0.839844 L 18.375 0.839844 L 18.375 9.984375 L 1.085938 9.984375 Z M 1.085938 0.839844 " fill-opacity="1" fill-rule="nonzero"/></g></g></g></g></g><g mask="url(#f4fc2c9aa1)"><g transform="matrix(1, 0, 0, 1, 50, 1)"><g clip-path="url(#e12bce42df)"><g clip-path="url(#ad5ec86c04)"><g clip-path="url(#bc78d22ab9)"><path fill="#ffffff" d="M 0.390625 0.203125 L 53.519531 0.203125 L 53.519531 12.621094 L 0.390625 12.621094 Z M 0.390625 0.203125 " fill-opacity="1" fill-rule="nonzero"/></g></g></g></g></g><g mask="url(#59edb96b9d)"><g transform="matrix(1, 0, 0, 1, 5, 1)"><g clip-path="url(#42bc2768fb)"><g clip-path="url(#e55a2bffac)"><g clip-path="url(#e7154a347d)"><path fill="#ffffff" d="M 0.0664062 0.761719 L 30.085938 0.761719 L 30.085938 12.769531 L 0.0664062 12.769531 Z M 0.0664062 0.761719 " fill-opacity="1" fill-rule="nonzero"/></g></g></g></g></g><g clip-path="url(#c7fe754ad8)"><g clip-path="url(#216d52f0c2)"><g clip-path="url(#864f9cd5c9)"><path fill="#ffffff" d="M 35.46875 24.253906 L 84.09375 72.875 L 72.683594 84.285156 L 24.0625 35.664062 Z M 35.46875 24.253906 " fill-opacity="1" fill-rule="nonzero"/></g></g></g><g clip-path="url(#f0e53b544f)"><g clip-path="url(#56d12ca610)"><g clip-path="url(#8a2adf09de)"><path fill="#ffffff" d="M 24.226562 72.890625 L 72.851562 24.265625 L 84.257812 35.675781 L 35.636719 84.300781 Z M 24.226562 72.890625 " fill-opacity="1" fill-rule="nonzero"/></g></g></g></svg>