<svg xmlns="http://www.w3.org/2000/svg" xmlns:xlink="http://www.w3.org/1999/xlink" width="145" zoomAndPan="magnify" viewBox="0 0 108.75 101.999999" height="136" preserveAspectRatio="xMidYMid meet" version="1.0"><defs><filter x="0%" y="0%" width="100%" height="100%" id="0827f80197"><feColorMatrix values="0 0 0 0 1 0 0 0 0 1 0 0 0 0 1 0 0 0 1 0" color-interpolation-filters="sRGB"/></filter><clipPath id="c29721e6a9"><path d="M 0 0.117188 L 108.5 0.117188 L 108.5 101.882812 L 0 101.882812 Z M 0 0.117188 " clip-rule="nonzero"/></clipPath><clipPath id="c5796c79cf"><path d="M 9.726562 0.117188 L 98.773438 0.117188 C 104.144531 0.117188 108.5 4.472656 108.5 9.84375 L 108.5 92.15625 C 108.5 97.527344 104.144531 101.882812 98.773438 101.882812 L 9.726562 101.882812 C 4.355469 101.882812 0 97.527344 0 92.15625 L 0 9.84375 C 0 4.472656 4.355469 0.117188 9.726562 0.117188 Z M 9.726562 0.117188 " clip-rule="nonzero"/></clipPath><mask id="413bf22d06"><g filter="url(#0827f80197)"><rect x="-10.875" width="130.5" fill="#000000" y="-10.2" height="122.399999" fill-opacity="0.41"/></g></mask><clipPath id="1e9b3a601c"><path d="M 3.480469 3.507812 L 15.949219 3.507812 L 15.949219 6.328125 L 3.480469 6.328125 Z M 3.480469 3.507812 " clip-rule="nonzero"/></clipPath><clipPath id="8ec1803775"><path d="M 4.101562 4.214844 C 15.675781 3.703125 15.914062 4.128906 15.914062 4.382812 C 15.914062 4.636719 15.070312 5.144531 14.949219 5.058594 C 14.828125 4.890625 15.011719 3.621094 15.191406 3.535156 C 15.371094 3.449219 15.855469 3.957031 15.914062 4.296875 C 15.914062 4.550781 15.734375 4.976562 15.371094 5.230469 C 14.046875 6.160156 5.425781 6.753906 4.101562 5.90625 C 3.679688 5.652344 3.496094 5.230469 3.496094 4.890625 C 3.496094 4.636719 4.101562 4.214844 4.101562 4.214844 " clip-rule="nonzero"/></clipPath><clipPath id="4a50b859da"><rect x="0" width="19" y="0" height="10"/></clipPath><clipPath id="c84292ec60"><path d="M 50 0.117188 L 104 0.117188 L 104 13 L 50 13 Z M 50 0.117188 " clip-rule="nonzero"/></clipPath><mask id="d05fc501f4"><g filter="url(#0827f80197)"><rect x="-10.875" width="130.5" fill="#000000" y="-10.2" height="122.399999" fill-opacity="0.41"/></g></mask><clipPath id="f63eefc77f"><path d="M 2.769531 4.386719 L 51.09375 4.386719 L 51.09375 8.703125 L 2.769531 8.703125 Z M 2.769531 4.386719 " clip-rule="nonzero"/></clipPath><clipPath id="fc0247ce9b"><path d="M 3.40625 4.910156 C 45.480469 4.222656 46.925781 4.222656 48.433594 4.910156 C 49.519531 5.398438 50.964844 6.277344 51.085938 7.0625 C 51.148438 7.550781 50.542969 8.625 50.363281 8.527344 C 50.242188 8.527344 50.0625 7.257812 50.183594 6.960938 C 50.304688 6.667969 50.964844 6.667969 51.027344 6.960938 C 51.148438 7.160156 50.90625 8.429688 50.664062 8.625 C 50.242188 8.917969 49.277344 7.257812 48.3125 6.863281 C 46.867188 6.277344 45.421875 6.179688 42.648438 5.984375 C 35.472656 5.496094 6.300781 8.527344 3.40625 6.863281 C 3.042969 6.570312 2.863281 6.277344 2.804688 5.984375 C 2.804688 5.691406 3.40625 4.910156 3.40625 4.910156 " clip-rule="nonzero"/></clipPath><clipPath id="ddf0c57ba1"><rect x="0" width="54" y="0" height="13"/></clipPath><mask id="99abbfaaba"><g filter="url(#0827f80197)"><rect x="-10.875" width="130.5" fill="#000000" y="-10.2" height="122.399999" fill-opacity="0.41"/></g></mask><clipPath id="d5d91e2ff3"><path d="M 2.460938 3.574219 L 27.742188 3.574219 L 27.742188 8.402344 L 2.460938 8.402344 Z M 2.460938 3.574219 " clip-rule="nonzero"/></clipPath><clipPath id="1f4b620c4a"><path d="M 27.074219 6.152344 C 7.480469 5.78125 6.820312 5.78125 5.855469 6.246094 C 4.828125 6.707031 3.445312 8.644531 2.960938 8.367188 C 2.660156 8.277344 2.417969 7.261719 2.480469 7.074219 C 2.601562 6.796875 3.5625 6.984375 3.625 7.167969 C 3.625 7.445312 2.960938 8.460938 2.839844 8.367188 C 2.660156 8.277344 2.480469 7.351562 2.601562 6.890625 C 2.78125 6.152344 3.984375 5.320312 4.890625 4.765625 C 5.976562 4.210938 7.058594 4.027344 8.867188 3.84375 C 12.425781 3.382812 22.128906 3.660156 25.144531 4.027344 C 26.289062 4.121094 27.132812 4.027344 27.496094 4.488281 C 27.734375 4.765625 27.796875 5.414062 27.675781 5.691406 C 27.613281 5.96875 27.074219 6.152344 27.074219 6.152344 " clip-rule="nonzero"/></clipPath><clipPath id="3e886610f4"><rect x="0" width="31" y="0" height="13"/></clipPath><clipPath id="ca31e4a7ac"><path d="M 27 27 L 81 27 L 81 81 L 27 81 Z M 27 27 " clip-rule="nonzero"/></clipPath><clipPath id="9490057a66"><path d="M 35.46875 24.253906 L 84.136719 72.921875 L 72.730469 84.332031 L 24.0625 35.664062 Z M 35.46875 24.253906 " clip-rule="nonzero"/></clipPath><clipPath id="936798533b"><path d="M 41.175781 29.957031 L 78.402344 67.1875 C 81.554688 70.335938 81.554688 75.445312 78.402344 78.59375 C 75.253906 81.746094 70.144531 81.746094 66.992188 78.59375 L 29.765625 41.367188 C 26.613281 38.214844 26.613281 33.109375 29.765625 29.957031 C 32.917969 26.808594 38.023438 26.808594 41.175781 29.957031 Z M 41.175781 29.957031 " clip-rule="nonzero"/></clipPath><clipPath id="4796c4da0b"><path d="M 29 28 L 82 28 L 82 80 L 29 80 Z M 29 28 " clip-rule="nonzero"/></clipPath><clipPath id="152382bea5"><path d="M 84.105469 35.660156 L 36.851562 82.914062 L 26.835938 72.898438 L 74.089844 25.644531 Z M 84.105469 35.660156 " clip-rule="nonzero"/></clipPath><clipPath id="5a42bfe49d"><path d="M 79.097656 40.667969 L 41.867188 77.894531 C 40.539062 79.222656 38.738281 79.96875 36.863281 79.96875 C 34.984375 79.96875 33.183594 79.222656 31.855469 77.894531 C 30.527344 76.566406 29.78125 74.765625 29.78125 72.890625 C 29.78125 71.011719 30.527344 69.210938 31.855469 67.882812 L 69.082031 30.652344 C 70.410156 29.324219 72.210938 28.578125 74.089844 28.578125 C 75.96875 28.578125 77.769531 29.324219 79.097656 30.652344 C 80.425781 31.980469 81.171875 33.78125 81.171875 35.660156 C 81.171875 37.539062 80.425781 39.339844 79.097656 40.667969 Z M 79.097656 40.667969 " clip-rule="nonzero"/></clipPath></defs><g clip-path="url(#c29721e6a9)"><g clip-path="url(#c5796c79cf)"><path fill="#ff625c" d="M 0 0.117188 L 108.523438 0.117188 L 108.523438 101.882812 L 0 101.882812 Z M 0 0.117188 " fill-opacity="1" fill-rule="nonzero"/></g></g><g mask="url(#413bf22d06)"><g transform="matrix(1, 0, 0, 1, 34, 1)"><g clip-path="url(#4a50b859da)"><g clip-path="url(#1e9b3a601c)"><g clip-path="url(#8ec1803775)"><path fill="#ffffff" d="M 1.085938 0.148438 L 18.375 0.148438 L 18.375 9.292969 L 1.085938 9.292969 Z M 1.085938 0.148438 " fill-opacity="1" fill-rule="nonzero"/></g></g></g></g></g><g clip-path="url(#c84292ec60)"><g mask="url(#d05fc501f4)"><g transform="matrix(1, 0, 0, 1, 50, -0.000000000000002595)"><g clip-path="url(#ddf0c57ba1)"><g clip-path="url(#f63eefc77f)"><g clip-path="url(#fc0247ce9b)"><path fill="#ffffff" d="M 0.390625 0.117188 L 53.519531 0.117188 L 53.519531 12.539062 L 0.390625 12.539062 Z M 0.390625 0.117188 " fill-opacity="1" fill-rule="nonzero"/></g></g></g></g></g></g><g mask="url(#99abbfaaba)"><g transform="matrix(1, 0, 0, 1, 5, 1)"><g clip-path="url(#3e886610f4)"><g clip-path="url(#d5d91e2ff3)"><g clip-path="url(#1f4b620c4a)"><path fill="#ffffff" d="M 0.0664062 0.148438 L 30.085938 0.148438 L 30.085938 12.15625 L 0.0664062 12.15625 Z M 0.0664062 0.148438 " fill-opacity="1" fill-rule="nonzero"/></g></g></g></g></g><g clip-path="url(#ca31e4a7ac)"><g clip-path="url(#9490057a66)"><g clip-path="url(#936798533b)"><path fill="#ffffff" d="M 35.46875 24.253906 L 84.09375 72.875 L 72.683594 84.285156 L 24.0625 35.664062 Z M 35.46875 24.253906 " fill-opacity="1" fill-rule="nonzero"/></g></g></g><g clip-path="url(#4796c4da0b)"><g clip-path="url(#152382bea5)"><g clip-path="url(#5a42bfe49d)"><path fill="#ffffff" d="M 84.105469 35.660156 L 36.851562 82.914062 L 26.835938 72.898438 L 74.089844 25.644531 Z M 84.105469 35.660156 " fill-opacity="1" fill-rule="nonzero"/></g></g></g></svg>