<svg xmlns="http://www.w3.org/2000/svg" xmlns:xlink="http://www.w3.org/1999/xlink" width="100" zoomAndPan="magnify" viewBox="0 0 75 74.999997" height="100" preserveAspectRatio="xMidYMid meet" version="1.0"><defs><clipPath id="71ef0c42ca"><path d="M 11 40 L 43 40 L 43 65 L 11 65 Z M 11 40 " clip-rule="nonzero"/></clipPath><clipPath id="925691760a"><path d="M 16.269531 68.972656 L 11.78125 42.347656 L 38.40625 37.859375 L 42.894531 64.484375 Z M 16.269531 68.972656 " clip-rule="nonzero"/></clipPath><clipPath id="29bf3be80f"><path d="M 16.269531 68.972656 L 11.78125 42.347656 L 38.40625 37.859375 L 42.894531 64.484375 Z M 16.269531 68.972656 " clip-rule="nonzero"/></clipPath><clipPath id="7ed33f5b29"><path d="M 11 14 L 32 14 L 32 49 L 11 49 Z M 11 14 " clip-rule="nonzero"/></clipPath><clipPath id="52e33b798c"><path d="M 2.84375 25.09375 L 26.664062 14.066406 L 37.691406 37.886719 L 13.871094 48.914062 Z M 2.84375 25.09375 " clip-rule="nonzero"/></clipPath><clipPath id="3f15557715"><path d="M 2.84375 25.09375 L 26.664062 14.066406 L 37.691406 37.886719 L 13.871094 48.914062 Z M 2.84375 25.09375 " clip-rule="nonzero"/></clipPath><clipPath id="3a04333e88"><path d="M 22 11 L 60 11 L 60 31 L 22 31 Z M 22 11 " clip-rule="nonzero"/></clipPath><clipPath id="c9337a0ecd"><path d="M 44.757812 1.050781 L 59.988281 23.34375 L 37.695312 38.578125 L 22.464844 16.28125 Z M 44.757812 1.050781 " clip-rule="nonzero"/></clipPath><clipPath id="9c3b71e114"><path d="M 44.757812 1.050781 L 59.988281 23.34375 L 37.695312 38.578125 L 22.464844 16.28125 Z M 44.757812 1.050781 " clip-rule="nonzero"/></clipPath><clipPath id="93221c432a"><path d="M 45 20 L 66 20 L 66 39 L 45 39 Z M 45 20 " clip-rule="nonzero"/></clipPath><clipPath id="13a6f67b3a"><path d="M 44.851562 32.828125 L 64.03125 19.707031 L 72.445312 32.003906 L 53.261719 45.125 Z M 44.851562 32.828125 " clip-rule="nonzero"/></clipPath><clipPath id="36710782c3"><path d="M 63.886719 36.726562 L 65.066406 21.828125 C 65.109375 21.277344 64.832031 20.75 64.355469 20.472656 C 63.875 20.199219 63.28125 20.21875 62.824219 20.53125 L 46.066406 31.996094 C 45.609375 32.308594 45.371094 32.855469 45.457031 33.402344 C 45.542969 33.945312 45.933594 34.394531 46.460938 34.554688 L 60.777344 38.855469 C 61.476562 39.066406 62.234375 38.949219 62.839844 38.535156 C 63.441406 38.121094 63.828125 37.457031 63.886719 36.726562 Z M 63.886719 36.726562 " clip-rule="nonzero"/></clipPath><clipPath id="32bd848749"><path d="M 13.890625 13.132812 L 35.609375 13.132812 L 35.609375 32.238281 L 13.890625 32.238281 Z M 13.890625 13.132812 " clip-rule="nonzero"/></clipPath><clipPath id="01f58e784c"><path d="M 13.925781 31.648438 C 14.714844 29.175781 15.296875 28.011719 15.859375 26.941406 C 16.511719 25.679688 17.371094 24.144531 18.117188 23.046875 C 18.699219 22.164062 19.214844 21.488281 19.867188 20.765625 C 20.519531 19.996094 21.125 19.34375 22.054688 18.597656 C 23.382812 17.503906 25.714844 15.988281 27.277344 15.148438 C 28.441406 14.519531 29.328125 14.101562 30.515625 13.773438 C 31.867188 13.402344 34.359375 13.074219 35.058594 13.167969 C 35.269531 13.191406 35.386719 13.214844 35.480469 13.308594 C 35.546875 13.402344 35.59375 13.609375 35.570312 13.726562 C 35.523438 13.867188 35.386719 14.007812 35.269531 14.054688 C 35.152344 14.101562 34.941406 14.078125 34.847656 13.984375 C 34.734375 13.890625 34.640625 13.585938 34.6875 13.449219 C 34.710938 13.332031 34.871094 13.191406 35.011719 13.167969 C 35.152344 13.144531 35.457031 13.261719 35.523438 13.402344 C 35.59375 13.539062 35.523438 13.867188 35.316406 14.03125 C 34.804688 14.472656 32.472656 14.191406 31.191406 14.542969 C 29.957031 14.84375 28.953125 15.3125 27.695312 15.988281 C 26.085938 16.851562 23.898438 18.203125 22.382812 19.53125 C 21.054688 20.695312 19.984375 22.023438 19.003906 23.375 C 18.09375 24.679688 17.371094 26.007812 16.648438 27.429688 C 15.929688 28.898438 15.296875 31.578125 14.738281 32.066406 C 14.554688 32.207031 14.34375 32.253906 14.226562 32.183594 C 14.085938 32.113281 13.925781 31.648438 13.925781 31.648438 " clip-rule="nonzero"/></clipPath><clipPath id="fdd16932c7"><path d="M 12.726562 33.941406 L 14.296875 33.941406 L 14.296875 40.332031 L 12.726562 40.332031 Z M 12.726562 33.941406 " clip-rule="nonzero"/></clipPath><clipPath id="990fc53b8a"><path d="M 14.085938 34.558594 C 13.644531 37.355469 14.460938 39.429688 14.25 39.964844 C 14.15625 40.199219 13.945312 40.339844 13.808594 40.316406 C 13.644531 40.316406 13.339844 39.988281 13.339844 39.824219 C 13.316406 39.710938 13.433594 39.523438 13.550781 39.453125 C 13.667969 39.382812 13.878906 39.359375 13.992188 39.429688 C 14.132812 39.523438 14.25 39.917969 14.203125 40.058594 C 14.15625 40.199219 13.96875 40.316406 13.855469 40.316406 C 13.691406 40.316406 13.503906 40.222656 13.363281 40.035156 C 13.039062 39.546875 12.78125 37.730469 12.734375 36.820312 C 12.710938 36.167969 12.78125 35.609375 12.898438 35.140625 C 12.96875 34.746094 13.0625 34.28125 13.269531 34.117188 C 13.433594 33.976562 13.738281 33.90625 13.878906 33.976562 C 14.015625 34.070312 14.085938 34.558594 14.085938 34.558594 " clip-rule="nonzero"/></clipPath><clipPath id="8529e57b17"><path d="M 60.066406 22.191406 L 63.859375 22.191406 L 63.859375 24.664062 L 60.066406 24.664062 Z M 60.066406 22.191406 " clip-rule="nonzero"/></clipPath><clipPath id="defc56c3b4"><path d="M 60.203125 23.886719 C 61.601562 22.699219 62.464844 22.164062 62.929688 22.210938 C 63.230469 22.253906 63.535156 22.535156 63.675781 22.816406 C 63.859375 23.164062 63.929688 24.050781 63.746094 24.238281 C 63.605469 24.375 63.183594 24.351562 63.070312 24.261719 C 62.953125 24.191406 62.90625 23.980469 62.929688 23.863281 C 62.953125 23.722656 63.070312 23.539062 63.183594 23.515625 C 63.347656 23.46875 63.746094 23.628906 63.816406 23.769531 C 63.882812 23.910156 63.769531 24.214844 63.652344 24.304688 C 63.558594 24.398438 63.371094 24.445312 63.230469 24.375 C 63 24.261719 62.976562 23.28125 62.671875 23.210938 C 62.230469 23.09375 61.136719 24.632812 60.644531 24.65625 C 60.414062 24.679688 60.15625 24.539062 60.085938 24.398438 C 60.039062 24.261719 60.203125 23.886719 60.203125 23.886719 " clip-rule="nonzero"/></clipPath></defs><path fill="#ffffff" d="M 75 37.5 C 75 38.726562 74.941406 39.953125 74.820312 41.175781 C 74.699219 42.398438 74.519531 43.609375 74.28125 44.816406 C 74.039062 46.019531 73.742188 47.210938 73.386719 48.386719 C 73.027344 49.5625 72.617188 50.714844 72.144531 51.851562 C 71.675781 52.984375 71.152344 54.09375 70.570312 55.175781 C 69.992188 56.261719 69.363281 57.3125 68.679688 58.332031 C 67.996094 59.355469 67.265625 60.339844 66.488281 61.289062 C 65.707031 62.238281 64.886719 63.148438 64.015625 64.015625 C 63.148438 64.886719 62.238281 65.707031 61.289062 66.488281 C 60.339844 67.265625 59.355469 67.996094 58.332031 68.679688 C 57.3125 69.363281 56.261719 69.992188 55.175781 70.570312 C 54.09375 71.152344 52.984375 71.675781 51.851562 72.144531 C 50.714844 72.617188 49.5625 73.027344 48.386719 73.386719 C 47.210938 73.742188 46.019531 74.039062 44.816406 74.28125 C 43.609375 74.519531 42.398438 74.699219 41.175781 74.820312 C 39.953125 74.941406 38.726562 75 37.5 75 C 36.273438 75 35.046875 74.941406 33.824219 74.820312 C 32.601562 74.699219 31.390625 74.519531 30.183594 74.28125 C 28.980469 74.039062 27.789062 73.742188 26.613281 73.386719 C 25.4375 73.027344 24.285156 72.617188 23.148438 72.144531 C 22.015625 71.675781 20.90625 71.152344 19.824219 70.570312 C 18.738281 69.992188 17.6875 69.363281 16.667969 68.679688 C 15.644531 67.996094 14.660156 67.265625 13.710938 66.488281 C 12.761719 65.707031 11.851562 64.886719 10.984375 64.015625 C 10.113281 63.148438 9.292969 62.238281 8.511719 61.289062 C 7.734375 60.339844 7.003906 59.355469 6.320312 58.332031 C 5.636719 57.3125 5.007812 56.261719 4.429688 55.175781 C 3.847656 54.09375 3.324219 52.984375 2.855469 51.851562 C 2.382812 50.714844 1.972656 49.5625 1.613281 48.386719 C 1.257812 47.210938 0.960938 46.019531 0.71875 44.816406 C 0.480469 43.609375 0.300781 42.398438 0.179688 41.175781 C 0.0585938 39.953125 0 38.726562 0 37.5 C 0 36.273438 0.0585938 35.046875 0.179688 33.824219 C 0.300781 32.601562 0.480469 31.390625 0.71875 30.183594 C 0.960938 28.980469 1.257812 27.789062 1.613281 26.613281 C 1.972656 25.4375 2.382812 24.285156 2.855469 23.148438 C 3.324219 22.015625 3.847656 20.90625 4.429688 19.824219 C 5.007812 18.738281 5.636719 17.6875 6.320312 16.667969 C 7.003906 15.644531 7.734375 14.660156 8.511719 13.710938 C 9.292969 12.761719 10.113281 11.851562 10.984375 10.984375 C 11.851562 10.113281 12.761719 9.292969 13.710938 8.511719 C 14.660156 7.734375 15.644531 7.003906 16.667969 6.320312 C 17.6875 5.636719 18.738281 5.007812 19.824219 4.429688 C 20.90625 3.847656 22.015625 3.324219 23.148438 2.855469 C 24.285156 2.382812 25.4375 1.972656 26.613281 1.613281 C 27.789062 1.257812 28.980469 0.960938 30.183594 0.71875 C 31.390625 0.480469 32.601562 0.300781 33.824219 0.179688 C 35.046875 0.0585938 36.273438 0 37.5 0 C 38.726562 0 39.953125 0.0585938 41.175781 0.179688 C 42.398438 0.300781 43.609375 0.480469 44.816406 0.71875 C 46.019531 0.960938 47.210938 1.257812 48.386719 1.613281 C 49.5625 1.972656 50.714844 2.382812 51.851562 2.855469 C 52.984375 3.324219 54.09375 3.847656 55.175781 4.429688 C 56.261719 5.007812 57.3125 5.636719 58.332031 6.320312 C 59.355469 7.003906 60.339844 7.734375 61.289062 8.511719 C 62.238281 9.292969 63.148438 10.113281 64.015625 10.984375 C 64.886719 11.851562 65.707031 12.761719 66.488281 13.710938 C 67.265625 14.660156 67.996094 15.644531 68.679688 16.667969 C 69.363281 17.6875 69.992188 18.738281 70.570312 19.824219 C 71.152344 20.90625 71.675781 22.015625 72.144531 23.148438 C 72.617188 24.285156 73.027344 25.4375 73.386719 26.613281 C 73.742188 27.789062 74.039062 28.980469 74.28125 30.183594 C 74.519531 31.390625 74.699219 32.601562 74.820312 33.824219 C 74.941406 35.046875 75 36.273438 75 37.5 Z M 75 37.5 " fill-opacity="1" fill-rule="nonzero"/><g clip-path="url(#71ef0c42ca)"><g clip-path="url(#925691760a)"><g clip-path="url(#29bf3be80f)"><path fill="#000000" d="M 23.601562 40.484375 L 11.804688 42.472656 C 14.269531 57.109375 28.132812 66.972656 42.765625 64.507812 L 40.777344 52.707031 C 32.660156 54.074219 24.972656 48.601562 23.601562 40.484375 Z M 23.601562 40.484375 " fill-opacity="1" fill-rule="nonzero"/></g></g></g><g clip-path="url(#7ed33f5b29)"><g clip-path="url(#52e33b798c)"><g clip-path="url(#3f15557715)"><path fill="#000000" d="M 31.972656 24.667969 L 26.992188 13.914062 C 13.65625 20.089844 7.847656 35.90625 14.023438 49.246094 L 24.777344 44.265625 C 21.351562 36.867188 24.574219 28.09375 31.972656 24.667969 Z M 31.972656 24.667969 " fill-opacity="1" fill-rule="nonzero"/></g></g></g><g clip-path="url(#3a04333e88)"><g clip-path="url(#c9337a0ecd)"><g clip-path="url(#9c3b71e114)"><path fill="#000000" d="M 50.082031 30.230469 L 60.042969 23.421875 C 51.601562 11.066406 34.742188 7.894531 22.386719 16.335938 L 29.195312 26.296875 C 36.046875 21.613281 45.398438 23.375 50.082031 30.230469 Z M 50.082031 30.230469 " fill-opacity="1" fill-rule="nonzero"/></g></g></g><g clip-path="url(#93221c432a)"><g clip-path="url(#13a6f67b3a)"><g clip-path="url(#36710782c3)"><path fill="#000000" d="M 43.589844 33.691406 L 65.292969 18.84375 L 74.496094 32.296875 L 52.792969 47.144531 Z M 43.589844 33.691406 " fill-opacity="1" fill-rule="nonzero"/></g></g></g><g clip-path="url(#32bd848749)"><g clip-path="url(#01f58e784c)"><path fill="#ffffff" d="M 12.992188 12.234375 L 36.507812 12.234375 L 36.507812 33.136719 L 12.992188 33.136719 Z M 12.992188 12.234375 " fill-opacity="1" fill-rule="nonzero"/></g></g><g clip-path="url(#fdd16932c7)"><g clip-path="url(#990fc53b8a)"><path fill="#ffffff" d="M 11.804688 33.042969 L 15.183594 33.042969 L 15.183594 41.242188 L 11.804688 41.242188 Z M 11.804688 33.042969 " fill-opacity="1" fill-rule="nonzero"/></g></g><g clip-path="url(#8529e57b17)"><g clip-path="url(#defc56c3b4)"><path fill="#ffffff" d="M 59.152344 21.277344 L 64.742188 21.277344 L 64.742188 25.613281 L 59.152344 25.613281 Z M 59.152344 21.277344 " fill-opacity="1" fill-rule="nonzero"/></g></g></svg>